<svg width="136" height="76" viewBox="0 0 136 76" fill="none" xmlns="http://www.w3.org/2000/svg">
<g opacity="0.5" clip-path="url(#clip0_325_4487)">
<path d="M29.6245 41.332H30.5228C33.6415 41.4013 36.7094 42.6822 38.9129 44.9498C38.0993 45.798 37.2688 46.6115 36.4722 47.4597C35.2348 46.3172 33.7432 45.4344 32.1161 45.1229C29.7092 44.6036 27.1159 45.0709 25.0989 46.473C22.8954 47.9444 21.4038 50.437 21.0818 53.1027C20.7258 55.7338 21.4547 58.5033 23.1327 60.5459C24.7429 62.5365 27.2006 63.7828 29.7431 63.8694C32.1161 64.0078 34.5907 63.2635 36.3196 61.5672C37.6756 60.3728 38.3027 58.5553 38.5061 56.7897C35.6925 56.7897 32.8788 56.807 30.0652 56.7897V53.2238H41.913C42.5232 57.0493 41.6418 61.3594 38.7943 64.0944C36.8959 66.0331 34.2687 67.1755 31.5906 67.4006C28.9973 67.6602 26.3193 67.1582 24.0141 65.8773C21.2513 64.3713 19.0478 61.8268 17.963 58.8322C16.9461 56.08 16.9291 52.9642 17.8783 50.1946C18.7427 47.6674 20.4038 45.4344 22.5395 43.8766C24.5904 42.336 27.082 41.4878 29.6245 41.332Z" fill="#40615A"/>
<path d="M97.593 42.2305H101.22V66.9488C100.017 66.9488 98.7964 66.9661 97.593 66.9315C97.61 58.7094 97.593 50.4699 97.593 42.2305Z" fill="#40615A"/>
<path d="M49.9804 50.7942C52.2177 50.3614 54.6415 50.8461 56.4891 52.2136C58.1671 53.4253 59.3366 55.3293 59.6926 57.4065C60.1502 59.8126 59.5739 62.4437 58.0484 64.3477C56.4043 66.4768 53.7093 67.6193 51.0821 67.4462C48.6752 67.3077 46.3362 66.0787 44.9124 64.0708C43.3022 61.8551 42.9123 58.8086 43.7937 56.2121C44.6751 53.4253 47.1667 51.2962 49.9804 50.7942ZM50.4889 54.083C49.5736 54.3254 48.7261 54.862 48.1159 55.6236C46.4718 57.6315 46.5735 60.9031 48.3871 62.7725C49.421 63.8457 50.9804 64.3477 52.4211 64.0535C53.7602 63.8111 54.9297 62.8937 55.5738 61.682C56.6925 59.6222 56.3704 56.7834 54.6585 55.1735C53.5568 54.135 51.9465 53.7022 50.4889 54.083Z" fill="#40615A"/>
<path d="M67.9477 50.7954C70.5071 50.2935 73.3038 51.0205 75.2191 52.8553C78.3379 55.7114 78.6769 61.0601 76.0158 64.349C74.4055 66.4262 71.7953 67.5686 69.2189 67.4475C66.7612 67.3782 64.3374 66.1319 62.8797 64.072C61.2356 61.8045 60.8797 58.6887 61.8119 56.0403C62.7441 53.34 65.1849 51.2801 67.9477 50.7954ZM68.4562 54.0843C67.5409 54.3266 66.6934 54.8632 66.0832 55.6076C64.4561 57.5809 64.5239 60.8005 66.2697 62.6873C67.3036 63.8124 68.9138 64.3663 70.4054 64.0547C71.7275 63.7951 72.914 62.895 73.5581 61.6833C74.6598 59.6061 74.3377 56.7673 72.6089 55.1575C71.5071 54.1189 69.8969 53.7035 68.4562 54.0843Z" fill="#40615A"/>
<path d="M83.1851 51.8C85.1343 50.5537 87.7276 50.2075 89.8294 51.2807C90.4904 51.5749 91.0328 52.0769 91.5583 52.5789C91.5752 52.1115 91.5583 51.6269 91.5752 51.1422C92.7108 51.1595 93.8465 51.1422 94.9991 51.1595V66.4267C94.9821 68.7289 94.4058 71.1696 92.7786 72.8486C90.9989 74.7008 88.27 75.272 85.8123 74.8912C83.1851 74.4931 80.8969 72.5371 79.8799 70.0618C80.8969 69.5598 81.9647 69.1617 83.0156 68.6943C83.6088 70.1137 84.8123 71.3254 86.3208 71.6023C87.8293 71.8793 89.5751 71.4985 90.5582 70.2176C91.6091 68.902 91.6091 67.1018 91.5583 65.492C90.7786 66.2709 89.8802 66.9633 88.7955 67.223C86.4394 67.8981 83.8461 67.0672 82.0325 65.4401C80.2019 63.8129 79.1172 61.303 79.2189 58.8104C79.2697 55.9889 80.8291 53.2713 83.1851 51.8ZM86.6937 54.0156C85.6598 54.1887 84.6936 54.7772 84.0326 55.5908C82.4393 57.5295 82.4393 60.6279 84.0495 62.532C84.9648 63.6572 86.4394 64.2803 87.8632 64.1245C89.2022 63.986 90.4396 63.1206 91.1006 61.9262C92.2193 59.9009 92.0329 57.1487 90.5243 55.3831C89.5921 54.2926 88.1005 53.756 86.6937 54.0156Z" fill="#40615A"/>
<path d="M105.575 52.6818C107.609 50.7431 110.745 50.0854 113.355 51.1067C115.83 52.0587 117.406 54.4647 118.203 56.94C114.525 58.4979 110.863 60.0385 107.185 61.5964C107.694 62.583 108.473 63.4831 109.524 63.8466C110.999 64.3833 112.762 64.1928 113.999 63.1889C114.491 62.8081 114.88 62.3061 115.253 61.8214C116.186 62.4619 117.118 63.085 118.05 63.7255C116.728 65.7507 114.508 67.1701 112.118 67.3952C109.473 67.724 106.66 66.6854 104.948 64.5737C102.134 61.2502 102.405 55.6764 105.575 52.6818ZM107.389 55.8841C106.812 56.7323 106.575 57.7709 106.592 58.7922C109.05 57.7536 111.507 56.715 113.965 55.6591C113.558 54.6898 112.575 54.1012 111.575 53.9455C109.965 53.6512 108.287 54.534 107.389 55.8841Z" fill="#40615A"/>
</g>
<path d="M9.52163 11.849V13.559H0.897735L0.807303 12.2436L5.8797 4.24449H7.61434L5.73994 7.42604L3.01877 11.849H9.52163ZM8.09939 4.24449V16.2144H5.9208V4.24449H8.09939ZM11.0343 15.1538C11.0343 14.825 11.1467 14.5482 11.3714 14.3235C11.5961 14.0988 11.9003 13.9864 12.2839 13.9864C12.6676 13.9864 12.9717 14.0988 13.1964 14.3235C13.4212 14.5482 13.5335 14.825 13.5335 15.1538C13.5335 15.4772 13.4212 15.7512 13.1964 15.9759C12.9717 16.1952 12.6676 16.3048 12.2839 16.3048C11.9003 16.3048 11.5961 16.1952 11.3714 15.9759C11.1467 15.7512 11.0343 15.4772 11.0343 15.1538ZM23.6536 4.24449V5.42832L18.9512 16.2144H16.6575L21.36 5.95447H15.2764V4.24449H23.6536Z" fill="#40615A"/>
<path fill-rule="evenodd" clip-rule="evenodd" d="M39.122 16.5738L43.3577 19.1303C44.1305 19.5967 45.0838 18.9039 44.8787 18.0249L43.7546 13.2065L47.4981 9.9635C48.1804 9.37247 47.8157 8.2518 46.9162 8.17549L41.9893 7.75749L40.0615 3.20889C39.7099 2.37927 38.5341 2.37927 38.1825 3.20889L36.2546 7.75749L31.3277 8.17549C30.4283 8.2518 30.0636 9.37247 30.7459 9.9635L34.4893 13.2065L33.3653 18.0249C33.1602 18.9039 34.1135 19.5967 34.8863 19.1303L39.122 16.5738Z" fill="#F1845B"/>
<path fill-rule="evenodd" clip-rule="evenodd" d="M60.5506 16.5738L64.7863 19.1303C65.559 19.5967 66.5123 18.9039 66.3073 18.0249L65.1832 13.2065L68.9267 9.9635C69.6089 9.37247 69.2442 8.2518 68.3448 8.17549L63.4179 7.75749L61.4901 3.20889C61.1385 2.37927 59.9627 2.37927 59.6111 3.20889L57.6832 7.75749L52.7563 8.17549C51.8569 8.2518 51.4922 9.37247 52.1744 9.9635L55.9179 13.2065L54.7938 18.0249C54.5888 18.9039 55.5421 19.5967 56.3148 19.1303L60.5506 16.5738Z" fill="#F1845B"/>
<path fill-rule="evenodd" clip-rule="evenodd" d="M81.9791 16.5738L86.2148 19.1303C86.9876 19.5967 87.9409 18.9039 87.7359 18.0249L86.6118 13.2065L90.3553 9.9635C91.0375 9.37247 90.6728 8.2518 89.7734 8.17549L84.8465 7.75749L82.9186 3.20889C82.567 2.37927 81.3912 2.37927 81.0396 3.20889L79.1118 7.75749L74.1849 8.17549C73.2855 8.2518 72.9208 9.37247 73.603 9.9635L77.3465 13.2065L76.2224 18.0249C76.0174 18.9039 76.9706 19.5967 77.7434 19.1303L81.9791 16.5738Z" fill="#F1845B"/>
<path fill-rule="evenodd" clip-rule="evenodd" d="M103.408 16.5738L107.643 19.1303C108.416 19.5967 109.369 18.9039 109.164 18.0249L108.04 13.2065L111.784 9.9635C112.466 9.37247 112.101 8.2518 111.202 8.17549L106.275 7.75749L104.347 3.20889C103.996 2.37927 102.82 2.37927 102.468 3.20889L100.54 7.75749L95.6134 8.17549C94.714 8.2518 94.3493 9.37247 95.0316 9.9635L98.775 13.2065L97.651 18.0249C97.4459 18.9039 98.3992 19.5967 99.172 19.1303L103.408 16.5738Z" fill="#F1845B"/>
<path fill-rule="evenodd" clip-rule="evenodd" d="M124.836 16.5738L129.072 19.1303C129.845 19.5967 130.798 18.9039 130.593 18.0249L129.469 13.2065L133.212 9.9635C133.895 9.37247 133.53 8.2518 132.631 8.17549L127.704 7.75749L125.776 3.20889C125.424 2.37927 124.248 2.37927 123.897 3.20889L121.969 7.75749L117.042 8.17549C116.143 8.2518 115.778 9.37247 116.46 9.9635L120.204 13.2065L119.08 18.0249C118.874 18.9039 119.828 19.5967 120.601 19.1303L124.836 16.5738Z" fill="#EBEDE9"/>
<mask id="mask0_325_4487" style="mask-type:alpha" maskUnits="userSpaceOnUse" x="116" y="2" width="18" height="18">
<path fill-rule="evenodd" clip-rule="evenodd" d="M124.836 16.5738L129.072 19.1303C129.845 19.5967 130.798 18.9039 130.593 18.0249L129.469 13.2065L133.212 9.9635C133.895 9.37247 133.53 8.2518 132.631 8.17549L127.704 7.75749L125.776 3.20889C125.424 2.37927 124.248 2.37927 123.897 3.20889L121.969 7.75749L117.042 8.17549C116.143 8.2518 115.778 9.37247 116.46 9.9635L120.204 13.2065L119.08 18.0249C118.874 18.9039 119.828 19.5967 120.601 19.1303L124.836 16.5738Z" fill="#F1845B"/>
</mask>
<g mask="url(#mask0_325_4487)">
<rect x="114.122" width="10.7143" height="21.4286" fill="#F1845B"/>
</g>
<path opacity="0.5" d="M8.61809 31.4027V31.248C8.61809 30.7234 8.69432 30.2368 8.84678 29.7884C8.99925 29.3355 9.21897 28.9431 9.50596 28.6113C9.79295 28.275 10.1405 28.0149 10.5485 27.831C10.9566 27.6427 11.414 27.5485 11.9207 27.5485C12.4319 27.5485 12.8915 27.6427 13.2996 27.831C13.7122 28.0149 14.0619 28.275 14.3489 28.6113C14.6404 28.9431 14.8624 29.3355 15.0148 29.7884C15.1673 30.2368 15.2435 30.7234 15.2435 31.248V31.4027C15.2435 31.9274 15.1673 32.4139 15.0148 32.8623C14.8624 33.3107 14.6404 33.7031 14.3489 34.0394C14.0619 34.3713 13.7144 34.6313 13.3063 34.8197C12.9028 35.0035 12.4454 35.0955 11.9342 35.0955C11.423 35.0955 10.9633 35.0035 10.5553 34.8197C10.1472 34.6313 9.79744 34.3713 9.50596 34.0394C9.21897 33.7031 8.99925 33.3107 8.84678 32.8623C8.69432 32.4139 8.61809 31.9274 8.61809 31.4027ZM9.86246 31.248V31.4027C9.86246 31.7659 9.90506 32.109 9.99026 32.4318C10.0755 32.7502 10.2033 33.0327 10.3737 33.2794C10.5485 33.526 10.766 33.7211 11.0261 33.8645C11.2862 34.0036 11.5889 34.0731 11.9342 34.0731C12.275 34.0731 12.5732 34.0036 12.8288 33.8645C13.0889 33.7211 13.3041 33.526 13.4745 33.2794C13.6449 33.0327 13.7727 32.7502 13.8579 32.4318C13.9476 32.109 13.9924 31.7659 13.9924 31.4027V31.248C13.9924 30.8893 13.9476 30.5507 13.8579 30.2323C13.7727 29.9095 13.6427 29.6247 13.4678 29.3781C13.2974 29.127 13.0821 28.9297 12.822 28.7862C12.5664 28.6427 12.266 28.5709 11.9207 28.5709C11.5799 28.5709 11.2795 28.6427 11.0194 28.7862C10.7638 28.9297 10.5485 29.127 10.3737 29.3781C10.2033 29.6247 10.0755 29.9095 9.99026 30.2323C9.90506 30.5507 9.86246 30.8893 9.86246 31.248ZM21.2569 33.2794V27.6831H22.5079V34.9609H21.3174L21.2569 33.2794ZM21.4923 31.7458L22.0102 31.7323C22.0102 32.2166 21.9586 32.665 21.8555 33.0776C21.7568 33.4856 21.5954 33.8399 21.3712 34.1403C21.147 34.4408 20.8533 34.6762 20.49 34.8466C20.1268 35.0125 19.6851 35.0955 19.165 35.0955C18.8107 35.0955 18.4856 35.0439 18.1896 34.9408C17.8982 34.8376 17.6471 34.6784 17.4363 34.4632C17.2255 34.2479 17.0619 33.9677 16.9453 33.6224C16.8332 33.2771 16.7771 32.8623 16.7771 32.378V27.6831H18.0215V32.3915C18.0215 32.7188 18.0574 32.9901 18.1291 33.2054C18.2053 33.4161 18.3062 33.5843 18.4318 33.7098C18.5618 33.8309 18.7053 33.9161 18.8623 33.9654C19.0237 34.0148 19.1896 34.0394 19.36 34.0394C19.8892 34.0394 20.3084 33.9385 20.6179 33.7367C20.9273 33.5305 21.1492 33.2547 21.2838 32.9094C21.4228 32.5596 21.4923 32.1718 21.4923 31.7458ZM27.4518 27.6831V28.6382H23.5169V27.6831H27.4518ZM24.8487 25.914H26.0931V33.1583C26.0931 33.4049 26.1312 33.591 26.2074 33.7166C26.2837 33.8421 26.3823 33.9251 26.5034 33.9654C26.6245 34.0058 26.7545 34.026 26.8935 34.026C26.9966 34.026 27.1043 34.017 27.2164 33.9991C27.333 33.9767 27.4204 33.9587 27.4787 33.9453L27.4854 34.9609C27.3868 34.9923 27.2567 35.0215 27.0953 35.0484C26.9384 35.0798 26.7478 35.0955 26.5236 35.0955C26.2186 35.0955 25.9384 35.0349 25.6828 34.9139C25.4272 34.7928 25.2231 34.591 25.0707 34.3085C24.9227 34.0215 24.8487 33.6359 24.8487 33.1516V25.914ZM31.9988 31.4027V31.248C31.9988 30.7234 32.075 30.2368 32.2275 29.7884C32.3799 29.3355 32.5997 28.9431 32.8867 28.6113C33.1737 28.275 33.5212 28.0149 33.9292 27.831C34.3373 27.6427 34.7947 27.5485 35.3014 27.5485C35.8126 27.5485 36.2722 27.6427 36.6803 27.831C37.0929 28.0149 37.4426 28.275 37.7296 28.6113C38.0211 28.9431 38.2431 29.3355 38.3955 29.7884C38.548 30.2368 38.6242 30.7234 38.6242 31.248V31.4027C38.6242 31.9274 38.548 32.4139 38.3955 32.8623C38.2431 33.3107 38.0211 33.7031 37.7296 34.0394C37.4426 34.3713 37.0951 34.6313 36.687 34.8197C36.2835 35.0035 35.8261 35.0955 35.3149 35.0955C34.8037 35.0955 34.344 35.0035 33.936 34.8197C33.5279 34.6313 33.1781 34.3713 32.8867 34.0394C32.5997 33.7031 32.3799 33.3107 32.2275 32.8623C32.075 32.4139 31.9988 31.9274 31.9988 31.4027ZM33.2432 31.248V31.4027C33.2432 31.7659 33.2858 32.109 33.371 32.4318C33.4562 32.7502 33.584 33.0327 33.7544 33.2794C33.9292 33.526 34.1467 33.7211 34.4068 33.8645C34.6669 34.0036 34.9696 34.0731 35.3149 34.0731C35.6557 34.0731 35.9539 34.0036 36.2095 33.8645C36.4696 33.7211 36.6848 33.526 36.8552 33.2794C37.0256 33.0327 37.1534 32.7502 37.2386 32.4318C37.3283 32.109 37.3731 31.7659 37.3731 31.4027V31.248C37.3731 30.8893 37.3283 30.5507 37.2386 30.2323C37.1534 29.9095 37.0234 29.6247 36.8485 29.3781C36.6781 29.127 36.4628 28.9297 36.2027 28.7862C35.9471 28.6427 35.6467 28.5709 35.3014 28.5709C34.9606 28.5709 34.6602 28.6427 34.4001 28.7862C34.1445 28.9297 33.9292 29.127 33.7544 29.3781C33.584 29.6247 33.4562 29.9095 33.371 30.2323C33.2858 30.5507 33.2432 30.8893 33.2432 31.248ZM42.0412 34.9609H40.7968V26.9163C40.7968 26.3916 40.891 25.9499 41.0793 25.5912C41.2721 25.2279 41.5479 24.9544 41.9067 24.7706C42.2654 24.5822 42.6914 24.4881 43.1847 24.4881C43.3282 24.4881 43.4717 24.497 43.6151 24.515C43.7631 24.5329 43.9066 24.5598 44.0456 24.5957L43.9784 25.6113C43.8842 25.5889 43.7766 25.5732 43.6555 25.5643C43.5389 25.5553 43.4223 25.5508 43.3057 25.5508C43.0412 25.5508 42.8125 25.6046 42.6197 25.7122C42.4313 25.8154 42.2878 25.9678 42.1892 26.1696C42.0905 26.3714 42.0412 26.6203 42.0412 26.9163V34.9609ZM43.5882 27.6831V28.6382H39.6466V27.6831H43.5882ZM50.0724 29.4521H50.9603C51.3953 29.4521 51.754 29.3803 52.0365 29.2368C52.3235 29.0889 52.5365 28.8893 52.6755 28.6382C52.819 28.3826 52.8908 28.0956 52.8908 27.7772C52.8908 27.4006 52.828 27.0844 52.7024 26.8288C52.5769 26.5732 52.3885 26.3804 52.1374 26.2503C51.8863 26.1203 51.5679 26.0553 51.1823 26.0553C50.8325 26.0553 50.5231 26.1248 50.254 26.2638C49.9895 26.3983 49.7809 26.5911 49.6285 26.8423C49.4805 27.0934 49.4065 27.3893 49.4065 27.7301H48.1621C48.1621 27.2324 48.2877 26.7795 48.5388 26.3714C48.7899 25.9634 49.1419 25.6383 49.5949 25.3961C50.0522 25.154 50.5814 25.0329 51.1823 25.0329C51.7742 25.0329 52.2921 25.1383 52.736 25.349C53.18 25.5553 53.5253 25.8647 53.7719 26.2773C54.0185 26.6853 54.1418 27.1943 54.1418 27.8041C54.1418 28.0508 54.0836 28.3153 53.967 28.5978C53.8549 28.8759 53.6777 29.1359 53.4356 29.3781C53.1979 29.6202 52.8885 29.8198 52.5073 29.9767C52.1262 30.1292 51.6688 30.2054 51.1352 30.2054H50.0724V29.4521ZM50.0724 30.4745V29.7279H51.1352C51.7585 29.7279 52.2742 29.8018 52.6822 29.9498C53.0903 30.0978 53.4109 30.2951 53.6441 30.5417C53.8818 30.7884 54.0477 31.0597 54.1418 31.3556C54.2405 31.6471 54.2898 31.9386 54.2898 32.2301C54.2898 32.6874 54.2114 33.0933 54.0544 33.4475C53.9019 33.8018 53.6845 34.1022 53.402 34.3488C53.1239 34.5955 52.7966 34.7816 52.4199 34.9071C52.0432 35.0327 51.6329 35.0955 51.189 35.0955C50.763 35.0955 50.3617 35.0349 49.985 34.9139C49.6128 34.7928 49.2832 34.6179 48.9962 34.3892C48.7092 34.156 48.485 33.8713 48.3236 33.535C48.1621 33.1942 48.0814 32.8063 48.0814 32.3713H49.3258C49.3258 32.7121 49.3998 33.0103 49.5478 33.2659C49.7002 33.5215 49.9155 33.7211 50.1935 33.8645C50.476 34.0036 50.8078 34.0731 51.189 34.0731C51.5701 34.0731 51.8975 34.008 52.171 33.878C52.4491 33.7435 52.6621 33.5417 52.81 33.2726C52.9625 33.0036 53.0387 32.665 53.0387 32.257C53.0387 31.8489 52.9535 31.5148 52.7831 31.2547C52.6127 30.9902 52.3706 30.7951 52.0567 30.6695C51.7473 30.5395 51.3818 30.4745 50.9603 30.4745H50.0724ZM60.7807 25.154H60.8883V26.21H60.7807C60.1215 26.21 59.57 26.3176 59.126 26.5329C58.6821 26.7436 58.3301 27.0284 58.07 27.3871C57.8099 27.7414 57.6216 28.1404 57.505 28.5844C57.3929 29.0283 57.3368 29.479 57.3368 29.9364V31.3758C57.3368 31.8108 57.3884 32.1964 57.4916 32.5327C57.5947 32.8646 57.7359 33.1448 57.9153 33.3735C58.0947 33.6022 58.2965 33.7749 58.5207 33.8915C58.7494 34.008 58.987 34.0663 59.2337 34.0663C59.5207 34.0663 59.7763 34.0125 60.0005 33.9049C60.2247 33.7928 60.413 33.6381 60.5655 33.4408C60.7224 33.239 60.8413 33.0013 60.922 32.7278C61.0027 32.4543 61.0431 32.1538 61.0431 31.8265C61.0431 31.535 61.0072 31.2547 60.9354 30.9857C60.8637 30.7121 60.7538 30.47 60.6058 30.2592C60.4579 30.044 60.2718 29.8758 60.0476 29.7548C59.8278 29.6292 59.5655 29.5664 59.2606 29.5664C58.9153 29.5664 58.5924 29.6516 58.292 29.822C57.996 29.9879 57.7516 30.2077 57.5588 30.4812C57.3705 30.7503 57.2629 31.044 57.236 31.3624L56.5768 31.3556C56.6396 30.8534 56.7561 30.4252 56.9265 30.0709C57.1014 29.7122 57.3167 29.4207 57.5723 29.1965C57.8324 28.9678 58.1216 28.8019 58.44 28.6987C58.7628 28.5911 59.1036 28.5373 59.4624 28.5373C59.9511 28.5373 60.3727 28.6292 60.7269 28.8131C61.0812 28.9969 61.3726 29.2436 61.6013 29.553C61.83 29.8579 61.9982 30.2032 62.1058 30.5888C62.2179 30.97 62.274 31.3624 62.274 31.7659C62.274 32.2278 62.2089 32.6605 62.0789 33.0641C61.9489 33.4677 61.7538 33.8219 61.4937 34.1269C61.2381 34.4318 60.922 34.6695 60.5453 34.8399C60.1686 35.0103 59.7314 35.0955 59.2337 35.0955C58.7045 35.0955 58.2427 34.9878 57.848 34.7726C57.4534 34.5529 57.1261 34.2614 56.866 33.8982C56.6059 33.535 56.4109 33.1314 56.2808 32.6874C56.1508 32.2435 56.0858 31.7928 56.0858 31.3354V30.7503C56.0858 30.0597 56.1553 29.3826 56.2943 28.7189C56.4333 28.0552 56.6732 27.4544 57.014 26.9163C57.3593 26.3781 57.8368 25.9499 58.4467 25.6315C59.0565 25.3131 59.8346 25.154 60.7807 25.154ZM69.9285 32.3108C69.9285 32.9072 69.7895 33.4139 69.5115 33.8309C69.238 34.2435 68.8658 34.5574 68.3949 34.7726C67.9286 34.9878 67.4017 35.0955 66.8142 35.0955C66.2268 35.0955 65.6977 34.9878 65.2268 34.7726C64.756 34.5574 64.3838 34.2435 64.1103 33.8309C63.8367 33.4139 63.7 32.9072 63.7 32.3108C63.7 31.9206 63.7739 31.5641 63.9219 31.2413C64.0744 30.9139 64.2874 30.6292 64.5609 30.387C64.8389 30.1449 65.1663 29.9588 65.543 29.8288C65.9241 29.6942 66.3434 29.627 66.8008 29.627C67.4017 29.627 67.9375 29.7436 68.4084 29.9767C68.8792 30.2054 69.2492 30.5216 69.5182 30.9251C69.7918 31.3287 69.9285 31.7906 69.9285 32.3108ZM68.6774 32.2839C68.6774 31.9206 68.599 31.6 68.442 31.322C68.2851 31.0395 68.0653 30.8198 67.7828 30.6628C67.5003 30.5059 67.173 30.4274 66.8008 30.4274C66.4196 30.4274 66.09 30.5059 65.812 30.6628C65.5385 30.8198 65.3255 31.0395 65.173 31.322C65.0206 31.6 64.9443 31.9206 64.9443 32.2839C64.9443 32.6605 65.0183 32.9834 65.1663 33.2525C65.3188 33.517 65.534 33.7211 65.812 33.8645C66.0945 34.0036 66.4286 34.0731 66.8142 34.0731C67.1999 34.0731 67.5317 34.0036 67.8097 33.8645C68.0878 33.7211 68.3008 33.517 68.4487 33.2525C68.6012 32.9834 68.6774 32.6605 68.6774 32.2839ZM69.6998 27.7167C69.6998 28.192 69.5743 28.6203 69.3232 29.0014C69.072 29.3826 68.729 29.683 68.294 29.9027C67.8591 30.1225 67.3658 30.2323 66.8142 30.2323C66.2537 30.2323 65.7537 30.1225 65.3143 29.9027C64.8793 29.683 64.5385 29.3826 64.2919 29.0014C64.0452 28.6203 63.9219 28.192 63.9219 27.7167C63.9219 27.1472 64.0452 26.6629 64.2919 26.2638C64.543 25.8647 64.886 25.5598 65.321 25.349C65.756 25.1383 66.2515 25.0329 66.8075 25.0329C67.368 25.0329 67.8658 25.1383 68.3008 25.349C68.7357 25.5598 69.0765 25.8647 69.3232 26.2638C69.5743 26.6629 69.6998 27.1472 69.6998 27.7167ZM68.4555 27.7369C68.4555 27.4095 68.386 27.1203 68.2469 26.8692C68.1079 26.6181 67.9151 26.4207 67.6685 26.2773C67.4218 26.1293 67.1349 26.0553 66.8075 26.0553C66.4802 26.0553 66.1932 26.1248 65.9465 26.2638C65.7044 26.3983 65.5138 26.5911 65.3748 26.8423C65.2403 27.0934 65.173 27.3916 65.173 27.7369C65.173 28.0732 65.2403 28.3669 65.3748 28.618C65.5138 28.8691 65.7066 29.0642 65.9533 29.2032C66.1999 29.3422 66.4869 29.4117 66.8142 29.4117C67.1416 29.4117 67.4263 29.3422 67.6685 29.2032C67.9151 29.0642 68.1079 28.8691 68.2469 28.618C68.386 28.3669 68.4555 28.0732 68.4555 27.7369ZM77.9261 29.7077V30.8781H71.2133V29.7077H77.9261ZM75.1952 26.849V33.9789H73.9509V26.849H75.1952ZM84.1143 28.8265V34.9609H82.87V27.6831H84.0807L84.1143 28.8265ZM86.3878 27.6427L86.3811 28.7996C86.278 28.7772 86.1793 28.7638 86.0852 28.7593C85.9955 28.7503 85.8923 28.7458 85.7757 28.7458C85.4888 28.7458 85.2354 28.7907 85.0157 28.8803C84.7959 28.97 84.6098 29.0956 84.4574 29.257C84.3049 29.4184 84.1838 29.6113 84.0942 29.8355C84.009 30.0552 83.9529 30.2974 83.926 30.5619L83.5762 30.7637C83.5762 30.3243 83.6188 29.9117 83.704 29.5261C83.7937 29.1404 83.9305 28.7996 84.1143 28.5037C84.2982 28.2032 84.5314 27.97 84.8139 27.8041C85.1009 27.6337 85.4417 27.5485 85.8363 27.5485C85.926 27.5485 86.0291 27.5597 86.1457 27.5822C86.2623 27.6001 86.343 27.6203 86.3878 27.6427ZM90.4236 35.0955C89.9169 35.0955 89.4573 35.0103 89.0447 34.8399C88.6367 34.665 88.2847 34.4206 87.9887 34.1067C87.6972 33.7928 87.473 33.4206 87.3161 32.9901C87.1591 32.5596 87.0806 32.0888 87.0806 31.5776V31.2951C87.0806 30.7032 87.1681 30.1763 87.343 29.7144C87.5179 29.248 87.7555 28.8534 88.056 28.5306C88.3564 28.2077 88.6972 27.9633 89.0784 27.7974C89.4595 27.6315 89.8541 27.5485 90.2622 27.5485C90.7824 27.5485 91.2308 27.6382 91.6075 27.8176C91.9886 27.997 92.3003 28.2481 92.5424 28.5709C92.7846 28.8893 92.9639 29.266 93.0805 29.701C93.1971 30.1314 93.2554 30.6023 93.2554 31.1135V31.6718H87.8205V30.6561H92.011V30.5619C91.9931 30.2391 91.9258 29.9252 91.8093 29.6202C91.6971 29.3153 91.5178 29.0642 91.2711 28.8669C91.0245 28.6696 90.6882 28.5709 90.2622 28.5709C89.9797 28.5709 89.7196 28.6315 89.4819 28.7525C89.2443 28.8691 89.0403 29.044 88.8699 29.2772C88.6995 29.5104 88.5672 29.7951 88.473 30.1314C88.3788 30.4678 88.3317 30.8556 88.3317 31.2951V31.5776C88.3317 31.9229 88.3788 32.248 88.473 32.5529C88.5717 32.8534 88.7129 33.1179 88.8968 33.3466C89.0851 33.5753 89.3115 33.7547 89.5761 33.8847C89.8452 34.0148 90.1501 34.0798 90.4909 34.0798C90.9303 34.0798 91.3025 33.9901 91.6075 33.8107C91.9124 33.6314 92.1792 33.3915 92.4079 33.091L93.1612 33.6897C93.0043 33.9273 92.8048 34.1538 92.5626 34.369C92.3205 34.5843 92.0223 34.7591 91.668 34.8937C91.3182 35.0282 90.9034 35.0955 90.4236 35.0955ZM96.8271 33.8376L98.8181 27.6831H100.089L97.4728 34.9609H96.6388L96.8271 33.8376ZM95.1657 27.6831L97.2172 33.8713L97.3585 34.9609H96.5244L93.8877 27.6831H95.1657ZM102.639 27.6831V34.9609H101.388V27.6831H102.639ZM101.293 25.7526C101.293 25.5508 101.354 25.3804 101.475 25.2414C101.601 25.1024 101.784 25.0329 102.027 25.0329C102.264 25.0329 102.446 25.1024 102.571 25.2414C102.701 25.3804 102.766 25.5508 102.766 25.7526C102.766 25.9454 102.701 26.1113 102.571 26.2503C102.446 26.3849 102.264 26.4521 102.027 26.4521C101.784 26.4521 101.601 26.3849 101.475 26.2503C101.354 26.1113 101.293 25.9454 101.293 25.7526ZM107.656 35.0955C107.15 35.0955 106.69 35.0103 106.278 34.8399C105.87 34.665 105.518 34.4206 105.222 34.1067C104.93 33.7928 104.706 33.4206 104.549 32.9901C104.392 32.5596 104.313 32.0888 104.313 31.5776V31.2951C104.313 30.7032 104.401 30.1763 104.576 29.7144C104.751 29.248 104.988 28.8534 105.289 28.5306C105.589 28.2077 105.93 27.9633 106.311 27.7974C106.692 27.6315 107.087 27.5485 107.495 27.5485C108.015 27.5485 108.464 27.6382 108.84 27.8176C109.221 27.997 109.533 28.2481 109.775 28.5709C110.017 28.8893 110.197 29.266 110.313 29.701C110.43 30.1314 110.488 30.6023 110.488 31.1135V31.6718H105.053V30.6561H109.244V30.5619C109.226 30.2391 109.159 29.9252 109.042 29.6202C108.93 29.3153 108.751 29.0642 108.504 28.8669C108.257 28.6696 107.921 28.5709 107.495 28.5709C107.213 28.5709 106.952 28.6315 106.715 28.7525C106.477 28.8691 106.273 29.044 106.103 29.2772C105.932 29.5104 105.8 29.7951 105.706 30.1314C105.612 30.4678 105.565 30.8556 105.565 31.2951V31.5776C105.565 31.9229 105.612 32.248 105.706 32.5529C105.804 32.8534 105.946 33.1179 106.13 33.3466C106.318 33.5753 106.544 33.7547 106.809 33.8847C107.078 34.0148 107.383 34.0798 107.724 34.0798C108.163 34.0798 108.535 33.9901 108.84 33.8107C109.145 33.6314 109.412 33.3915 109.641 33.091L110.394 33.6897C110.237 33.9273 110.038 34.1538 109.795 34.369C109.553 34.5843 109.255 34.7591 108.901 34.8937C108.551 35.0282 108.136 35.0955 107.656 35.0955ZM113.784 33.6695L115.654 27.6831H116.475L116.313 28.8736L114.41 34.9609H113.609L113.784 33.6695ZM112.526 27.6831L114.12 33.7367L114.235 34.9609H113.394L111.282 27.6831H112.526ZM118.264 33.6897L119.784 27.6831H121.022L118.91 34.9609H118.076L118.264 33.6897ZM116.656 27.6831L118.486 33.5686L118.694 34.9609H117.901L115.943 28.8602L115.782 27.6831H116.656ZM126.537 33.0305C126.537 32.8511 126.497 32.6852 126.416 32.5327C126.34 32.3758 126.181 32.2345 125.939 32.109C125.701 31.9789 125.342 31.8668 124.862 31.7727C124.459 31.6875 124.093 31.5866 123.766 31.47C123.443 31.3534 123.167 31.2121 122.939 31.0462C122.714 30.8803 122.542 30.6852 122.421 30.461C122.3 30.2368 122.239 29.9745 122.239 29.674C122.239 29.3871 122.302 29.1158 122.427 28.8602C122.558 28.6046 122.739 28.3781 122.972 28.1808C123.21 27.9835 123.495 27.8288 123.827 27.7167C124.158 27.6046 124.528 27.5485 124.936 27.5485C125.519 27.5485 126.017 27.6517 126.43 27.8579C126.842 28.0642 127.158 28.34 127.378 28.6853C127.598 29.0261 127.708 29.405 127.708 29.822H126.463C126.463 29.6202 126.403 29.4252 126.282 29.2368C126.165 29.044 125.992 28.8848 125.764 28.7593C125.54 28.6337 125.264 28.5709 124.936 28.5709C124.591 28.5709 124.311 28.6247 124.096 28.7324C123.885 28.8355 123.73 28.9678 123.631 29.1292C123.537 29.2906 123.49 29.461 123.49 29.6404C123.49 29.7749 123.513 29.896 123.557 30.0036C123.607 30.1068 123.692 30.2032 123.813 30.2929C123.934 30.3781 124.105 30.4588 124.324 30.535C124.544 30.6112 124.824 30.6875 125.165 30.7637C125.761 30.8982 126.253 31.0597 126.638 31.248C127.024 31.4363 127.311 31.6673 127.499 31.9408C127.687 32.2144 127.782 32.5462 127.782 32.9363C127.782 33.2547 127.714 33.5462 127.58 33.8107C127.45 34.0753 127.259 34.304 127.008 34.4968C126.761 34.6852 126.466 34.8331 126.12 34.9408C125.779 35.0439 125.396 35.0955 124.97 35.0955C124.329 35.0955 123.786 34.9811 123.342 34.7524C122.898 34.5237 122.562 34.2278 122.333 33.8645C122.105 33.5013 121.99 33.1179 121.99 32.7143H123.241C123.259 33.0551 123.358 33.3264 123.537 33.5282C123.717 33.7255 123.936 33.8668 124.196 33.952C124.457 34.0327 124.714 34.0731 124.97 34.0731C125.311 34.0731 125.596 34.0282 125.824 33.9385C126.057 33.8489 126.235 33.7255 126.356 33.5686C126.477 33.4116 126.537 33.2323 126.537 33.0305Z" fill="#181C25"/>
<defs>
<clipPath id="clip0_325_4487">
<rect width="101.02" height="33.6735" fill="white" transform="translate(17.1829 41.3281)"/>
</clipPath>
</defs>
</svg>
