<svg width="168" height="73" viewBox="0 0 168 73" fill="none" xmlns="http://www.w3.org/2000/svg">
<path opacity="0.5" d="M166.419 65.5026C165.749 65.5026 165.205 66.0558 165.205 66.7369C165.205 67.4181 165.749 67.9713 166.419 67.9713C167.089 67.9713 167.633 67.4181 167.633 66.7369C167.633 66.0558 167.089 65.5026 166.419 65.5026ZM166.419 67.7755C165.854 67.7755 165.397 67.3083 165.397 66.7369C165.397 66.1628 165.857 65.6983 166.419 65.6983C166.983 65.6983 167.443 66.1654 167.443 66.7369C167.443 67.3084 166.983 67.7755 166.419 67.7755ZM166.814 66.5255C166.814 66.3011 166.657 66.168 166.426 66.168H166.039V67.2927H166.229V66.8857H166.437L166.637 67.2927H166.842L166.621 66.844C166.74 66.7891 166.814 66.6794 166.814 66.5255ZM166.419 66.7108H166.231V66.3377H166.419C166.547 66.3377 166.624 66.4029 166.624 66.523C166.624 66.6456 166.545 66.7108 166.419 66.7108ZM20.1594 53.0104V50.025H15.6582V67.7859H20.1594V57.1362C20.1594 55.2077 21.3758 54.2604 23.2723 54.2604H25.736V50.0251H23.6316C21.9841 50.025 20.5521 50.8992 20.1594 53.0104ZM29.9523 43C28.4126 43 27.2321 44.237 27.2321 45.8027C27.2321 47.3319 28.4126 48.5689 29.9523 48.5689C31.4921 48.5689 32.6726 47.3319 32.6726 45.8027C32.6725 44.2369 31.4921 43 29.9523 43ZM27.7068 67.786H32.1978V50.025H27.7068V67.786ZM53.5902 58.9055C53.5902 63.9759 49.5484 68.0861 44.562 68.0861C42.55 68.0861 40.7255 67.4154 39.2626 66.2828V73H34.7717V50.025H39.2626V51.5281C40.7255 50.3956 42.55 49.7249 44.562 49.7249C49.5484 49.7249 53.5902 53.835 53.5902 58.9055ZM49.071 58.9055C49.071 56.1524 46.8743 53.9185 44.1669 53.9185C41.4594 53.9185 39.2627 56.1524 39.2627 58.9055C39.2627 61.6586 41.4595 63.8924 44.1669 63.8924C46.8743 63.8924 49.071 61.6612 49.071 58.9055ZM131.646 57.3476L129.026 56.6169C127.301 56.1602 126.631 55.6226 126.631 54.6962C126.631 53.7933 127.576 53.1618 128.926 53.1618C130.211 53.1618 131.22 54.0177 131.22 55.1137V55.2154H135.359V55.1137C135.359 51.8908 132.775 49.7248 128.926 49.7248C125.115 49.7248 122.346 51.8882 122.346 54.8709C122.346 57.1909 123.857 58.9393 126.495 59.6648L129.005 60.3616C130.912 60.8991 131.62 61.4942 131.62 62.5615C131.62 63.6863 130.596 64.443 129.072 64.443C127.483 64.443 126.413 63.42 126.413 61.9013V61.7995H122.02V61.9013C122.02 65.5443 124.904 68.0912 129.036 68.0912C133.016 68.0912 135.906 65.6043 135.906 62.1805C135.906 60.4999 135.167 58.3027 131.646 57.3476ZM69.5217 50.025H74.0125V67.7859H69.5217V66.2828C68.0588 67.4154 66.2342 68.086 64.2223 68.086C59.2361 68.086 55.1942 63.9759 55.1942 58.9054C55.1942 53.8349 59.2361 49.7248 64.2223 49.7248C66.2342 49.7248 68.0589 50.3955 69.5217 51.528V50.025ZM69.5217 58.9055C69.5217 56.1498 67.3249 53.9185 64.6174 53.9185C61.91 53.9185 59.7133 56.1524 59.7133 58.9055C59.7133 61.6586 61.91 63.8924 64.6174 63.8924C67.3274 63.8924 69.5217 61.6612 69.5217 58.9055ZM90.2289 43.7046H94.7199V67.7885H90.2289V66.2854C88.766 67.418 86.9415 68.0887 84.9295 68.0887C79.9432 68.0887 75.9013 63.9785 75.9013 58.908C75.9013 53.8375 79.9431 49.7275 84.9295 49.7275C86.9415 49.7275 88.766 50.3981 90.2289 51.5307V43.7046ZM90.2289 58.9055C90.2289 56.1524 88.0321 53.9185 85.3246 53.9185C82.6173 53.9185 80.4205 56.1524 80.4205 58.9055C80.4205 61.6586 82.6147 63.8924 85.3246 63.8924C88.0321 63.8924 90.2289 61.6612 90.2289 58.9055ZM115.571 67.786H120.062V50.025H115.571V67.786ZM117.816 43C116.276 43 115.096 44.237 115.096 45.8027C115.096 47.3319 116.276 48.5689 117.816 48.5689C119.356 48.5689 120.536 47.3319 120.536 45.8027C120.536 44.2369 119.356 43 117.816 43ZM155.317 58.9055C155.317 63.9759 151.275 68.0861 146.289 68.0861C141.303 68.0861 137.261 63.976 137.261 58.9055C137.261 53.835 141.303 49.7249 146.289 49.7249C151.275 49.7249 155.317 53.835 155.317 58.9055ZM151.193 58.9055C151.193 56.1524 148.996 53.9185 146.289 53.9185C143.581 53.9185 141.385 56.1524 141.385 58.9055C141.385 61.6586 143.579 63.8924 146.289 63.8924C148.996 63.8924 151.193 61.6612 151.193 58.9055ZM17.86 43.7046H0.63266V47.7782H7.00987V67.7859H11.4854V47.7782H17.8626V43.7046H17.86ZM104.982 62.9217L100.987 50.0251H96.2698L102.262 67.786H107.667L113.695 50.0251H108.978L104.982 62.9217ZM161.897 53.0104V50.025H157.396V67.7859H161.897V57.1362C161.897 55.2077 163.113 54.2604 165.01 54.2604H167.473V50.0251H165.369C163.722 50.025 162.292 50.8992 161.897 53.0104Z" fill="#40615A"/>
<path d="M19.6498 10.7062L17.9151 10.287L18.5811 4.24449H25.1661V6.0449H20.3815L20.0691 8.84006C20.239 8.73593 20.4856 8.6318 20.809 8.52766C21.1378 8.41805 21.5077 8.36324 21.9188 8.36324C22.4888 8.36324 22.9985 8.45641 23.4479 8.64276C23.8973 8.82362 24.2782 9.08669 24.5906 9.43198C24.9085 9.77726 25.1469 10.1993 25.3059 10.698C25.4703 11.1913 25.5525 11.7503 25.5525 12.3751C25.5525 12.9232 25.4703 13.4384 25.3059 13.9207C25.1469 14.3975 24.903 14.8223 24.5742 15.1949C24.2454 15.5622 23.8316 15.8526 23.3328 16.0664C22.8341 16.2746 22.2476 16.3788 21.5735 16.3788C21.0638 16.3788 20.5733 16.3048 20.1019 16.1568C19.6361 16.0033 19.2168 15.7814 18.8441 15.4909C18.4714 15.1949 18.1727 14.8332 17.948 14.4057C17.7288 13.9782 17.6082 13.4877 17.5863 12.9342H19.732C19.7704 13.3014 19.869 13.6138 20.028 13.8714C20.1869 14.1289 20.3952 14.3263 20.6528 14.4633C20.9158 14.6003 21.22 14.6688 21.5653 14.6688C21.8777 14.6688 22.1463 14.6112 22.371 14.4962C22.6012 14.3756 22.7902 14.2084 22.9382 13.9947C23.0862 13.7809 23.1958 13.5288 23.2671 13.2383C23.3383 12.9479 23.3739 12.63 23.3739 12.2847C23.3739 11.9504 23.3328 11.6462 23.2506 11.3722C23.1684 11.0926 23.0423 10.8515 22.8724 10.6487C22.7025 10.4459 22.4888 10.2897 22.2312 10.1801C21.9791 10.0705 21.6831 10.0157 21.3433 10.0157C20.8884 10.0157 20.5377 10.0842 20.291 10.2212C20.0499 10.3582 19.8361 10.5199 19.6498 10.7062ZM27.32 15.1538C27.32 14.825 27.4324 14.5482 27.6571 14.3235C27.8818 14.0988 28.186 13.9864 28.5696 13.9864C28.9533 13.9864 29.2575 14.0988 29.4822 14.3235C29.7069 14.5482 29.8192 14.825 29.8192 15.1538C29.8192 15.4772 29.7069 15.7512 29.4822 15.9759C29.2575 16.1952 28.9533 16.3048 28.5696 16.3048C28.186 16.3048 27.8818 16.1952 27.6571 15.9759C27.4324 15.7512 27.32 15.4772 27.32 15.1538ZM39.8243 9.20179V11.2159C39.8243 12.1367 39.7311 12.9232 39.5448 13.5754C39.3584 14.2276 39.0899 14.762 38.7391 15.1785C38.3883 15.5896 37.9691 15.8937 37.4813 16.091C36.9935 16.2829 36.4509 16.3788 35.8535 16.3788C35.3767 16.3788 34.9327 16.3185 34.5217 16.1979C34.1106 16.0719 33.7407 15.88 33.4118 15.6224C33.0885 15.3594 32.809 15.025 32.5733 14.6195C32.3431 14.2139 32.165 13.7289 32.0389 13.1643C31.9184 12.5998 31.8581 11.9504 31.8581 11.2159V9.20179C31.8581 8.28103 31.9512 7.49729 32.1376 6.85057C32.3294 6.20384 32.6007 5.67495 32.9515 5.2639C33.3022 4.85285 33.7215 4.55415 34.2093 4.36781C34.6971 4.17598 35.2397 4.08007 35.8371 4.08007C36.3194 4.08007 36.7633 4.14036 37.1689 4.26093C37.5799 4.38151 37.9471 4.57059 38.2705 4.82818C38.5993 5.0803 38.8789 5.40914 39.109 5.81471C39.3392 6.2148 39.5146 6.69711 39.6352 7.26162C39.7612 7.82065 39.8243 8.46737 39.8243 9.20179ZM37.6539 11.5119V8.89761C37.6539 8.43723 37.6265 8.03714 37.5717 7.69734C37.5224 7.35205 37.4484 7.05883 37.3497 6.81768C37.2511 6.57653 37.1278 6.38197 36.9798 6.23399C36.8318 6.08053 36.6619 5.96817 36.4701 5.89692C36.2783 5.82567 36.0673 5.79005 35.8371 5.79005C35.5521 5.79005 35.2972 5.8476 35.0725 5.96269C34.8478 6.07231 34.6587 6.24769 34.5052 6.48884C34.3518 6.72999 34.234 7.05061 34.1517 7.4507C34.075 7.84531 34.0366 8.32762 34.0366 8.89761V11.5119C34.0366 11.9723 34.0613 12.3751 34.1106 12.7204C34.1654 13.0657 34.2422 13.3616 34.3408 13.6083C34.445 13.8549 34.5683 14.0577 34.7108 14.2166C34.8588 14.3701 35.0287 14.4852 35.2205 14.5619C35.4123 14.6332 35.6233 14.6688 35.8535 14.6688C36.144 14.6688 36.3988 14.6112 36.6181 14.4962C36.8428 14.3811 37.0319 14.2002 37.1853 13.9536C37.3388 13.7015 37.4539 13.3753 37.5306 12.9753C37.6128 12.5697 37.6539 12.0819 37.6539 11.5119Z" fill="#40615A"/>
<path fill-rule="evenodd" clip-rule="evenodd" d="M55.4077 16.5738L59.6434 19.1303C60.4162 19.5967 61.3695 18.9039 61.1645 18.0249L60.0404 13.2065L63.7839 9.9635C64.4661 9.37247 64.1014 8.2518 63.202 8.17549L58.2751 7.75749L56.3472 3.20889C55.9956 2.37927 54.8198 2.37927 54.4682 3.20889L52.5404 7.75749L47.6135 8.17549C46.7141 8.2518 46.3494 9.37247 47.0316 9.9635L50.7751 13.2065L49.651 18.0249C49.4459 18.9039 50.3992 19.5967 51.172 19.1303L55.4077 16.5738Z" fill="#F1845B"/>
<path fill-rule="evenodd" clip-rule="evenodd" d="M76.8363 16.5738L81.072 19.1303C81.8448 19.5967 82.7981 18.9039 82.593 18.0249L81.469 13.2065L85.2124 9.9635C85.8947 9.37247 85.53 8.2518 84.6306 8.17549L79.7037 7.75749L77.7758 3.20889C77.4242 2.37927 76.2484 2.37927 75.8968 3.20889L73.969 7.75749L69.042 8.17549C68.1426 8.2518 67.7779 9.37247 68.4602 9.9635L72.2037 13.2065L71.0796 18.0249C70.8745 18.9039 71.8278 19.5967 72.6006 19.1303L76.8363 16.5738Z" fill="#F1845B"/>
<path fill-rule="evenodd" clip-rule="evenodd" d="M98.2649 16.5738L102.501 19.1303C103.273 19.5967 104.227 18.9039 104.022 18.0249L102.898 13.2065L106.641 9.9635C107.323 9.37247 106.959 8.2518 106.059 8.17549L101.132 7.75749L99.2044 3.20889C98.8528 2.37927 97.677 2.37927 97.3254 3.20889L95.3975 7.75749L90.4706 8.17549C89.5712 8.2518 89.2065 9.37247 89.8887 9.9635L93.6322 13.2065L92.5082 18.0249C92.3031 18.9039 93.2564 19.5967 94.0292 19.1303L98.2649 16.5738Z" fill="#F1845B"/>
<path fill-rule="evenodd" clip-rule="evenodd" d="M119.693 16.5738L123.929 19.1303C124.702 19.5967 125.655 18.9039 125.45 18.0249L124.326 13.2065L128.07 9.9635C128.752 9.37247 128.387 8.2518 127.488 8.17549L122.561 7.75749L120.633 3.20889C120.281 2.37927 119.106 2.37927 118.754 3.20889L116.826 7.75749L111.899 8.17549C111 8.2518 110.635 9.37247 111.317 9.9635L115.061 13.2065L113.937 18.0249C113.732 18.9039 114.685 19.5967 115.458 19.1303L119.693 16.5738Z" fill="#F1845B"/>
<path fill-rule="evenodd" clip-rule="evenodd" d="M141.122 16.5738L145.358 19.1303C146.131 19.5967 147.084 18.9039 146.879 18.0249L145.755 13.2065L149.498 9.9635C150.18 9.37247 149.816 8.2518 148.916 8.17549L143.989 7.75749L142.062 3.20889C141.71 2.37927 140.534 2.37927 140.183 3.20889L138.255 7.75749L133.328 8.17549C132.428 8.2518 132.064 9.37247 132.746 9.9635L136.489 13.2065L135.365 18.0249C135.16 18.9039 136.114 19.5967 136.886 19.1303L141.122 16.5738Z" fill="#F1845B"/>
<path opacity="0.5" d="M24.2515 31.4027V31.248C24.2515 30.7234 24.3277 30.2368 24.4802 29.7884C24.6326 29.3355 24.8524 28.9431 25.1394 28.6113C25.4263 28.275 25.7739 28.0149 26.1819 27.831C26.59 27.6427 27.0474 27.5485 27.5541 27.5485C28.0653 27.5485 28.5249 27.6427 28.933 27.831C29.3456 28.0149 29.6953 28.275 29.9823 28.6113C30.2738 28.9431 30.4958 29.3355 30.6482 29.7884C30.8007 30.2368 30.8769 30.7234 30.8769 31.248V31.4027C30.8769 31.9274 30.8007 32.4139 30.6482 32.8623C30.4958 33.3107 30.2738 33.7031 29.9823 34.0394C29.6953 34.3713 29.3478 34.6313 28.9397 34.8197C28.5361 35.0035 28.0788 35.0955 27.5676 35.0955C27.0564 35.0955 26.5967 35.0035 26.1887 34.8197C25.7806 34.6313 25.4308 34.3713 25.1394 34.0394C24.8524 33.7031 24.6326 33.3107 24.4802 32.8623C24.3277 32.4139 24.2515 31.9274 24.2515 31.4027ZM25.4959 31.248V31.4027C25.4959 31.7659 25.5385 32.109 25.6237 32.4318C25.7089 32.7502 25.8367 33.0327 26.0071 33.2794C26.1819 33.526 26.3994 33.7211 26.6595 33.8645C26.9196 34.0036 27.2223 34.0731 27.5676 34.0731C27.9084 34.0731 28.2066 34.0036 28.4622 33.8645C28.7222 33.7211 28.9375 33.526 29.1079 33.2794C29.2783 33.0327 29.4061 32.7502 29.4913 32.4318C29.581 32.109 29.6258 31.7659 29.6258 31.4027V31.248C29.6258 30.8893 29.581 30.5507 29.4913 30.2323C29.4061 29.9095 29.276 29.6247 29.1012 29.3781C28.9308 29.127 28.7155 28.9297 28.4554 28.7862C28.1998 28.6427 27.8994 28.5709 27.5541 28.5709C27.2133 28.5709 26.9129 28.6427 26.6528 28.7862C26.3972 28.9297 26.1819 29.127 26.0071 29.3781C25.8367 29.6247 25.7089 29.9095 25.6237 30.2323C25.5385 30.5507 25.4959 30.8893 25.4959 31.248ZM36.8902 33.2794V27.6831H38.1413V34.9609H36.9508L36.8902 33.2794ZM37.1257 31.7458L37.6436 31.7323C37.6436 32.2166 37.592 32.665 37.4889 33.0776C37.3902 33.4856 37.2288 33.8399 37.0046 34.1403C36.7804 34.4408 36.4867 34.6762 36.1234 34.8466C35.7602 35.0125 35.3185 35.0955 34.7984 35.0955C34.4441 35.0955 34.119 35.0439 33.823 34.9408C33.5316 34.8376 33.2804 34.6784 33.0697 34.4632C32.8589 34.2479 32.6953 33.9677 32.5787 33.6224C32.4666 33.2771 32.4105 32.8623 32.4105 32.378V27.6831H33.6549V32.3915C33.6549 32.7188 33.6908 32.9901 33.7625 33.2054C33.8387 33.4161 33.9396 33.5843 34.0652 33.7098C34.1952 33.8309 34.3387 33.9161 34.4957 33.9654C34.6571 34.0148 34.823 34.0394 34.9934 34.0394C35.5226 34.0394 35.9418 33.9385 36.2512 33.7367C36.5607 33.5305 36.7826 33.2547 36.9171 32.9094C37.0562 32.5596 37.1257 32.1718 37.1257 31.7458ZM43.0852 27.6831V28.6382H39.1503V27.6831H43.0852ZM40.4821 25.914H41.7265V33.1583C41.7265 33.4049 41.7646 33.591 41.8408 33.7166C41.917 33.8421 42.0157 33.9251 42.1368 33.9654C42.2578 34.0058 42.3879 34.026 42.5269 34.026C42.63 34.026 42.7377 34.017 42.8498 33.9991C42.9664 33.9767 43.0538 33.9587 43.1121 33.9453L43.1188 34.9609C43.0202 34.9923 42.8901 35.0215 42.7287 35.0484C42.5717 35.0798 42.3812 35.0955 42.157 35.0955C41.852 35.0955 41.5718 35.0349 41.3162 34.9139C41.0606 34.7928 40.8565 34.591 40.7041 34.3085C40.5561 34.0215 40.4821 33.6359 40.4821 33.1516V25.914ZM47.6322 31.4027V31.248C47.6322 30.7234 47.7084 30.2368 47.8609 29.7884C48.0133 29.3355 48.2331 28.9431 48.5201 28.6113C48.807 28.275 49.1546 28.0149 49.5626 27.831C49.9707 27.6427 50.4281 27.5485 50.9348 27.5485C51.446 27.5485 51.9056 27.6427 52.3137 27.831C52.7262 28.0149 53.076 28.275 53.363 28.6113C53.6545 28.9431 53.8765 29.3355 54.0289 29.7884C54.1814 30.2368 54.2576 30.7234 54.2576 31.248V31.4027C54.2576 31.9274 54.1814 32.4139 54.0289 32.8623C53.8765 33.3107 53.6545 33.7031 53.363 34.0394C53.076 34.3713 52.7285 34.6313 52.3204 34.8197C51.9168 35.0035 51.4595 35.0955 50.9483 35.0955C50.4371 35.0955 49.9774 35.0035 49.5694 34.8197C49.1613 34.6313 48.8115 34.3713 48.5201 34.0394C48.2331 33.7031 48.0133 33.3107 47.8609 32.8623C47.7084 32.4139 47.6322 31.9274 47.6322 31.4027ZM48.8766 31.248V31.4027C48.8766 31.7659 48.9192 32.109 49.0044 32.4318C49.0896 32.7502 49.2174 33.0327 49.3878 33.2794C49.5626 33.526 49.7801 33.7211 50.0402 33.8645C50.3003 34.0036 50.603 34.0731 50.9483 34.0731C51.2891 34.0731 51.5873 34.0036 51.8429 33.8645C52.1029 33.7211 52.3182 33.526 52.4886 33.2794C52.659 33.0327 52.7868 32.7502 52.872 32.4318C52.9617 32.109 53.0065 31.7659 53.0065 31.4027V31.248C53.0065 30.8893 52.9617 30.5507 52.872 30.2323C52.7868 29.9095 52.6567 29.6247 52.4819 29.3781C52.3115 29.127 52.0962 28.9297 51.8361 28.7862C51.5805 28.6427 51.2801 28.5709 50.9348 28.5709C50.594 28.5709 50.2936 28.6427 50.0335 28.7862C49.7779 28.9297 49.5626 29.127 49.3878 29.3781C49.2174 29.6247 49.0896 29.9095 49.0044 30.2323C48.9192 30.5507 48.8766 30.8893 48.8766 31.248ZM57.6746 34.9609H56.4302V26.9163C56.4302 26.3916 56.5244 25.9499 56.7127 25.5912C56.9055 25.2279 57.1813 24.9544 57.5401 24.7706C57.8988 24.5822 58.3248 24.4881 58.8181 24.4881C58.9616 24.4881 59.105 24.497 59.2485 24.515C59.3965 24.5329 59.54 24.5598 59.679 24.5957L59.6118 25.6113C59.5176 25.5889 59.41 25.5732 59.2889 25.5643C59.1723 25.5553 59.0557 25.5508 58.9391 25.5508C58.6746 25.5508 58.4459 25.6046 58.253 25.7122C58.0647 25.8154 57.9212 25.9678 57.8226 26.1696C57.7239 26.3714 57.6746 26.6203 57.6746 26.9163V34.9609ZM59.2216 27.6831V28.6382H55.28V27.6831H59.2216ZM70.2192 25.1674V25.8669L66.1632 34.9609H64.8516L68.9008 26.1898H63.6005V25.1674H70.2192ZM77.7863 29.2839V30.7772C77.7863 31.5798 77.7145 32.257 77.571 32.8085C77.4276 33.3601 77.2213 33.804 76.9522 34.1403C76.6832 34.4766 76.3581 34.721 75.9769 34.8735C75.6002 35.0215 75.1742 35.0955 74.6989 35.0955C74.3222 35.0955 73.9747 35.0484 73.6563 34.9542C73.3379 34.86 73.051 34.7098 72.7954 34.5035C72.5442 34.2928 72.329 34.0193 72.1496 33.6829C71.9703 33.3466 71.8335 32.9386 71.7393 32.4587C71.6452 31.9789 71.5981 31.4184 71.5981 30.7772V29.2839C71.5981 28.4812 71.6698 27.8086 71.8133 27.266C71.9613 26.7234 72.1698 26.2885 72.4389 25.9611C72.7079 25.6293 73.0308 25.3916 73.4075 25.2481C73.7886 25.1046 74.2146 25.0329 74.6855 25.0329C75.0666 25.0329 75.4164 25.08 75.7348 25.1741C76.0576 25.2638 76.3446 25.4096 76.5957 25.6113C76.8468 25.8087 77.0598 26.0732 77.2347 26.4051C77.4141 26.7324 77.5509 27.1337 77.645 27.6091C77.7392 28.0844 77.7863 28.6427 77.7863 29.2839ZM76.5352 30.979V29.0754C76.5352 28.636 76.5083 28.2503 76.4545 27.9185C76.4051 27.5822 76.3312 27.2952 76.2325 27.0575C76.1339 26.8198 76.0083 26.627 75.8558 26.479C75.7079 26.3311 75.5352 26.2234 75.3379 26.1562C75.1451 26.0844 74.9276 26.0486 74.6855 26.0486C74.3895 26.0486 74.1272 26.1046 73.8985 26.2167C73.6698 26.3243 73.477 26.497 73.32 26.7346C73.1675 26.9723 73.051 27.284 72.9702 27.6696C72.8895 28.0552 72.8492 28.5238 72.8492 29.0754V30.979C72.8492 31.4184 72.8738 31.8063 72.9232 32.1426C72.977 32.4789 73.0554 32.7704 73.1586 33.017C73.2617 33.2592 73.3873 33.4587 73.5353 33.6157C73.6832 33.7726 73.8536 33.8892 74.0465 33.9654C74.2438 34.0372 74.4612 34.0731 74.6989 34.0731C75.0038 34.0731 75.2706 34.0148 75.4993 33.8982C75.728 33.7816 75.9186 33.6 76.0711 33.3533C76.228 33.1022 76.3446 32.7816 76.4208 32.3915C76.4971 31.9969 76.5352 31.526 76.5352 30.979ZM86.0059 31.665V32.6874H78.9298V31.9543L83.3153 25.1674H84.331L83.2413 27.1315L80.3423 31.665H86.0059ZM84.6404 25.1674V34.9609H83.396V25.1674H84.6404ZM93.5595 29.7077V30.8781H86.8466V29.7077H93.5595ZM90.8286 26.849V33.9789H89.5843V26.849H90.8286ZM99.7477 28.8265V34.9609H98.5034V27.6831H99.7141L99.7477 28.8265ZM102.021 27.6427L102.015 28.7996C101.911 28.7772 101.813 28.7638 101.719 28.7593C101.629 28.7503 101.526 28.7458 101.409 28.7458C101.122 28.7458 100.869 28.7907 100.649 28.8803C100.429 28.97 100.243 29.0956 100.091 29.257C99.9383 29.4184 99.8172 29.6113 99.7276 29.8355C99.6424 30.0552 99.5863 30.2974 99.5594 30.5619L99.2096 30.7637C99.2096 30.3243 99.2522 29.9117 99.3374 29.5261C99.4271 29.1404 99.5639 28.7996 99.7477 28.5037C99.9316 28.2032 100.165 27.97 100.447 27.8041C100.734 27.6337 101.075 27.5485 101.47 27.5485C101.559 27.5485 101.662 27.5597 101.779 27.5822C101.896 27.6001 101.976 27.6203 102.021 27.6427ZM106.057 35.0955C105.55 35.0955 105.091 35.0103 104.678 34.8399C104.27 34.665 103.918 34.4206 103.622 34.1067C103.331 33.7928 103.106 33.4206 102.949 32.9901C102.793 32.5596 102.714 32.0888 102.714 31.5776V31.2951C102.714 30.7032 102.801 30.1763 102.976 29.7144C103.151 29.248 103.389 28.8534 103.689 28.5306C103.99 28.2077 104.331 27.9633 104.712 27.7974C105.093 27.6315 105.488 27.5485 105.896 27.5485C106.416 27.5485 106.864 27.6382 107.241 27.8176C107.622 27.997 107.934 28.2481 108.176 28.5709C108.418 28.8893 108.597 29.266 108.714 29.701C108.831 30.1314 108.889 30.6023 108.889 31.1135V31.6718H103.454V30.6561H107.644V30.5619C107.626 30.2391 107.559 29.9252 107.443 29.6202C107.331 29.3153 107.151 29.0642 106.905 28.8669C106.658 28.6696 106.322 28.5709 105.896 28.5709C105.613 28.5709 105.353 28.6315 105.115 28.7525C104.878 28.8691 104.674 29.044 104.503 29.2772C104.333 29.5104 104.201 29.7951 104.106 30.1314C104.012 30.4678 103.965 30.8556 103.965 31.2951V31.5776C103.965 31.9229 104.012 32.248 104.106 32.5529C104.205 32.8534 104.346 33.1179 104.53 33.3466C104.718 33.5753 104.945 33.7547 105.21 33.8847C105.479 34.0148 105.783 34.0798 106.124 34.0798C106.564 34.0798 106.936 33.9901 107.241 33.8107C107.546 33.6314 107.813 33.3915 108.041 33.091L108.795 33.6897C108.638 33.9273 108.438 34.1538 108.196 34.369C107.954 34.5843 107.656 34.7591 107.301 34.8937C106.952 35.0282 106.537 35.0955 106.057 35.0955ZM112.46 33.8376L114.451 27.6831H115.723L113.106 34.9609H112.272L112.46 33.8376ZM110.799 27.6831L112.851 33.8713L112.992 34.9609H112.158L109.521 27.6831H110.799ZM118.272 27.6831V34.9609H117.021V27.6831H118.272ZM116.927 25.7526C116.927 25.5508 116.987 25.3804 117.108 25.2414C117.234 25.1024 117.418 25.0329 117.66 25.0329C117.898 25.0329 118.079 25.1024 118.205 25.2414C118.335 25.3804 118.4 25.5508 118.4 25.7526C118.4 25.9454 118.335 26.1113 118.205 26.2503C118.079 26.3849 117.898 26.4521 117.66 26.4521C117.418 26.4521 117.234 26.3849 117.108 26.2503C116.987 26.1113 116.927 25.9454 116.927 25.7526ZM123.29 35.0955C122.783 35.0955 122.324 35.0103 121.911 34.8399C121.503 34.665 121.151 34.4206 120.855 34.1067C120.563 33.7928 120.339 33.4206 120.182 32.9901C120.025 32.5596 119.947 32.0888 119.947 31.5776V31.2951C119.947 30.7032 120.034 30.1763 120.209 29.7144C120.384 29.248 120.622 28.8534 120.922 28.5306C121.223 28.2077 121.563 27.9633 121.945 27.7974C122.326 27.6315 122.72 27.5485 123.128 27.5485C123.649 27.5485 124.097 27.6382 124.474 27.8176C124.855 27.997 125.167 28.2481 125.409 28.5709C125.651 28.8893 125.83 29.266 125.947 29.701C126.063 30.1314 126.122 30.6023 126.122 31.1135V31.6718H120.687V30.6561H124.877V30.5619C124.859 30.2391 124.792 29.9252 124.675 29.6202C124.563 29.3153 124.384 29.0642 124.137 28.8669C123.891 28.6696 123.554 28.5709 123.128 28.5709C122.846 28.5709 122.586 28.6315 122.348 28.7525C122.111 28.8691 121.906 29.044 121.736 29.2772C121.566 29.5104 121.433 29.7951 121.339 30.1314C121.245 30.4678 121.198 30.8556 121.198 31.2951V31.5776C121.198 31.9229 121.245 32.248 121.339 32.5529C121.438 32.8534 121.579 33.1179 121.763 33.3466C121.951 33.5753 122.178 33.7547 122.442 33.8847C122.711 34.0148 123.016 34.0798 123.357 34.0798C123.797 34.0798 124.169 33.9901 124.474 33.8107C124.779 33.6314 125.045 33.3915 125.274 33.091L126.027 33.6897C125.871 33.9273 125.671 34.1538 125.429 34.369C125.187 34.5843 124.888 34.7591 124.534 34.8937C124.184 35.0282 123.77 35.0955 123.29 35.0955ZM129.418 33.6695L131.287 27.6831H132.108L131.947 28.8736L130.043 34.9609H129.243L129.418 33.6695ZM128.16 27.6831L129.754 33.7367L129.868 34.9609H129.027L126.915 27.6831H128.16ZM133.897 33.6897L135.417 27.6831H136.655L134.543 34.9609H133.709L133.897 33.6897ZM132.29 27.6831L134.119 33.5686L134.328 34.9609H133.534L131.577 28.8602L131.415 27.6831H132.29ZM142.171 33.0305C142.171 32.8511 142.13 32.6852 142.05 32.5327C141.973 32.3758 141.814 32.2345 141.572 32.109C141.334 31.9789 140.976 31.8668 140.496 31.7727C140.092 31.6875 139.727 31.5866 139.399 31.47C139.077 31.3534 138.801 31.2121 138.572 31.0462C138.348 30.8803 138.175 30.6852 138.054 30.461C137.933 30.2368 137.873 29.9745 137.873 29.674C137.873 29.3871 137.935 29.1158 138.061 28.8602C138.191 28.6046 138.373 28.3781 138.606 28.1808C138.843 27.9835 139.128 27.8288 139.46 27.7167C139.792 27.6046 140.162 27.5485 140.57 27.5485C141.153 27.5485 141.65 27.6517 142.063 27.8579C142.476 28.0642 142.792 28.34 143.011 28.6853C143.231 29.0261 143.341 29.405 143.341 29.822H142.097C142.097 29.6202 142.036 29.4252 141.915 29.2368C141.798 29.044 141.626 28.8848 141.397 28.7593C141.173 28.6337 140.897 28.5709 140.57 28.5709C140.225 28.5709 139.944 28.6247 139.729 28.7324C139.518 28.8355 139.364 28.9678 139.265 29.1292C139.171 29.2906 139.124 29.461 139.124 29.6404C139.124 29.7749 139.146 29.896 139.191 30.0036C139.24 30.1068 139.325 30.2032 139.446 30.2929C139.568 30.3781 139.738 30.4588 139.958 30.535C140.177 30.6112 140.458 30.6875 140.798 30.7637C141.395 30.8982 141.886 31.0597 142.272 31.248C142.657 31.4363 142.944 31.6673 143.133 31.9408C143.321 32.2144 143.415 32.5462 143.415 32.9363C143.415 33.2547 143.348 33.5462 143.213 33.8107C143.083 34.0753 142.893 34.304 142.641 34.4968C142.395 34.6852 142.099 34.8331 141.754 34.9408C141.413 35.0439 141.029 35.0955 140.603 35.0955C139.962 35.0955 139.42 34.9811 138.976 34.7524C138.532 34.5237 138.195 34.2278 137.967 33.8645C137.738 33.5013 137.624 33.1179 137.624 32.7143H138.875C138.893 33.0551 138.991 33.3264 139.171 33.5282C139.35 33.7255 139.57 33.8668 139.83 33.952C140.09 34.0327 140.348 34.0731 140.603 34.0731C140.944 34.0731 141.229 34.0282 141.458 33.9385C141.691 33.8489 141.868 33.7255 141.989 33.5686C142.11 33.4116 142.171 33.2323 142.171 33.0305Z" fill="#181C25"/>
</svg>
