<svg width="66" height="66" viewBox="0 0 66 66" fill="none" xmlns="http://www.w3.org/2000/svg">
<g clip-path="url(#clip0_431_6140)">
<mask id="path-1-inside-1_431_6140" fill="white">
<path d="M61.111 1.17382C63.1607 1.17382 64.8279 2.84103 64.8279 4.89067V61.1103C64.8279 63.16 63.1607 64.8272 61.111 64.8272H4.89067C2.84103 64.8272 1.17382 63.16 1.17382 61.1103V4.88997C1.17382 2.84033 2.84103 1.17312 4.89067 1.17312H61.111M61.111 0H4.89067C2.18991 0 0 2.18922 0 4.89067V61.1103C0 63.8111 2.18922 66.001 4.89067 66.001H61.111C63.8118 66.001 66.0017 63.8118 66.0017 61.1103V4.88997C66.001 2.18922 63.8118 0 61.111 0Z"/>
</mask>
<path d="M61.111 1.17382C63.1607 1.17382 64.8279 2.84103 64.8279 4.89067V61.1103C64.8279 63.16 63.1607 64.8272 61.111 64.8272H4.89067C2.84103 64.8272 1.17382 63.16 1.17382 61.1103V4.88997C1.17382 2.84033 2.84103 1.17312 4.89067 1.17312H61.111M61.111 0H4.89067C2.18991 0 0 2.18922 0 4.89067V61.1103C0 63.8111 2.18922 66.001 4.89067 66.001H61.111C63.8118 66.001 66.0017 63.8118 66.0017 61.1103V4.88997C66.001 2.18922 63.8118 0 61.111 0Z" fill="white"/>
<path d="M66.0017 4.88997L67.0017 4.88997L67.0017 4.88971L66.0017 4.88997ZM61.111 2.17382C62.6084 2.17382 63.8279 3.39331 63.8279 4.89067H65.8279C65.8279 2.28874 63.713 0.173817 61.111 0.173817V2.17382ZM63.8279 4.89067V61.1103H65.8279V4.89067H63.8279ZM63.8279 61.1103C63.8279 62.6077 62.6084 63.8272 61.111 63.8272V65.8272C63.713 65.8272 65.8279 63.7123 65.8279 61.1103H63.8279ZM61.111 63.8272H4.89067V65.8272H61.111V63.8272ZM4.89067 63.8272C3.39331 63.8272 2.17382 62.6077 2.17382 61.1103H0.173816C0.173816 63.7123 2.28874 65.8272 4.89067 65.8272V63.8272ZM2.17382 61.1103V4.88997H0.173816V61.1103H2.17382ZM2.17382 4.88997C2.17382 3.39261 3.39331 2.17312 4.89067 2.17312V0.173119C2.28874 0.173119 0.173816 2.28804 0.173816 4.88997H2.17382ZM4.89067 2.17312H61.111V0.173119H4.89067V2.17312ZM61.111 -1H4.89067V1H61.111V-1ZM4.89067 -1C1.63772 -1 -1 1.63684 -1 4.89067H1C1 2.74159 2.74211 1 4.89067 1V-1ZM-1 4.89067V61.1103H1V4.89067H-1ZM-1 61.1103C-1 64.3633 1.63684 67.001 4.89067 67.001V65.001C2.74159 65.001 1 63.2589 1 61.1103H-1ZM4.89067 67.001H61.111V65.001H4.89067V67.001ZM61.111 67.001C64.364 67.001 67.0017 64.3642 67.0017 61.1103H65.0017C65.0017 63.2594 63.2596 65.001 61.111 65.001V67.001ZM67.0017 61.1103V4.88997H65.0017V61.1103H67.0017ZM67.0017 4.88971C67.0009 1.63693 64.3641 -1 61.111 -1V1C63.2595 1 65.0012 2.74151 65.0017 4.89023L67.0017 4.88971Z" fill="white" mask="url(#path-1-inside-1_431_6140)"/>
<path d="M11.7358 47.6904L8.21437 38.5273H6.84375L10.994 49.539V59.1333H12.5056V49.539L16.6286 38.5273H15.2573L11.7358 47.6904Z" fill="white"/>
<path d="M25.3227 38.5273H23.7294L19.0586 59.1333H20.6246L21.6414 54.7102L21.9708 53.1994L22.206 52.1156H26.8454L27.0806 53.1994L27.41 54.7102L28.4268 59.1333H29.9928L25.3227 38.5273ZM22.5347 50.604L24.5257 41.4403L26.5167 50.604H22.5347Z" fill="white"/>
<path d="M57.8313 39.9217C56.952 38.9921 55.7893 38.5273 54.342 38.5273H49.8086V59.1333H54.342C55.7886 59.1333 56.952 58.6665 57.8313 57.732C58.7106 56.7983 59.1503 55.5707 59.1503 54.0508V43.6106C59.1496 42.0809 58.7099 40.8512 57.8313 39.9217ZM57.6387 54.0508C57.6387 55.122 57.3365 55.9852 56.7322 56.6405C56.1278 57.2951 55.3308 57.6224 54.342 57.6224H51.3195V40.0382H54.342C55.3308 40.0382 56.1278 40.3655 56.7322 41.0201C57.3365 41.6747 57.6387 42.538 57.6387 43.6099V54.0508V54.0508Z" fill="white"/>
<path d="M42.6813 49.3583C43.3903 48.6032 43.7748 47.6262 43.8383 46.4272C43.839 46.4175 43.8397 46.4084 43.8397 46.3986C43.8453 46.2897 43.8488 46.1802 43.8488 46.0678V46.0636V43.9917V43.0607C43.8488 41.6964 43.4594 40.5993 42.6813 39.7702C41.9024 38.9412 40.8724 38.5273 39.5904 38.5273H34.5078V43.9917V50.6012V59.1333H36.0187V50.6012H38.628L43.093 59.1333H44.6039L40.125 50.5747C41.162 50.4728 42.0148 50.068 42.6813 49.3583ZM36.0187 43.9917V40.0389H39.5904C40.4146 40.0389 41.0783 40.316 41.5821 40.8701C42.086 41.4242 42.3379 42.1549 42.3379 43.0614V43.9924V46.0643C42.3379 46.9709 42.086 47.7015 41.5821 48.2556C41.0783 48.8098 40.4146 49.0868 39.5904 49.0868H36.0187V43.9917Z" fill="white"/>
<path d="M26.1086 34.3625V27.4752H24.8203V26.4766H28.3955V27.4752H27.1072V34.3625H26.1086Z" fill="white"/>
<path d="M31.0156 34.3625V26.4766H32.0143V30.4726H33.6445V26.4766H34.6432V34.3632H33.6445V31.4712H32.0143V34.3632H31.0156V34.3625Z" fill="white"/>
<path d="M41.1716 26.4766V27.4752H38.9635V29.841H40.8882V30.8396H38.9635V33.3631H41.1716V34.3618H37.9648V26.4766H41.1716Z" fill="white"/>
<path d="M36.2921 6.84961H29.7056C29.4174 6.84961 29.1836 7.0834 29.1836 7.37162V13.9581C29.1836 14.2463 29.4174 14.4801 29.7056 14.4801H33.3422L33.6374 13.6971H29.9666V7.63262H36.0311V13.6971H34.3995L34.1043 14.4801H36.2921C36.5803 14.4801 36.8141 14.2463 36.8141 13.9581V7.37162C36.8141 7.0827 36.5803 6.84961 36.2921 6.84961Z" fill="white"/>
<path d="M32.5793 17.5115V14.4235L31.3008 11.0332H32.037L32.9666 13.4108L33.8955 11.0332H34.631L33.3616 14.4235V17.5115H32.5793Z" fill="white"/>
</g>
<defs>
<clipPath id="clip0_431_6140">
<rect width="66" height="66" fill="white"/>
</clipPath>
</defs>
</svg>
