<svg width="220" height="193" viewBox="0 0 220 193" fill="none" xmlns="http://www.w3.org/2000/svg">
<g opacity="0.06">
<path d="M105.364 8H-7.08896C-12.011 8 -16 11.989 -16 16.911V129.362C-16 134.284 -12.011 138.273 -7.08896 138.273H54.9947L60.0328 124.906H-2.63345V21.3666H100.906V124.906H73.0489L68.0132 138.273H105.364C110.286 138.273 114.275 134.284 114.275 129.362V16.911C114.275 11.989 110.284 8 105.364 8Z" fill="#40615A"/>
<path d="M42.035 190.044V137.326L20.2148 79.4434H32.7827L48.6478 120.041L64.5152 79.4434H77.0716L55.3971 137.324V190.044H42.035Z" fill="#40615A"/>
</g>
<g opacity="0.06">
<path d="M212.826 58H131.449C127.887 58 125 60.8867 125 64.4486V145.825C125 149.387 127.887 152.273 131.449 152.273H176.376L180.022 142.6H134.673V67.6729H209.6V142.6H189.441L185.797 152.273H212.826C216.388 152.273 219.275 149.387 219.275 145.825V64.4486C219.275 60.8867 216.387 58 212.826 58Z" fill="#40615A"/>
<path d="M166.997 189.739V151.589L151.207 109.701H160.302L171.783 139.08L183.265 109.701H192.352L176.667 151.587V189.739H166.997Z" fill="#40615A"/>
</g>
<g clip-path="url(#clip0_431_6191)">
<mask id="path-5-inside-1_431_6191" fill="white">
<path d="M132.148 62.8852C135.44 62.8852 138.118 65.5629 138.118 68.8547V159.147C138.118 162.439 135.44 165.116 132.148 165.116H41.8547C38.5629 165.116 35.8852 162.439 35.8852 159.147V68.8536C35.8852 65.5617 38.5629 62.8841 41.8547 62.8841H132.148M132.148 61H41.8547C37.5171 61 34 64.516 34 68.8547V159.147C34 163.484 37.516 167.002 41.8547 167.002H132.148C136.486 167.002 140.003 163.486 140.003 159.147V68.8536C140.002 64.516 136.486 61 132.148 61Z"/>
</mask>
<path d="M132.148 62.8852C135.44 62.8852 138.118 65.5629 138.118 68.8547V159.147C138.118 162.439 135.44 165.116 132.148 165.116H41.8547C38.5629 165.116 35.8852 162.439 35.8852 159.147V68.8536C35.8852 65.5617 38.5629 62.8841 41.8547 62.8841H132.148M132.148 61H41.8547C37.5171 61 34 64.516 34 68.8547V159.147C34 163.484 37.516 167.002 41.8547 167.002H132.148C136.486 167.002 140.003 163.486 140.003 159.147V68.8536C140.002 64.516 136.486 61 132.148 61Z" fill="#40615A"/>
<path d="M140.003 68.8536L141.609 68.8536L141.609 68.8532L140.003 68.8536ZM132.148 64.4913C134.553 64.4913 136.511 66.4499 136.511 68.8547H139.724C139.724 64.6759 136.327 61.2792 132.148 61.2792V64.4913ZM136.511 68.8547V159.147H139.724V68.8547H136.511ZM136.511 159.147C136.511 161.552 134.553 163.51 132.148 163.51V166.722C136.327 166.722 139.724 163.326 139.724 159.147H136.511ZM132.148 163.51H41.8547V166.722H132.148V163.51ZM41.8547 163.51C39.4499 163.51 37.4913 161.552 37.4913 159.147H34.2792C34.2792 163.326 37.6759 166.722 41.8547 166.722V163.51ZM37.4913 159.147V68.8536H34.2792V159.147H37.4913ZM37.4913 68.8536C37.4913 66.4487 39.4499 64.4902 41.8547 64.4902V61.278C37.6759 61.278 34.2792 64.6747 34.2792 68.8536H37.4913ZM41.8547 64.4902H132.148V61.278H41.8547V64.4902ZM132.148 59.3939H41.8547V62.6061H132.148V59.3939ZM41.8547 59.3939C36.6303 59.3939 32.3939 63.6289 32.3939 68.8547H35.6061C35.6061 65.4032 38.404 62.6061 41.8547 62.6061V59.3939ZM32.3939 68.8547V159.147H35.6061V68.8547H32.3939ZM32.3939 159.147C32.3939 164.371 36.6289 168.608 41.8547 168.608V165.396C38.4032 165.396 35.6061 162.598 35.6061 159.147H32.3939ZM41.8547 168.608H132.148V165.396H41.8547V168.608ZM132.148 168.608C137.372 168.608 141.609 164.373 141.609 159.147H138.397C138.397 162.598 135.599 165.396 132.148 165.396V168.608ZM141.609 159.147V68.8536H138.397V159.147H141.609ZM141.609 68.8532C141.607 63.629 137.373 59.3939 132.148 59.3939V62.6061C135.599 62.6061 138.396 65.403 138.397 68.854L141.609 68.8532Z" fill="#40615A" mask="url(#path-5-inside-1_431_6191)"/>
<path d="M52.8452 137.595L47.1896 122.879H44.9883L51.6538 140.564V155.973H54.0815V140.564L60.7033 122.879H58.5009L52.8452 137.595Z" fill="#40615A"/>
<path d="M74.666 122.879H72.1071L64.6055 155.973H67.1206L68.7536 148.87L69.2827 146.443L69.6604 144.702H77.1116L77.4893 146.443L78.0183 148.87L79.6514 155.973H82.1665L74.666 122.879ZM70.1883 142.275L73.386 127.557L76.5837 142.275H70.1883Z" fill="#40615A"/>
<path d="M126.877 125.118C125.465 123.625 123.598 122.879 121.273 122.879H113.992V155.973H121.273C123.597 155.973 125.465 155.224 126.877 153.723C128.289 152.223 128.995 150.252 128.995 147.81V131.043C128.994 128.586 128.288 126.611 126.877 125.118ZM126.568 147.81C126.568 149.531 126.082 150.917 125.112 151.97C124.141 153.021 122.861 153.547 121.273 153.547H116.419V125.305H121.273C122.861 125.305 124.141 125.831 125.112 126.882C126.082 127.934 126.568 129.32 126.568 131.042V147.81V147.81Z" fill="#40615A"/>
<path d="M102.549 140.274C103.688 139.061 104.305 137.492 104.407 135.567C104.408 135.551 104.409 135.536 104.409 135.521C104.418 135.346 104.424 135.17 104.424 134.989V134.983V131.655V130.16C104.424 127.969 103.799 126.207 102.549 124.875C101.298 123.544 99.6438 122.879 97.5848 122.879H89.4219V131.655V142.27V155.973H91.8485V142.27H96.0392L103.21 155.973H105.637L98.4434 142.228C100.109 142.064 101.479 141.414 102.549 140.274ZM91.8485 131.655V125.307H97.5848C98.9085 125.307 99.9744 125.752 100.784 126.642C101.593 127.531 101.997 128.705 101.997 130.161V131.656V134.984C101.997 136.44 101.593 137.613 100.784 138.503C99.9744 139.393 98.9085 139.838 97.5848 139.838H91.8485V131.655Z" fill="#40615A"/>
<path d="M75.9284 116.191V105.129H73.8594V103.525H79.6013V105.129H77.5323V116.191H75.9284Z" fill="#40615A"/>
<path d="M83.8086 116.191V103.525H85.4125V109.943H88.0307V103.525H89.6346V116.192H88.0307V111.547H85.4125V116.192H83.8086V116.191Z" fill="#40615A"/>
<path d="M100.119 103.525V105.129H96.5726V108.929H99.6639V110.533H96.5726V114.586H100.119V116.19H94.9688V103.525H100.119Z" fill="#40615A"/>
<path d="M92.2917 72.0039H81.7134C81.2505 72.0039 80.875 72.3794 80.875 72.8423V83.4206C80.875 83.8835 81.2505 84.259 81.7134 84.259H87.554L88.0281 83.0014H82.1326V73.2615H91.8725V83.0014H89.252L88.7779 84.259H92.2917C92.7546 84.259 93.1301 83.8835 93.1301 83.4206V72.8423C93.1301 72.3783 92.7546 72.0039 92.2917 72.0039Z" fill="#40615A"/>
<path d="M86.3268 89.1272V84.1676L84.2734 78.7227H85.4559L86.9488 82.5413L88.4407 78.7227H89.622L87.5832 84.1676V89.1272H86.3268Z" fill="#40615A"/>
</g>
<defs>
<clipPath id="clip0_431_6191">
<rect width="106" height="106" fill="white" transform="translate(34 61)"/>
</clipPath>
</defs>
</svg>
