<svg width="136" height="76" viewBox="0 0 136 76" fill="none" xmlns="http://www.w3.org/2000/svg">
<path d="M9.889 11.849V13.559H1.26511L1.17467 12.2436L6.24707 4.24449H7.98171L6.10731 7.42604L3.38614 11.849H9.889ZM8.46676 4.24449V16.2144H6.28817V4.24449H8.46676ZM11.4017 15.1538C11.4017 14.825 11.514 14.5482 11.7387 14.3235C11.9634 14.0988 12.2676 13.9864 12.6513 13.9864C13.0349 13.9864 13.3391 14.0988 13.5638 14.3235C13.7885 14.5482 13.9009 14.825 13.9009 15.1538C13.9009 15.4772 13.7885 15.7512 13.5638 15.9759C13.3391 16.1952 13.0349 16.3048 12.6513 16.3048C12.2676 16.3048 11.9634 16.1952 11.7387 15.9759C11.514 15.7512 11.4017 15.4772 11.4017 15.1538ZM18.1347 10.7062L16.4001 10.287L17.066 4.24449H23.6511V6.0449H18.8664L18.554 8.84006C18.7239 8.73593 18.9705 8.6318 19.2939 8.52766C19.6227 8.41805 19.9927 8.36324 20.4037 8.36324C20.9737 8.36324 21.4834 8.45641 21.9329 8.64276C22.3823 8.82362 22.7632 9.08669 23.0756 9.43198C23.3935 9.77726 23.6319 10.1993 23.7908 10.698C23.9552 11.1913 24.0374 11.7503 24.0374 12.3751C24.0374 12.9232 23.9552 13.4384 23.7908 13.9207C23.6319 14.3975 23.388 14.8223 23.0591 15.1949C22.7303 15.5622 22.3165 15.8526 21.8178 16.0664C21.319 16.2746 20.7326 16.3788 20.0585 16.3788C19.5487 16.3788 19.0582 16.3048 18.5869 16.1568C18.121 16.0033 17.7017 15.7814 17.3291 15.4909C16.9564 15.1949 16.6577 14.8332 16.433 14.4057C16.2137 13.9782 16.0932 13.4877 16.0712 12.9342H18.2169C18.2553 13.3014 18.354 13.6138 18.5129 13.8714C18.6718 14.1289 18.8801 14.3263 19.1377 14.4633C19.4008 14.6003 19.7049 14.6688 20.0502 14.6688C20.3626 14.6688 20.6312 14.6112 20.8559 14.4962C21.0861 14.3756 21.2752 14.2084 21.4232 13.9947C21.5711 13.7809 21.6807 13.5288 21.752 13.2383C21.8232 12.9479 21.8589 12.63 21.8589 12.2847C21.8589 11.9504 21.8178 11.6462 21.7356 11.3722C21.6533 11.0926 21.5273 10.8515 21.3574 10.6487C21.1875 10.4459 20.9737 10.2897 20.7161 10.1801C20.464 10.0705 20.1681 10.0157 19.8283 10.0157C19.3734 10.0157 19.0226 10.0842 18.776 10.2212C18.5348 10.3582 18.3211 10.5199 18.1347 10.7062Z" fill="#40615A"/>
<path fill-rule="evenodd" clip-rule="evenodd" d="M39.4894 16.5738L43.7251 19.1303C44.4978 19.5967 45.4511 18.9039 45.2461 18.0249L44.122 13.2065L47.8655 9.9635C48.5477 9.37247 48.183 8.2518 47.2836 8.17549L42.3567 7.75749L40.4289 3.20889C40.0772 2.37927 38.9015 2.37927 38.5499 3.20889L36.622 7.75749L31.6951 8.17549C30.7957 8.2518 30.431 9.37247 31.1132 9.9635L34.8567 13.2065L33.7326 18.0249C33.5276 18.9039 34.4809 19.5967 35.2536 19.1303L39.4894 16.5738Z" fill="#F1845B"/>
<path fill-rule="evenodd" clip-rule="evenodd" d="M60.9179 16.5738L65.1536 19.1303C65.9264 19.5967 66.8797 18.9039 66.6746 18.0249L65.5506 13.2065L69.294 9.9635C69.9763 9.37247 69.6116 8.2518 68.7122 8.17549L63.7853 7.75749L61.8574 3.20889C61.5058 2.37927 60.33 2.37927 59.9784 3.20889L58.0506 7.75749L53.1237 8.17549C52.2242 8.2518 51.8595 9.37247 52.5418 9.9635L56.2853 13.2065L55.1612 18.0249C54.9561 18.9039 55.9094 19.5967 56.6822 19.1303L60.9179 16.5738Z" fill="#F1845B"/>
<path fill-rule="evenodd" clip-rule="evenodd" d="M82.3465 16.5738L86.5822 19.1303C87.355 19.5967 88.3083 18.9039 88.1033 18.0249L86.9792 13.2065L90.7227 9.9635C91.4049 9.37247 91.0402 8.2518 90.1408 8.17549L85.2139 7.75749L83.286 3.20889C82.9344 2.37927 81.7586 2.37927 81.407 3.20889L79.4792 7.75749L74.5523 8.17549C73.6529 8.2518 73.2882 9.37247 73.9704 9.9635L77.7139 13.2065L76.5898 18.0249C76.3848 18.9039 77.3381 19.5967 78.1108 19.1303L82.3465 16.5738Z" fill="#F1845B"/>
<path fill-rule="evenodd" clip-rule="evenodd" d="M103.775 16.5738L108.011 19.1303C108.784 19.5967 109.737 18.9039 109.532 18.0249L108.408 13.2065L112.151 9.9635C112.833 9.37247 112.469 8.2518 111.569 8.17549L106.642 7.75749L104.715 3.20889C104.363 2.37927 103.187 2.37927 102.836 3.20889L100.908 7.75749L95.9808 8.17549C95.0814 8.2518 94.7167 9.37247 95.3989 9.9635L99.1424 13.2065L98.0183 18.0249C97.8133 18.9039 98.7666 19.5967 99.5393 19.1303L103.775 16.5738Z" fill="#F1845B"/>
<path fill-rule="evenodd" clip-rule="evenodd" d="M125.204 16.5738L129.439 19.1303C130.212 19.5967 131.165 18.9039 130.96 18.0249L129.836 13.2065L133.58 9.9635C134.262 9.37247 133.897 8.2518 132.998 8.17549L128.071 7.75749L126.143 3.20889C125.792 2.37927 124.616 2.37927 124.264 3.20889L122.336 7.75749L117.409 8.17549C116.51 8.2518 116.145 9.37247 116.828 9.9635L120.571 13.2065L119.447 18.0249C119.242 18.9039 120.195 19.5967 120.968 19.1303L125.204 16.5738Z" fill="#EBEDE9"/>
<mask id="mask0_325_4453" style="mask-type:alpha" maskUnits="userSpaceOnUse" x="116" y="2" width="18" height="18">
<path fill-rule="evenodd" clip-rule="evenodd" d="M125.204 16.5738L129.439 19.1303C130.212 19.5967 131.165 18.9039 130.96 18.0249L129.836 13.2065L133.58 9.9635C134.262 9.37247 133.897 8.2518 132.998 8.17549L128.071 7.75749L126.143 3.20889C125.792 2.37927 124.616 2.37927 124.264 3.20889L122.336 7.75749L117.409 8.17549C116.51 8.2518 116.145 9.37247 116.828 9.9635L120.571 13.2065L119.447 18.0249C119.242 18.9039 120.195 19.5967 120.968 19.1303L125.204 16.5738Z" fill="#F1845B"/>
</mask>
<g mask="url(#mask0_325_4453)">
<rect x="114.49" width="10.7143" height="21.4286" fill="#F1845B"/>
</g>
<path opacity="0.5" d="M3.33312 31.4027V31.248C3.33312 30.7234 3.40935 30.2368 3.56181 29.7884C3.71427 29.3355 3.934 28.9431 4.22099 28.6113C4.50798 28.275 4.85551 28.0149 5.26357 27.831C5.67163 27.6427 6.12902 27.5485 6.63574 27.5485C7.14694 27.5485 7.60657 27.6427 8.01464 27.831C8.42718 28.0149 8.77695 28.275 9.06394 28.6113C9.35542 28.9431 9.57739 29.3355 9.72985 29.7884C9.88231 30.2368 9.95854 30.7234 9.95854 31.248V31.4027C9.95854 31.9274 9.88231 32.4139 9.72985 32.8623C9.57739 33.3107 9.35542 33.7031 9.06394 34.0394C8.77695 34.3713 8.42943 34.6313 8.02136 34.8197C7.61778 35.0035 7.16039 35.0955 6.64919 35.0955C6.13799 35.0955 5.67836 35.0035 5.2703 34.8197C4.86223 34.6313 4.51246 34.3713 4.22099 34.0394C3.934 33.7031 3.71427 33.3107 3.56181 32.8623C3.40935 32.4139 3.33312 31.9274 3.33312 31.4027ZM4.57749 31.248V31.4027C4.57749 31.7659 4.62009 32.109 4.70529 32.4318C4.79049 32.7502 4.91829 33.0327 5.08869 33.2794C5.26357 33.526 5.48106 33.7211 5.74114 33.8645C6.00122 34.0036 6.30391 34.0731 6.64919 34.0731C6.98999 34.0731 7.28819 34.0036 7.54379 33.8645C7.80388 33.7211 8.01912 33.526 8.18952 33.2794C8.35992 33.0327 8.48772 32.7502 8.57292 32.4318C8.66261 32.109 8.70745 31.7659 8.70745 31.4027V31.248C8.70745 30.8893 8.66261 30.5507 8.57292 30.2323C8.48772 29.9095 8.35768 29.6247 8.1828 29.3781C8.01239 29.127 7.79715 28.9297 7.53707 28.7862C7.28147 28.6427 6.98103 28.5709 6.63574 28.5709C6.29494 28.5709 5.9945 28.6427 5.73441 28.7862C5.47881 28.9297 5.26357 29.127 5.08869 29.3781C4.91829 29.6247 4.79049 29.9095 4.70529 30.2323C4.62009 30.5507 4.57749 30.8893 4.57749 31.248ZM15.9719 33.2794V27.6831H17.223V34.9609H16.0324L15.9719 33.2794ZM16.2073 31.7458L16.7252 31.7323C16.7252 32.2166 16.6737 32.665 16.5705 33.0776C16.4719 33.4856 16.3104 33.8399 16.0862 34.1403C15.862 34.4408 15.5683 34.6762 15.2051 34.8466C14.8419 35.0125 14.4002 35.0955 13.88 35.0955C13.5257 35.0955 13.2006 35.0439 12.9047 34.9408C12.6132 34.8376 12.3621 34.6784 12.1513 34.4632C11.9406 34.2479 11.7769 33.9677 11.6603 33.6224C11.5482 33.2771 11.4921 32.8623 11.4921 32.378V27.6831H12.7365V32.3915C12.7365 32.7188 12.7724 32.9901 12.8441 33.2054C12.9204 33.4161 13.0213 33.5843 13.1468 33.7098C13.2769 33.8309 13.4204 33.9161 13.5773 33.9654C13.7387 34.0148 13.9047 34.0394 14.0751 34.0394C14.6042 34.0394 15.0235 33.9385 15.3329 33.7367C15.6423 33.5305 15.8643 33.2547 15.9988 32.9094C16.1378 32.5596 16.2073 32.1718 16.2073 31.7458ZM22.1668 27.6831V28.6382H18.2319V27.6831H22.1668ZM19.5637 25.914H20.8081V33.1583C20.8081 33.4049 20.8462 33.591 20.9225 33.7166C20.9987 33.8421 21.0973 33.9251 21.2184 33.9654C21.3395 34.0058 21.4695 34.026 21.6085 34.026C21.7117 34.026 21.8193 34.017 21.9314 33.9991C22.048 33.9767 22.1354 33.9587 22.1937 33.9453L22.2005 34.9609C22.1018 34.9923 21.9718 35.0215 21.8103 35.0484C21.6534 35.0798 21.4628 35.0955 21.2386 35.0955C20.9337 35.0955 20.6534 35.0349 20.3978 34.9139C20.1422 34.7928 19.9382 34.591 19.7857 34.3085C19.6377 34.0215 19.5637 33.6359 19.5637 33.1516V25.914ZM26.7138 31.4027V31.248C26.7138 30.7234 26.79 30.2368 26.9425 29.7884C27.095 29.3355 27.3147 28.9431 27.6017 28.6113C27.8887 28.275 28.2362 28.0149 28.6443 27.831C29.0523 27.6427 29.5097 27.5485 30.0164 27.5485C30.5276 27.5485 30.9873 27.6427 31.3953 27.831C31.8079 28.0149 32.1577 28.275 32.4446 28.6113C32.7361 28.9431 32.9581 29.3355 33.1105 29.7884C33.263 30.2368 33.3392 30.7234 33.3392 31.248V31.4027C33.3392 31.9274 33.263 32.4139 33.1105 32.8623C32.9581 33.3107 32.7361 33.7031 32.4446 34.0394C32.1577 34.3713 31.8101 34.6313 31.4021 34.8197C30.9985 35.0035 30.5411 35.0955 30.0299 35.0955C29.5187 35.0955 29.0591 35.0035 28.651 34.8197C28.2429 34.6313 27.8932 34.3713 27.6017 34.0394C27.3147 33.7031 27.095 33.3107 26.9425 32.8623C26.79 32.4139 26.7138 31.9274 26.7138 31.4027ZM27.9582 31.248V31.4027C27.9582 31.7659 28.0008 32.109 28.086 32.4318C28.1712 32.7502 28.299 33.0327 28.4694 33.2794C28.6443 33.526 28.8618 33.7211 29.1218 33.8645C29.3819 34.0036 29.6846 34.0731 30.0299 34.0731C30.3707 34.0731 30.6689 34.0036 30.9245 33.8645C31.1846 33.7211 31.3998 33.526 31.5702 33.2794C31.7406 33.0327 31.8684 32.7502 31.9536 32.4318C32.0433 32.109 32.0881 31.7659 32.0881 31.4027V31.248C32.0881 30.8893 32.0433 30.5507 31.9536 30.2323C31.8684 29.9095 31.7384 29.6247 31.5635 29.3781C31.3931 29.127 31.1779 28.9297 30.9178 28.7862C30.6622 28.6427 30.3617 28.5709 30.0164 28.5709C29.6756 28.5709 29.3752 28.6427 29.1151 28.7862C28.8595 28.9297 28.6443 29.127 28.4694 29.3781C28.299 29.6247 28.1712 29.9095 28.086 30.2323C28.0008 30.5507 27.9582 30.8893 27.9582 31.248ZM36.7562 34.9609H35.5118V26.9163C35.5118 26.3916 35.606 25.9499 35.7944 25.5912C35.9872 25.2279 36.263 24.9544 36.6217 24.7706C36.9804 24.5822 37.4064 24.4881 37.8997 24.4881C38.0432 24.4881 38.1867 24.497 38.3302 24.515C38.4782 24.5329 38.6217 24.5598 38.7607 24.5957L38.6934 25.6113C38.5992 25.5889 38.4916 25.5732 38.3705 25.5643C38.2539 25.5553 38.1374 25.5508 38.0208 25.5508C37.7562 25.5508 37.5275 25.6046 37.3347 25.7122C37.1463 25.8154 37.0028 25.9678 36.9042 26.1696C36.8055 26.3714 36.7562 26.6203 36.7562 26.9163V34.9609ZM38.3033 27.6831V28.6382H34.3616V27.6831H38.3033ZM47.0609 25.1136V34.9609H45.8166V26.6674L43.3077 27.5822V26.4589L46.8659 25.1136H47.0609ZM51.9846 33.4811V34.4834C51.9846 34.8914 51.8815 35.3219 51.6752 35.7748C51.4689 36.2322 51.1797 36.6134 50.8075 36.9183L50.1012 36.4273C50.2447 36.23 50.3658 36.0282 50.4645 35.8219C50.5631 35.6201 50.6371 35.4094 50.6864 35.1896C50.7402 34.9744 50.7671 34.7457 50.7671 34.5035V33.4811H51.9846ZM59.5854 29.2839V30.7772C59.5854 31.5798 59.5136 32.257 59.3701 32.8085C59.2266 33.3601 59.0203 33.804 58.7513 34.1403C58.4822 34.4766 58.1571 34.721 57.776 34.8735C57.3993 35.0215 56.9733 35.0955 56.498 35.0955C56.1213 35.0955 55.7738 35.0484 55.4554 34.9542C55.137 34.86 54.85 34.7098 54.5944 34.5035C54.3433 34.2928 54.1281 34.0193 53.9487 33.6829C53.7693 33.3466 53.6326 32.9386 53.5384 32.4587C53.4442 31.9789 53.3971 31.4184 53.3971 30.7772V29.2839C53.3971 28.4812 53.4689 27.8086 53.6124 27.266C53.7604 26.7234 53.9689 26.2885 54.2379 25.9611C54.507 25.6293 54.8298 25.3916 55.2065 25.2481C55.5877 25.1046 56.0137 25.0329 56.4845 25.0329C56.8657 25.0329 57.2154 25.08 57.5338 25.1741C57.8567 25.2638 58.1437 25.4096 58.3948 25.6113C58.6459 25.8087 58.8589 26.0732 59.0338 26.4051C59.2132 26.7324 59.3499 27.1337 59.4441 27.6091C59.5383 28.0844 59.5854 28.6427 59.5854 29.2839ZM58.3343 30.979V29.0754C58.3343 28.636 58.3074 28.2503 58.2535 27.9185C58.2042 27.5822 58.1302 27.2952 58.0316 27.0575C57.9329 26.8198 57.8074 26.627 57.6549 26.479C57.5069 26.3311 57.3343 26.2234 57.137 26.1562C56.9442 26.0844 56.7267 26.0486 56.4845 26.0486C56.1886 26.0486 55.9262 26.1046 55.6975 26.2167C55.4688 26.3243 55.276 26.497 55.1191 26.7346C54.9666 26.9723 54.85 27.284 54.7693 27.6696C54.6886 28.0552 54.6482 28.5238 54.6482 29.0754V30.979C54.6482 31.4184 54.6729 31.8063 54.7222 32.1426C54.776 32.4789 54.8545 32.7704 54.9576 33.017C55.0608 33.2592 55.1863 33.4587 55.3343 33.6157C55.4823 33.7726 55.6527 33.8892 55.8455 33.9654C56.0428 34.0372 56.2603 34.0731 56.498 34.0731C56.8029 34.0731 57.0697 34.0148 57.2984 33.8982C57.5271 33.7816 57.7177 33.6 57.8701 33.3533C58.0271 33.1022 58.1437 32.7816 58.2199 32.3915C58.2961 31.9969 58.3343 31.526 58.3343 30.979ZM65.9619 25.154H66.0695V26.21H65.9619C65.3027 26.21 64.7512 26.3176 64.3072 26.5329C63.8633 26.7436 63.5113 27.0284 63.2512 27.3871C62.9911 27.7414 62.8028 28.1404 62.6862 28.5844C62.5741 29.0283 62.518 29.479 62.518 29.9364V31.3758C62.518 31.8108 62.5696 32.1964 62.6727 32.5327C62.7759 32.8646 62.9171 33.1448 63.0965 33.3735C63.2759 33.6022 63.4777 33.7749 63.7019 33.8915C63.9306 34.008 64.1682 34.0663 64.4149 34.0663C64.7018 34.0663 64.9574 34.0125 65.1817 33.9049C65.4059 33.7928 65.5942 33.6381 65.7467 33.4408C65.9036 33.239 66.0224 33.0013 66.1032 32.7278C66.1839 32.4543 66.2242 32.1538 66.2242 31.8265C66.2242 31.535 66.1884 31.2547 66.1166 30.9857C66.0449 30.7121 65.935 30.47 65.787 30.2592C65.639 30.044 65.453 29.8758 65.2287 29.7548C65.009 29.6292 64.7467 29.5664 64.4418 29.5664C64.0965 29.5664 63.7736 29.6516 63.4732 29.822C63.1772 29.9879 62.9328 30.2077 62.74 30.4812C62.5517 30.7503 62.444 31.044 62.4171 31.3624L61.758 31.3556C61.8207 30.8534 61.9373 30.4252 62.1077 30.0709C62.2826 29.7122 62.4979 29.4207 62.7535 29.1965C63.0135 28.9678 63.3028 28.8019 63.6212 28.6987C63.944 28.5911 64.2848 28.5373 64.6436 28.5373C65.1323 28.5373 65.5538 28.6292 65.9081 28.8131C66.2624 28.9969 66.5538 29.2436 66.7825 29.553C67.0112 29.8579 67.1794 30.2032 67.287 30.5888C67.3991 30.97 67.4552 31.3624 67.4552 31.7659C67.4552 32.2278 67.3901 32.6605 67.2601 33.0641C67.1301 33.4677 66.935 33.8219 66.6749 34.1269C66.4193 34.4318 66.1032 34.6695 65.7265 34.8399C65.3498 35.0103 64.9126 35.0955 64.4149 35.0955C63.8857 35.0955 63.4238 34.9878 63.0292 34.7726C62.6346 34.5529 62.3073 34.2614 62.0472 33.8982C61.7871 33.535 61.592 33.1314 61.462 32.6874C61.332 32.2435 61.2669 31.7928 61.2669 31.3354V30.7503C61.2669 30.0597 61.3364 29.3826 61.4755 28.7189C61.6145 28.0552 61.8544 27.4544 62.1952 26.9163C62.5405 26.3781 63.018 25.9499 63.6279 25.6315C64.2377 25.3131 65.0157 25.154 65.9619 25.154ZM75.0828 29.2839V30.7772C75.0828 31.5798 75.0111 32.257 74.8676 32.8085C74.7241 33.3601 74.5178 33.804 74.2487 34.1403C73.9797 34.4766 73.6546 34.721 73.2734 34.8735C72.8968 35.0215 72.4708 35.0955 71.9954 35.0955C71.6188 35.0955 71.2712 35.0484 70.9528 34.9542C70.6345 34.86 70.3475 34.7098 70.0919 34.5035C69.8408 34.2928 69.6255 34.0193 69.4461 33.6829C69.2668 33.3466 69.13 32.9386 69.0358 32.4587C68.9417 31.9789 68.8946 31.4184 68.8946 30.7772V29.2839C68.8946 28.4812 68.9663 27.8086 69.1098 27.266C69.2578 26.7234 69.4663 26.2885 69.7354 25.9611C70.0044 25.6293 70.3273 25.3916 70.704 25.2481C71.0851 25.1046 71.5111 25.0329 71.982 25.0329C72.3631 25.0329 72.7129 25.08 73.0313 25.1741C73.3541 25.2638 73.6411 25.4096 73.8922 25.6113C74.1434 25.8087 74.3564 26.0732 74.5312 26.4051C74.7106 26.7324 74.8474 27.1337 74.9416 27.6091C75.0357 28.0844 75.0828 28.6427 75.0828 29.2839ZM73.8317 30.979V29.0754C73.8317 28.636 73.8048 28.2503 73.751 27.9185C73.7017 27.5822 73.6277 27.2952 73.529 27.0575C73.4304 26.8198 73.3048 26.627 73.1524 26.479C73.0044 26.3311 72.8317 26.2234 72.6344 26.1562C72.4416 26.0844 72.2241 26.0486 71.982 26.0486C71.686 26.0486 71.4237 26.1046 71.195 26.2167C70.9663 26.3243 70.7735 26.497 70.6165 26.7346C70.4641 26.9723 70.3475 27.284 70.2668 27.6696C70.186 28.0552 70.1457 28.5238 70.1457 29.0754V30.979C70.1457 31.4184 70.1703 31.8063 70.2197 32.1426C70.2735 32.4789 70.352 32.7704 70.4551 33.017C70.5582 33.2592 70.6838 33.4587 70.8318 33.6157C70.9798 33.7726 71.1502 33.8892 71.343 33.9654C71.5403 34.0372 71.7578 34.0731 71.9954 34.0731C72.3004 34.0731 72.5672 34.0148 72.7959 33.8982C73.0246 33.7816 73.2151 33.6 73.3676 33.3533C73.5245 33.1022 73.6411 32.7816 73.7174 32.3915C73.7936 31.9969 73.8317 31.526 73.8317 30.979ZM83.1073 29.7077V30.8781H76.3944V29.7077H83.1073ZM80.3764 26.849V33.9789H79.1321V26.849H80.3764ZM89.2955 28.8265V34.9609H88.0512V27.6831H89.2619L89.2955 28.8265ZM91.569 27.6427L91.5623 28.7996C91.4592 28.7772 91.3605 28.7638 91.2663 28.7593C91.1767 28.7503 91.0735 28.7458 90.9569 28.7458C90.6699 28.7458 90.4166 28.7907 90.1969 28.8803C89.9771 28.97 89.791 29.0956 89.6386 29.257C89.4861 29.4184 89.365 29.6113 89.2753 29.8355C89.1901 30.0552 89.1341 30.2974 89.1072 30.5619L88.7574 30.7637C88.7574 30.3243 88.8 29.9117 88.8852 29.5261C88.9749 29.1404 89.1117 28.7996 89.2955 28.5037C89.4794 28.2032 89.7126 27.97 89.9951 27.8041C90.2821 27.6337 90.6229 27.5485 91.0175 27.5485C91.1071 27.5485 91.2103 27.5597 91.3269 27.5822C91.4435 27.6001 91.5242 27.6203 91.569 27.6427ZM95.6048 35.0955C95.0981 35.0955 94.6385 35.0103 94.2259 34.8399C93.8179 34.665 93.4659 34.4206 93.1699 34.1067C92.8784 33.7928 92.6542 33.4206 92.4973 32.9901C92.3403 32.5596 92.2618 32.0888 92.2618 31.5776V31.2951C92.2618 30.7032 92.3493 30.1763 92.5242 29.7144C92.6991 29.248 92.9367 28.8534 93.2372 28.5306C93.5376 28.2077 93.8784 27.9633 94.2596 27.7974C94.6407 27.6315 95.0353 27.5485 95.4434 27.5485C95.9636 27.5485 96.412 27.6382 96.7887 27.8176C97.1698 27.997 97.4815 28.2481 97.7236 28.5709C97.9658 28.8893 98.1451 29.266 98.2617 29.701C98.3783 30.1314 98.4366 30.6023 98.4366 31.1135V31.6718H93.0017V30.6561H97.1922V30.5619C97.1743 30.2391 97.107 29.9252 96.9904 29.6202C96.8783 29.3153 96.699 29.0642 96.4523 28.8669C96.2057 28.6696 95.8694 28.5709 95.4434 28.5709C95.1609 28.5709 94.9008 28.6315 94.6631 28.7525C94.4255 28.8691 94.2214 29.044 94.051 29.2772C93.8806 29.5104 93.7484 29.7951 93.6542 30.1314C93.56 30.4678 93.5129 30.8556 93.5129 31.2951V31.5776C93.5129 31.9229 93.56 32.248 93.6542 32.5529C93.7528 32.8534 93.8941 33.1179 94.0779 33.3466C94.2663 33.5753 94.4927 33.7547 94.7573 33.8847C95.0264 34.0148 95.3313 34.0798 95.6721 34.0798C96.1115 34.0798 96.4837 33.9901 96.7887 33.8107C97.0936 33.6314 97.3604 33.3915 97.5891 33.091L98.3424 33.6897C98.1855 33.9273 97.9859 34.1538 97.7438 34.369C97.5016 34.5843 97.2034 34.7591 96.8492 34.8937C96.4994 35.0282 96.0846 35.0955 95.6048 35.0955ZM102.008 33.8376L103.999 27.6831H105.271L102.654 34.9609H101.82L102.008 33.8376ZM100.347 27.6831L102.398 33.8713L102.54 34.9609H101.706L99.0689 27.6831H100.347ZM107.82 27.6831V34.9609H106.569V27.6831H107.82ZM106.475 25.7526C106.475 25.5508 106.535 25.3804 106.656 25.2414C106.782 25.1024 106.966 25.0329 107.208 25.0329C107.445 25.0329 107.627 25.1024 107.753 25.2414C107.883 25.3804 107.948 25.5508 107.948 25.7526C107.948 25.9454 107.883 26.1113 107.753 26.2503C107.627 26.3849 107.445 26.4521 107.208 26.4521C106.966 26.4521 106.782 26.3849 106.656 26.2503C106.535 26.1113 106.475 25.9454 106.475 25.7526ZM112.838 35.0955C112.331 35.0955 111.871 35.0103 111.459 34.8399C111.051 34.665 110.699 34.4206 110.403 34.1067C110.111 33.7928 109.887 33.4206 109.73 32.9901C109.573 32.5596 109.495 32.0888 109.495 31.5776V31.2951C109.495 30.7032 109.582 30.1763 109.757 29.7144C109.932 29.248 110.17 28.8534 110.47 28.5306C110.77 28.2077 111.111 27.9633 111.492 27.7974C111.874 27.6315 112.268 27.5485 112.676 27.5485C113.196 27.5485 113.645 27.6382 114.021 27.8176C114.403 27.997 114.714 28.2481 114.956 28.5709C115.199 28.8893 115.378 29.266 115.495 29.701C115.611 30.1314 115.669 30.6023 115.669 31.1135V31.6718H110.235V30.6561H114.425V30.5619C114.407 30.2391 114.34 29.9252 114.223 29.6202C114.111 29.3153 113.932 29.0642 113.685 28.8669C113.439 28.6696 113.102 28.5709 112.676 28.5709C112.394 28.5709 112.134 28.6315 111.896 28.7525C111.658 28.8691 111.454 29.044 111.284 29.2772C111.113 29.5104 110.981 29.7951 110.887 30.1314C110.793 30.4678 110.746 30.8556 110.746 31.2951V31.5776C110.746 31.9229 110.793 32.248 110.887 32.5529C110.986 32.8534 111.127 33.1179 111.311 33.3466C111.499 33.5753 111.726 33.7547 111.99 33.8847C112.259 34.0148 112.564 34.0798 112.905 34.0798C113.344 34.0798 113.717 33.9901 114.021 33.8107C114.326 33.6314 114.593 33.3915 114.822 33.091L115.575 33.6897C115.418 33.9273 115.219 34.1538 114.977 34.369C114.734 34.5843 114.436 34.7591 114.082 34.8937C113.732 35.0282 113.317 35.0955 112.838 35.0955ZM118.965 33.6695L120.835 27.6831H121.656L121.494 28.8736L119.591 34.9609H118.79L118.965 33.6695ZM117.708 27.6831L119.302 33.7367L119.416 34.9609H118.575L116.463 27.6831H117.708ZM123.445 33.6897L124.965 27.6831H126.203L124.091 34.9609H123.257L123.445 33.6897ZM121.837 27.6831L123.667 33.5686L123.876 34.9609H123.082L121.124 28.8602L120.963 27.6831H121.837ZM131.718 33.0305C131.718 32.8511 131.678 32.6852 131.597 32.5327C131.521 32.3758 131.362 32.2345 131.12 32.109C130.882 31.9789 130.523 31.8668 130.044 31.7727C129.64 31.6875 129.275 31.5866 128.947 31.47C128.624 31.3534 128.349 31.2121 128.12 31.0462C127.896 30.8803 127.723 30.6852 127.602 30.461C127.481 30.2368 127.42 29.9745 127.42 29.674C127.42 29.3871 127.483 29.1158 127.609 28.8602C127.739 28.6046 127.92 28.3781 128.153 28.1808C128.391 27.9835 128.676 27.8288 129.008 27.7167C129.34 27.6046 129.71 27.5485 130.118 27.5485C130.701 27.5485 131.198 27.6517 131.611 27.8579C132.023 28.0642 132.34 28.34 132.559 28.6853C132.779 29.0261 132.889 29.405 132.889 29.822H131.644C131.644 29.6202 131.584 29.4252 131.463 29.2368C131.346 29.044 131.174 28.8848 130.945 28.7593C130.721 28.6337 130.445 28.5709 130.118 28.5709C129.772 28.5709 129.492 28.6247 129.277 28.7324C129.066 28.8355 128.911 28.9678 128.813 29.1292C128.719 29.2906 128.671 29.461 128.671 29.6404C128.671 29.7749 128.694 29.896 128.739 30.0036C128.788 30.1068 128.873 30.2032 128.994 30.2929C129.115 30.3781 129.286 30.4588 129.505 30.535C129.725 30.6112 130.005 30.6875 130.346 30.7637C130.943 30.8982 131.434 31.0597 131.819 31.248C132.205 31.4363 132.492 31.6673 132.68 31.9408C132.869 32.2144 132.963 32.5462 132.963 32.9363C132.963 33.2547 132.896 33.5462 132.761 33.8107C132.631 34.0753 132.44 34.304 132.189 34.4968C131.943 34.6852 131.647 34.8331 131.301 34.9408C130.961 35.0439 130.577 35.0955 130.151 35.0955C129.51 35.0955 128.967 34.9811 128.523 34.7524C128.08 34.5237 127.743 34.2278 127.514 33.8645C127.286 33.5013 127.171 33.1179 127.171 32.7143H128.423C128.44 33.0551 128.539 33.3264 128.719 33.5282C128.898 33.7255 129.118 33.8668 129.378 33.952C129.638 34.0327 129.896 34.0731 130.151 34.0731C130.492 34.0731 130.777 34.0282 131.005 33.9385C131.239 33.8489 131.416 33.7255 131.537 33.5686C131.658 33.4116 131.718 33.2323 131.718 33.0305Z" fill="#181C25"/>
<path opacity="0.5" d="M15.7143 58.2302C15.7143 52.8387 19.7395 48.7717 24.7015 48.7717C29.7156 48.7717 33.6887 52.8014 33.6887 58.1928V66.476C33.6887 67.3155 33.1509 67.9124 32.3181 67.9124C31.4679 67.9124 30.9474 67.3341 30.9474 66.476V64.0507H30.8086C29.7503 65.9909 27.6336 67.6699 24.5107 67.6699C19.6874 67.6886 15.7143 63.659 15.7143 58.2302ZM31.0342 58.2302C31.0342 54.3498 28.3103 51.4208 24.7015 51.4208C21.0927 51.4208 18.3688 54.3498 18.3688 58.2302C18.3688 62.1105 21.0927 65.0395 24.7015 65.0395C28.3103 65.0395 31.0342 62.1105 31.0342 58.2302ZM40.7154 73.8076C40.0041 73.4345 39.6571 72.7816 39.9347 72.0167C40.2123 71.2145 40.8889 70.8787 41.6002 71.2518C42.8321 71.8674 44.3589 72.3152 45.9897 72.3152C50.0496 72.3152 52.4959 69.722 52.4959 65.282V64.0694H52.3571C51.2988 66.0096 49.1821 67.6886 46.0591 67.6886C41.2185 67.6886 37.2454 63.659 37.2454 58.2302C37.2454 52.8387 41.2706 48.7717 46.2326 48.7717C51.2467 48.7717 55.2199 52.8014 55.2199 58.1928V65.0768C55.2199 71.0093 51.6805 75.0016 45.8856 75.0016C44.116 75.0016 42.3463 74.6471 40.7154 73.8076ZM52.5653 58.2302C52.5653 54.3498 49.8414 51.4208 46.2326 51.4208C42.6239 51.4208 39.9 54.3498 39.9 58.2302C39.9 62.1105 42.6239 65.0395 46.2326 65.0395C49.8414 65.0395 52.5653 62.1105 52.5653 58.2302ZM58.7592 58.2302C58.7592 52.8387 62.7497 48.7717 67.7464 48.7717C72.7605 48.7717 76.7337 52.8387 76.7337 58.2302C76.7337 63.6216 72.7432 67.6886 67.7464 67.6886C62.7497 67.6886 58.7592 63.6216 58.7592 58.2302ZM74.0965 58.2302C74.0965 54.3498 71.3726 51.4208 67.7638 51.4208C64.155 51.4208 61.4311 54.3498 61.4311 58.2302C61.4311 62.1105 64.155 65.0395 67.7638 65.0395C71.3726 65.0395 74.0965 62.1105 74.0965 58.2302ZM80.2904 58.2302C80.2904 52.8387 84.2461 48.7717 89.1041 48.7717C92.2444 48.7717 94.3437 50.4507 95.4021 52.3909H95.5409V42.7646C95.5409 41.9251 96.0787 41.3281 96.9115 41.3281C97.7616 41.3281 98.2821 41.9064 98.2821 42.7646V58.2488C98.2821 63.6403 94.2917 67.6699 89.2949 67.6699C84.3155 67.6886 80.2904 63.6216 80.2904 58.2302ZM95.6276 58.2302C95.6276 54.3498 92.9037 51.4208 89.2949 51.4208C85.6862 51.4208 82.9622 54.3498 82.9622 58.2302C82.9622 62.1105 85.6862 65.0395 89.2949 65.0395C92.8863 65.0395 95.6276 62.1105 95.6276 58.2302ZM101.822 58.2302C101.822 52.8387 105.847 48.7717 110.809 48.7717C115.823 48.7717 119.796 52.8014 119.796 58.1928V66.476C119.796 67.3155 119.258 67.9124 118.425 67.9124C117.575 67.9124 117.055 67.3341 117.055 66.476V64.0507H116.916C115.858 65.9909 113.741 67.6699 110.618 67.6699C105.812 67.6886 101.822 63.659 101.822 58.2302ZM117.141 58.2302C117.141 54.3498 114.417 51.4208 110.809 51.4208C107.2 51.4208 104.476 54.3498 104.476 58.2302C104.476 62.1105 107.2 65.0395 110.809 65.0395C114.417 65.0395 117.141 62.1105 117.141 58.2302Z" fill="#40615A"/>
</svg>
