<svg width="190" height="76" viewBox="0 0 190 76" fill="none" xmlns="http://www.w3.org/2000/svg">
<path d="M36.44 11.849V13.559H27.8161L27.7257 12.2436L32.7981 4.24449H34.5327L32.6583 7.42604L29.9372 11.849H36.44ZM35.0178 4.24449V16.2144H32.8392V4.24449H35.0178ZM37.9527 15.1538C37.9527 14.825 38.0651 14.5482 38.2898 14.3235C38.5145 14.0988 38.8187 13.9864 39.2023 13.9864C39.586 13.9864 39.8901 14.0988 40.1148 14.3235C40.3395 14.5482 40.4519 14.825 40.4519 15.1538C40.4519 15.4772 40.3395 15.7512 40.1148 15.9759C39.8901 16.1952 39.586 16.3048 39.2023 16.3048C38.8187 16.3048 38.5145 16.1952 38.2898 15.9759C38.0651 15.7512 37.9527 15.4772 37.9527 15.1538ZM48.5743 4.14584H48.8703V5.89692H48.7305C48.0673 5.89692 47.4837 5.99832 46.9794 6.2011C46.4807 6.40389 46.0641 6.68889 45.7298 7.05609C45.401 7.41782 45.1516 7.84805 44.9817 8.3468C44.8118 8.84006 44.7269 9.37991 44.7269 9.96635V11.9065C44.7269 12.3614 44.7734 12.7615 44.8666 13.1068C44.9653 13.4466 45.0995 13.7343 45.2694 13.97C45.4448 14.2002 45.6476 14.3728 45.8778 14.4879C46.1135 14.603 46.3711 14.6606 46.6506 14.6606C46.9301 14.6606 47.1822 14.603 47.4069 14.4879C47.6316 14.3728 47.8235 14.2112 47.9824 14.0029C48.1468 13.7891 48.2701 13.5398 48.3523 13.2548C48.44 12.9698 48.4839 12.6574 48.4839 12.3176C48.4839 11.9832 48.4428 11.6736 48.3606 11.3886C48.2784 11.1036 48.1578 10.8542 47.9988 10.6405C47.8399 10.4212 47.6426 10.2541 47.4069 10.139C47.1767 10.0184 46.9137 9.95813 46.6177 9.95813C46.2341 9.95813 45.8915 10.0486 45.5901 10.2294C45.2886 10.4048 45.0502 10.635 44.8748 10.92C44.6995 11.205 44.6035 11.5064 44.5871 11.8243L43.8554 11.4626C43.8828 10.9967 43.9815 10.5692 44.1514 10.1801C44.3268 9.79097 44.5597 9.45116 44.8502 9.16068C45.1461 8.87021 45.4942 8.6455 45.8942 8.48656C46.2998 8.32762 46.7492 8.24815 47.2425 8.24815C47.8125 8.24815 48.3112 8.35776 48.7387 8.57699C49.1662 8.79074 49.5197 9.08395 49.7993 9.45664C50.0842 9.82933 50.298 10.2596 50.4405 10.7473C50.583 11.2297 50.6542 11.7394 50.6542 12.2765C50.6542 12.8519 50.5611 13.3891 50.3747 13.8878C50.1939 14.3865 49.9308 14.8223 49.5855 15.1949C49.2402 15.5676 48.8237 15.8581 48.3359 16.0664C47.8481 16.2746 47.3 16.3788 46.6917 16.3788C46.0504 16.3788 45.475 16.2582 44.9653 16.017C44.461 15.7759 44.0281 15.4416 43.6663 15.0141C43.3046 14.5866 43.0278 14.0878 42.836 13.5178C42.6442 12.9479 42.5483 12.3313 42.5483 11.6681V10.7967C42.5483 9.85947 42.6771 8.98804 42.9347 8.18238C43.1923 7.37671 43.5732 6.67244 44.0774 6.06957C44.5871 5.46121 45.2174 4.98987 45.9682 4.65554C46.7191 4.31574 47.5878 4.14584 48.5743 4.14584Z" fill="#40615A"/>
<path fill-rule="evenodd" clip-rule="evenodd" d="M66.0404 16.5738L70.2761 19.1303C71.0489 19.5967 72.0022 18.9039 71.7971 18.0249L70.673 13.2065L74.4165 9.9635C75.0988 9.37247 74.7341 8.2518 73.8346 8.17549L68.9077 7.75749L66.9799 3.20889C66.6283 2.37927 65.4525 2.37927 65.1009 3.20889L63.173 7.75749L58.2461 8.17549C57.3467 8.2518 56.982 9.37247 57.6643 9.9635L61.4077 13.2065L60.2837 18.0249C60.0786 18.9039 61.0319 19.5967 61.8047 19.1303L66.0404 16.5738Z" fill="#F1845B"/>
<path fill-rule="evenodd" clip-rule="evenodd" d="M87.4689 16.5738L91.7047 19.1303C92.4774 19.5967 93.4307 18.9039 93.2257 18.0249L92.1016 13.2065L95.8451 9.9635C96.5273 9.37247 96.1626 8.2518 95.2632 8.17549L90.3363 7.75749L88.4085 3.20889C88.0568 2.37927 86.8811 2.37927 86.5294 3.20889L84.6016 7.75749L79.6747 8.17549C78.7753 8.2518 78.4106 9.37247 79.0928 9.9635L82.8363 13.2065L81.7122 18.0249C81.5072 18.9039 82.4605 19.5967 83.2332 19.1303L87.4689 16.5738Z" fill="#F1845B"/>
<path fill-rule="evenodd" clip-rule="evenodd" d="M108.898 16.5738L113.133 19.1303C113.906 19.5967 114.859 18.9039 114.654 18.0249L113.53 13.2065L117.274 9.9635C117.956 9.37247 117.591 8.2518 116.692 8.17549L111.765 7.75749L109.837 3.20889C109.485 2.37927 108.31 2.37927 107.958 3.20889L106.03 7.75749L101.103 8.17549C100.204 8.2518 99.8392 9.37247 100.521 9.9635L104.265 13.2065L103.141 18.0249C102.936 18.9039 103.889 19.5967 104.662 19.1303L108.898 16.5738Z" fill="#F1845B"/>
<path fill-rule="evenodd" clip-rule="evenodd" d="M130.326 16.5738L134.562 19.1303C135.335 19.5967 136.288 18.9039 136.083 18.0249L134.959 13.2065L138.702 9.9635C139.384 9.37247 139.02 8.2518 138.12 8.17549L133.193 7.75749L131.266 3.20889C130.914 2.37927 129.738 2.37927 129.387 3.20889L127.459 7.75749L122.532 8.17549C121.632 8.2518 121.268 9.37247 121.95 9.9635L125.693 13.2065L124.569 18.0249C124.364 18.9039 125.318 19.5967 126.09 19.1303L130.326 16.5738Z" fill="#F1845B"/>
<path fill-rule="evenodd" clip-rule="evenodd" d="M151.755 16.5738L155.99 19.1303C156.763 19.5967 157.716 18.9039 157.511 18.0249L156.387 13.2065L160.131 9.9635C160.813 9.37247 160.448 8.2518 159.549 8.17549L154.622 7.75749L152.694 3.20889C152.343 2.37927 151.167 2.37927 150.815 3.20889L148.887 7.75749L143.96 8.17549C143.061 8.2518 142.696 9.37247 143.379 9.9635L147.122 13.2065L145.998 18.0249C145.793 18.9039 146.746 19.5967 147.519 19.1303L151.755 16.5738Z" fill="#EBEDE9"/>
<mask id="mask0_325_4511" style="mask-type:alpha" maskUnits="userSpaceOnUse" x="143" y="2" width="18" height="18">
<path fill-rule="evenodd" clip-rule="evenodd" d="M151.755 16.5738L155.99 19.1303C156.763 19.5967 157.716 18.9039 157.511 18.0249L156.387 13.2065L160.131 9.9635C160.813 9.37247 160.448 8.2518 159.549 8.17549L154.622 7.75749L152.694 3.20889C152.343 2.37927 151.167 2.37927 150.815 3.20889L148.887 7.75749L143.96 8.17549C143.061 8.2518 142.696 9.37247 143.379 9.9635L147.122 13.2065L145.998 18.0249C145.793 18.9039 146.746 19.5967 147.519 19.1303L151.755 16.5738Z" fill="#F1845B"/>
</mask>
<g mask="url(#mask0_325_4511)">
<rect x="141.041" width="10.7143" height="21.4286" fill="#F1845B"/>
</g>
<g opacity="0.5">
<path fill-rule="evenodd" clip-rule="evenodd" d="M74.5778 46.887C74.5778 45.291 75.8661 44.0002 77.4518 44.0002C79.043 44.0002 80.3362 45.291 80.3362 46.887C80.3362 48.4812 79.043 49.7734 77.4518 49.7734C75.8661 49.7734 74.5778 48.481 74.5778 46.887ZM27.3195 64.8411C24.8396 64.8411 23.1162 62.8717 23.1162 60.0573C23.1162 57.2436 24.8396 55.2754 27.3195 55.2754C29.8136 55.2754 31.556 57.2436 31.556 60.0573C31.556 62.9162 29.8499 64.8411 27.3195 64.8411ZM27.3195 51.0709C22.0729 51.0709 18.2653 54.8513 18.2653 60.0573C18.2653 65.2634 22.0729 69.0429 27.3195 69.0429C32.5857 69.0429 36.4092 65.2634 36.4092 60.0573C36.4092 54.8513 32.5857 51.0709 27.3195 51.0709ZM69.0007 60.5067C68.7968 60.1229 68.5629 59.7981 68.3139 59.5402L68.1552 59.3717L68.3222 59.2117C68.563 58.9579 68.8092 58.6569 69.0466 58.3079L73.6766 51.4253H68.056L64.5772 56.8092C64.3803 57.098 63.9827 57.2436 63.3876 57.2436H62.5947V47.0648C62.5947 45.0289 61.3264 44.7518 59.9562 44.7518H57.6105L57.6144 68.7782H62.5947V61.5713H63.0613C63.629 61.5713 64.0157 61.6369 64.1929 61.9455L66.9403 67.1311C67.7077 68.5382 68.4725 68.7782 69.9113 68.7782H73.728L70.8854 64.0765L69.0007 60.5067ZM93.1783 51.0324C90.6451 51.0324 89.0287 52.1578 88.1229 53.1095L87.8205 53.4153L87.7138 52.9994C87.4477 51.9799 86.5508 51.4191 85.2011 51.4191H82.969L82.983 68.7722H87.9294V60.7742C87.9294 59.9922 88.0311 59.3136 88.2379 58.6946C88.7885 56.8208 90.3244 55.6558 92.244 55.6558C93.7881 55.6558 94.3914 56.4705 94.3914 58.5763V66.1341C94.3914 67.9314 95.2225 68.7722 97.0211 68.7722H99.375L99.3671 57.7352C99.3671 53.3503 97.2284 51.0324 93.1798 51.0324H93.1783ZM77.5172 51.4267H75.1727L75.1887 64.8439H75.1871V68.7762H77.6897C77.7054 68.7762 77.7196 68.7771 77.7338 68.7779C77.743 68.7785 77.7522 68.779 77.7618 68.7794L77.7779 68.7796L78.9436 68.7762H80.1038V68.7694H80.1119L80.122 54.061C80.122 52.2863 79.2735 51.4267 77.5189 51.4267H77.5172ZM42.5615 60.0573C42.5615 62.8717 44.2849 64.8411 46.7648 64.8411C49.2952 64.8411 51.0013 62.9162 51.0013 60.0573C51.0013 57.2436 49.259 55.2754 46.7648 55.2754C44.2849 55.2754 42.5615 57.2436 42.5615 60.0573ZM37.7106 60.0573C37.7106 54.8513 41.5182 51.0709 46.7648 51.0709C52.031 51.0709 55.8545 54.8513 55.8545 60.0573C55.8545 65.2634 52.031 69.0429 46.7648 69.0429C41.5182 69.0429 37.7106 65.2634 37.7106 60.0573ZM109.796 64.0777C107.092 64.0777 106.129 61.7183 106.129 59.5073C106.129 58.5331 106.376 55.3582 109.536 55.3582C111.107 55.3582 113.2 55.8083 113.2 59.6707C113.2 63.3136 111.348 64.0777 109.796 64.0777ZM115.769 51.3799C114.83 51.3799 114.108 51.7543 113.746 52.4377L113.609 52.703L113.38 52.5041C112.581 51.813 111.15 50.9935 108.825 50.9935C104.2 50.9935 101.086 54.4674 101.086 59.6372C101.086 64.8007 104.308 68.4094 108.918 68.4094C110.493 68.4094 111.737 68.0421 112.724 67.2951L113.105 67.0083V67.4908C113.105 69.8085 111.606 71.0871 108.889 71.0871C107.569 71.0871 106.367 70.7656 105.563 70.474C104.514 70.1574 103.899 70.4195 103.473 71.4723L103.08 72.4436L102.525 73.8625L102.869 74.0458C104.608 74.9686 106.872 75.5195 108.918 75.5195C113.131 75.5195 118.049 73.3632 118.049 67.2951L118.067 51.3799H115.769H115.769ZM4.87141 64.6336L8.89797 64.6376C10.8894 64.6364 12.1243 63.4206 12.1257 61.3684C12.1243 59.3688 10.8579 58.1326 8.89797 58.1326H6.15199C5.27028 58.2557 4.87141 58.7907 4.87141 59.8196V64.6336ZM4.87141 50.3842V51.6511V54.43H8.49567C10.5316 54.43 11.2561 52.8559 11.2561 51.5068C11.2561 49.7377 10.1977 48.6801 8.43068 48.6801H6.37034C5.34064 48.7479 4.87141 49.2753 4.87141 50.3842ZM13.3125 56.0467L14.0405 56.4557H14.0394C15.8064 57.4504 16.8578 59.4063 16.8578 61.6939C16.8578 65.9431 13.6049 68.6863 8.56507 68.6863L2.64975 68.6875C2.64875 68.6869 2.64775 68.6869 2.64624 68.6869C2.64473 68.6869 2.64273 68.6869 2.63972 68.6863H0.26532V47.251C0.280359 45.8984 1.35581 44.8054 2.69994 44.756H3.28901V44.7574H8.46287C12.9966 44.7574 15.9258 47.1948 15.9258 50.9713C15.9258 53.4394 14.6869 54.8678 13.948 55.5032L13.3125 56.0467Z" fill="#40615A"/>
<path fill-rule="evenodd" clip-rule="evenodd" d="M152.776 64.845C150.297 64.845 148.569 62.8756 148.569 60.0612C148.569 57.2474 150.297 55.2793 152.776 55.2793C155.265 55.2793 157.013 57.2474 157.013 60.0612C157.013 62.9201 155.307 64.8452 152.776 64.8452V64.845ZM152.776 51.0748C147.525 51.0748 143.716 54.8552 143.716 60.0612C143.716 65.2673 147.525 69.0468 152.776 69.0468C158.037 69.0468 161.866 65.2673 161.866 60.0612C161.866 54.8552 158.037 51.0748 152.776 51.0748ZM120.009 66.094C120.009 64.4974 121.297 63.205 122.883 63.205C124.473 63.205 125.766 64.4974 125.766 66.094C125.766 67.6866 124.473 68.9804 122.883 68.9804C121.297 68.9804 120.009 67.6868 120.009 66.094ZM178.652 53.6608C179.926 52.049 181.91 51.0878 183.963 51.0878H183.962C187.781 51.0878 189.722 53.3249 189.722 57.7333L189.718 68.7687H187.494C185.749 68.7687 184.97 67.9882 184.97 66.2416V58.5214C184.97 56.309 184.432 55.4854 182.978 55.4854C180.968 55.4854 179.674 57.2899 179.291 59.0502C179.103 59.6776 179.025 60.3028 179.025 61.138V68.7687H174.268V58.5214C174.268 56.6039 173.641 55.6111 172.356 55.488C170.273 55.2897 169.034 57.2729 168.582 59.1167C168.415 59.8081 168.332 60.4697 168.332 61.138V68.7687H163.608L163.628 51.4827H165.707C167.003 51.4827 167.859 52.0121 168.121 52.9732L168.301 53.641L168.77 53.1332C169.486 52.3706 171.028 51.0878 173.327 51.0878C175.52 51.0878 177.097 51.9363 178.013 53.6069L178.294 54.115L178.652 53.6608ZM136.259 64.9274C138.935 64.9274 140.968 62.784 140.982 62.7669V62.7671L141.251 62.4798L143.301 65.8797L143.165 66.0467C143.141 66.0774 140.591 69.1601 135.901 69.1601C130.496 69.1601 126.576 65.3625 126.576 60.1278C126.576 54.8908 130.539 51.0881 136.001 51.0881C138.555 51.0881 142.351 52.1703 142.351 55.1543V57.4167L139.763 57.4139C139.546 57.4139 138.444 57.3489 138.08 56.1359L138.057 56.0457C137.899 55.5107 136.889 55.1926 136.001 55.1926C133.267 55.1926 131.357 57.2079 131.357 60.0915C131.357 63.4313 133.821 64.9274 136.259 64.9274Z" fill="#40615A"/>
</g>
<path opacity="0.5" d="M34.8841 31.4027V31.248C34.8841 30.7234 34.9604 30.2368 35.1128 29.7884C35.2653 29.3355 35.485 28.9431 35.772 28.6113C36.059 28.275 36.4065 28.0149 36.8146 27.831C37.2227 27.6427 37.68 27.5485 38.1868 27.5485C38.698 27.5485 39.1576 27.6427 39.5657 27.831C39.9782 28.0149 40.328 28.275 40.615 28.6113C40.9064 28.9431 41.1284 29.3355 41.2809 29.7884C41.4333 30.2368 41.5096 30.7234 41.5096 31.248V31.4027C41.5096 31.9274 41.4333 32.4139 41.2809 32.8623C41.1284 33.3107 40.9064 33.7031 40.615 34.0394C40.328 34.3713 39.9805 34.6313 39.5724 34.8197C39.1688 35.0035 38.7114 35.0955 38.2002 35.0955C37.689 35.0955 37.2294 35.0035 36.8213 34.8197C36.4133 34.6313 36.0635 34.3713 35.772 34.0394C35.485 33.7031 35.2653 33.3107 35.1128 32.8623C34.9604 32.4139 34.8841 31.9274 34.8841 31.4027ZM36.1285 31.248V31.4027C36.1285 31.7659 36.1711 32.109 36.2563 32.4318C36.3415 32.7502 36.4693 33.0327 36.6397 33.2794C36.8146 33.526 37.0321 33.7211 37.2922 33.8645C37.5522 34.0036 37.8549 34.0731 38.2002 34.0731C38.541 34.0731 38.8392 34.0036 39.0948 33.8645C39.3549 33.7211 39.5701 33.526 39.7405 33.2794C39.9109 33.0327 40.0387 32.7502 40.1239 32.4318C40.2136 32.109 40.2585 31.7659 40.2585 31.4027V31.248C40.2585 30.8893 40.2136 30.5507 40.1239 30.2323C40.0387 29.9095 39.9087 29.6247 39.7338 29.3781C39.5634 29.127 39.3482 28.9297 39.0881 28.7862C38.8325 28.6427 38.5321 28.5709 38.1868 28.5709C37.846 28.5709 37.5455 28.6427 37.2854 28.7862C37.0298 28.9297 36.8146 29.127 36.6397 29.3781C36.4693 29.6247 36.3415 29.9095 36.2563 30.2323C36.1711 30.5507 36.1285 30.8893 36.1285 31.248ZM47.5229 33.2794V27.6831H48.774V34.9609H47.5834L47.5229 33.2794ZM47.7583 31.7458L48.2763 31.7323C48.2763 32.2166 48.2247 32.665 48.1215 33.0776C48.0229 33.4856 47.8615 33.8399 47.6373 34.1403C47.413 34.4408 47.1193 34.6762 46.7561 34.8466C46.3929 35.0125 45.9512 35.0955 45.431 35.0955C45.0768 35.0955 44.7517 35.0439 44.4557 34.9408C44.1642 34.8376 43.9131 34.6784 43.7024 34.4632C43.4916 34.2479 43.3279 33.9677 43.2113 33.6224C43.0992 33.2771 43.0432 32.8623 43.0432 32.378V27.6831H44.2875V32.3915C44.2875 32.7188 44.3234 32.9901 44.3952 33.2054C44.4714 33.4161 44.5723 33.5843 44.6978 33.7098C44.8279 33.8309 44.9714 33.9161 45.1283 33.9654C45.2898 34.0148 45.4557 34.0394 45.6261 34.0394C46.1552 34.0394 46.5745 33.9385 46.8839 33.7367C47.1933 33.5305 47.4153 33.2547 47.5498 32.9094C47.6888 32.5596 47.7583 32.1718 47.7583 31.7458ZM53.7178 27.6831V28.6382H49.7829V27.6831H53.7178ZM51.1148 25.914H52.3591V33.1583C52.3591 33.4049 52.3972 33.591 52.4735 33.7166C52.5497 33.8421 52.6484 33.9251 52.7694 33.9654C52.8905 34.0058 53.0206 34.026 53.1596 34.026C53.2627 34.026 53.3703 34.017 53.4824 33.9991C53.599 33.9767 53.6865 33.9587 53.7448 33.9453L53.7515 34.9609C53.6528 34.9923 53.5228 35.0215 53.3614 35.0484C53.2044 35.0798 53.0138 35.0955 52.7896 35.0955C52.4847 35.0955 52.2044 35.0349 51.9488 34.9139C51.6932 34.7928 51.4892 34.591 51.3367 34.3085C51.1887 34.0215 51.1148 33.6359 51.1148 33.1516V25.914ZM58.2648 31.4027V31.248C58.2648 30.7234 58.3411 30.2368 58.4935 29.7884C58.646 29.3355 58.8657 28.9431 59.1527 28.6113C59.4397 28.275 59.7872 28.0149 60.1953 27.831C60.6034 27.6427 61.0607 27.5485 61.5675 27.5485C62.0787 27.5485 62.5383 27.6427 62.9464 27.831C63.3589 28.0149 63.7087 28.275 63.9957 28.6113C64.2871 28.9431 64.5091 29.3355 64.6616 29.7884C64.814 30.2368 64.8903 30.7234 64.8903 31.248V31.4027C64.8903 31.9274 64.814 32.4139 64.6616 32.8623C64.5091 33.3107 64.2871 33.7031 63.9957 34.0394C63.7087 34.3713 63.3612 34.6313 62.9531 34.8197C62.5495 35.0035 62.0921 35.0955 61.5809 35.0955C61.0697 35.0955 60.6101 35.0035 60.202 34.8197C59.794 34.6313 59.4442 34.3713 59.1527 34.0394C58.8657 33.7031 58.646 33.3107 58.4935 32.8623C58.3411 32.4139 58.2648 31.9274 58.2648 31.4027ZM59.5092 31.248V31.4027C59.5092 31.7659 59.5518 32.109 59.637 32.4318C59.7222 32.7502 59.85 33.0327 60.0204 33.2794C60.1953 33.526 60.4128 33.7211 60.6729 33.8645C60.9329 34.0036 61.2356 34.0731 61.5809 34.0731C61.9217 34.0731 62.2199 34.0036 62.4755 33.8645C62.7356 33.7211 62.9508 33.526 63.1212 33.2794C63.2916 33.0327 63.4194 32.7502 63.5046 32.4318C63.5943 32.109 63.6392 31.7659 63.6392 31.4027V31.248C63.6392 30.8893 63.5943 30.5507 63.5046 30.2323C63.4194 29.9095 63.2894 29.6247 63.1145 29.3781C62.9441 29.127 62.7289 28.9297 62.4688 28.7862C62.2132 28.6427 61.9127 28.5709 61.5675 28.5709C61.2267 28.5709 60.9262 28.6427 60.6661 28.7862C60.4105 28.9297 60.1953 29.127 60.0204 29.3781C59.85 29.6247 59.7222 29.9095 59.637 30.2323C59.5518 30.5507 59.5092 30.8893 59.5092 31.248ZM68.3072 34.9609H67.0629V26.9163C67.0629 26.3916 67.157 25.9499 67.3454 25.5912C67.5382 25.2279 67.814 24.9544 68.1727 24.7706C68.5315 24.5822 68.9575 24.4881 69.4507 24.4881C69.5942 24.4881 69.7377 24.497 69.8812 24.515C70.0292 24.5329 70.1727 24.5598 70.3117 24.5957L70.2444 25.6113C70.1503 25.5889 70.0426 25.5732 69.9216 25.5643C69.805 25.5553 69.6884 25.5508 69.5718 25.5508C69.3072 25.5508 69.0785 25.6046 68.8857 25.7122C68.6974 25.8154 68.5539 25.9678 68.4552 26.1696C68.3566 26.3714 68.3072 26.6203 68.3072 26.9163V34.9609ZM69.8543 27.6831V28.6382H65.9127V27.6831H69.8543ZM76.3385 29.4521H77.2263C77.6613 29.4521 78.0201 29.3803 78.3026 29.2368C78.5895 29.0889 78.8025 28.8893 78.9416 28.6382C79.0851 28.3826 79.1568 28.0956 79.1568 27.7772C79.1568 27.4006 79.094 27.0844 78.9685 26.8288C78.8429 26.5732 78.6546 26.3804 78.4035 26.2503C78.1523 26.1203 77.834 26.0553 77.4483 26.0553C77.0985 26.0553 76.7891 26.1248 76.5201 26.2638C76.2555 26.3983 76.047 26.5911 75.8945 26.8423C75.7466 27.0934 75.6726 27.3893 75.6726 27.7301H74.4282C74.4282 27.2324 74.5538 26.7795 74.8049 26.3714C75.056 25.9634 75.408 25.6383 75.8609 25.3961C76.3183 25.154 76.8474 25.0329 77.4483 25.0329C78.0402 25.0329 78.5582 25.1383 79.0021 25.349C79.446 25.5553 79.7913 25.8647 80.038 26.2773C80.2846 26.6853 80.4079 27.1943 80.4079 27.8041C80.4079 28.0508 80.3496 28.3153 80.233 28.5978C80.1209 28.8759 79.9438 29.1359 79.7016 29.3781C79.464 29.6202 79.1546 29.8198 78.7734 29.9767C78.3922 30.1292 77.9349 30.2054 77.4012 30.2054H76.3385V29.4521ZM76.3385 30.4745V29.7279H77.4012C78.0245 29.7279 78.5402 29.8018 78.9483 29.9498C79.3564 30.0978 79.677 30.2951 79.9102 30.5417C80.1478 30.7884 80.3137 31.0597 80.4079 31.3556C80.5066 31.6471 80.5559 31.9386 80.5559 32.2301C80.5559 32.6874 80.4774 33.0933 80.3205 33.4475C80.168 33.8018 79.9505 34.1022 79.668 34.3488C79.39 34.5955 79.0626 34.7816 78.686 34.9071C78.3093 35.0327 77.899 35.0955 77.455 35.0955C77.029 35.0955 76.6277 35.0349 76.251 34.9139C75.8788 34.7928 75.5493 34.6179 75.2623 34.3892C74.9753 34.156 74.7511 33.8713 74.5896 33.535C74.4282 33.1942 74.3475 32.8063 74.3475 32.3713H75.5919C75.5919 32.7121 75.6658 33.0103 75.8138 33.2659C75.9663 33.5215 76.1815 33.7211 76.4595 33.8645C76.7421 34.0036 77.0739 34.0731 77.455 34.0731C77.8362 34.0731 78.1635 34.008 78.4371 33.878C78.7151 33.7435 78.9281 33.5417 79.0761 33.2726C79.2286 33.0036 79.3048 32.665 79.3048 32.257C79.3048 31.8489 79.2196 31.5148 79.0492 31.2547C78.8788 30.9902 78.6366 30.7951 78.3227 30.6695C78.0133 30.5395 77.6479 30.4745 77.2263 30.4745H76.3385ZM88.4459 32.3108C88.4459 32.9072 88.3068 33.4139 88.0288 33.8309C87.7553 34.2435 87.3831 34.5574 86.9123 34.7726C86.4459 34.9878 85.919 35.0955 85.3316 35.0955C84.7441 35.0955 84.215 34.9878 83.7442 34.7726C83.2733 34.5574 82.9011 34.2435 82.6276 33.8309C82.354 33.4139 82.2173 32.9072 82.2173 32.3108C82.2173 31.9206 82.2913 31.5641 82.4392 31.2413C82.5917 30.9139 82.8047 30.6292 83.0782 30.387C83.3563 30.1449 83.6836 29.9588 84.0603 29.8288C84.4414 29.6942 84.8607 29.627 85.3181 29.627C85.919 29.627 86.4549 29.7436 86.9257 29.9767C87.3965 30.2054 87.7665 30.5216 88.0355 30.9251C88.3091 31.3287 88.4459 31.7906 88.4459 32.3108ZM87.1948 32.2839C87.1948 31.9206 87.1163 31.6 86.9593 31.322C86.8024 31.0395 86.5827 30.8198 86.3002 30.6628C86.0177 30.5059 85.6903 30.4274 85.3181 30.4274C84.937 30.4274 84.6074 30.5059 84.3293 30.6628C84.0558 30.8198 83.8428 31.0395 83.6903 31.322C83.5379 31.6 83.4616 31.9206 83.4616 32.2839C83.4616 32.6605 83.5356 32.9834 83.6836 33.2525C83.8361 33.517 84.0513 33.7211 84.3293 33.8645C84.6118 34.0036 84.9459 34.0731 85.3316 34.0731C85.7172 34.0731 86.049 34.0036 86.3271 33.8645C86.6051 33.7211 86.8181 33.517 86.9661 33.2525C87.1185 32.9834 87.1948 32.6605 87.1948 32.2839ZM88.2172 27.7167C88.2172 28.192 88.0916 28.6203 87.8405 29.0014C87.5894 29.3826 87.2463 29.683 86.8114 29.9027C86.3764 30.1225 85.8831 30.2323 85.3316 30.2323C84.771 30.2323 84.271 30.1225 83.8316 29.9027C83.3966 29.683 83.0558 29.3826 82.8092 29.0014C82.5626 28.6203 82.4392 28.192 82.4392 27.7167C82.4392 27.1472 82.5626 26.6629 82.8092 26.2638C83.0603 25.8647 83.4034 25.5598 83.8383 25.349C84.2733 25.1383 84.7688 25.0329 85.3248 25.0329C85.8854 25.0329 86.3831 25.1383 86.8181 25.349C87.2531 25.5598 87.5939 25.8647 87.8405 26.2638C88.0916 26.6629 88.2172 27.1472 88.2172 27.7167ZM86.9728 27.7369C86.9728 27.4095 86.9033 27.1203 86.7643 26.8692C86.6253 26.6181 86.4324 26.4207 86.1858 26.2773C85.9392 26.1293 85.6522 26.0553 85.3248 26.0553C84.9975 26.0553 84.7105 26.1248 84.4639 26.2638C84.2217 26.3983 84.0311 26.5911 83.8921 26.8423C83.7576 27.0934 83.6903 27.3916 83.6903 27.7369C83.6903 28.0732 83.7576 28.3669 83.8921 28.618C84.0311 28.8691 84.224 29.0642 84.4706 29.2032C84.7172 29.3422 85.0042 29.4117 85.3316 29.4117C85.6589 29.4117 85.9437 29.3422 86.1858 29.2032C86.4324 29.0642 86.6253 28.8691 86.7643 28.618C86.9033 28.3669 86.9728 28.0732 86.9728 27.7369ZM96.3493 25.1674V25.8669L92.2933 34.9609H90.9817L95.0309 26.1898H89.7306V25.1674H96.3493ZM104.192 29.7077V30.8781H97.4793V29.7077H104.192ZM101.461 26.849V33.9789H100.217V26.849H101.461ZM110.38 28.8265V34.9609H109.136V27.6831H110.347L110.38 28.8265ZM112.654 27.6427L112.647 28.7996C112.544 28.7772 112.445 28.7638 112.351 28.7593C112.262 28.7503 112.158 28.7458 112.042 28.7458C111.755 28.7458 111.501 28.7907 111.282 28.8803C111.062 28.97 110.876 29.0956 110.723 29.257C110.571 29.4184 110.45 29.6113 110.36 29.8355C110.275 30.0552 110.219 30.2974 110.192 30.5619L109.842 30.7637C109.842 30.3243 109.885 29.9117 109.97 29.5261C110.06 29.1404 110.197 28.7996 110.38 28.5037C110.564 28.2032 110.797 27.97 111.08 27.8041C111.367 27.6337 111.708 27.5485 112.102 27.5485C112.192 27.5485 112.295 27.5597 112.412 27.5822C112.528 27.6001 112.609 27.6203 112.654 27.6427ZM116.69 35.0955C116.183 35.0955 115.723 35.0103 115.311 34.8399C114.903 34.665 114.551 34.4206 114.255 34.1067C113.963 33.7928 113.739 33.4206 113.582 32.9901C113.425 32.5596 113.347 32.0888 113.347 31.5776V31.2951C113.347 30.7032 113.434 30.1763 113.609 29.7144C113.784 29.248 114.022 28.8534 114.322 28.5306C114.622 28.2077 114.963 27.9633 115.344 27.7974C115.726 27.6315 116.12 27.5485 116.528 27.5485C117.048 27.5485 117.497 27.6382 117.874 27.8176C118.255 27.997 118.566 28.2481 118.808 28.5709C119.051 28.8893 119.23 29.266 119.347 29.701C119.463 30.1314 119.521 30.6023 119.521 31.1135V31.6718H114.087V30.6561H118.277V30.5619C118.259 30.2391 118.192 29.9252 118.075 29.6202C117.963 29.3153 117.784 29.0642 117.537 28.8669C117.291 28.6696 116.954 28.5709 116.528 28.5709C116.246 28.5709 115.986 28.6315 115.748 28.7525C115.51 28.8691 115.306 29.044 115.136 29.2772C114.966 29.5104 114.833 29.7951 114.739 30.1314C114.645 30.4678 114.598 30.8556 114.598 31.2951V31.5776C114.598 31.9229 114.645 32.248 114.739 32.5529C114.838 32.8534 114.979 33.1179 115.163 33.3466C115.351 33.5753 115.578 33.7547 115.842 33.8847C116.111 34.0148 116.416 34.0798 116.757 34.0798C117.196 34.0798 117.569 33.9901 117.874 33.8107C118.178 33.6314 118.445 33.3915 118.674 33.091L119.427 33.6897C119.27 33.9273 119.071 34.1538 118.829 34.369C118.587 34.5843 118.288 34.7591 117.934 34.8937C117.584 35.0282 117.169 35.0955 116.69 35.0955ZM123.093 33.8376L125.084 27.6831H126.355L123.739 34.9609H122.905L123.093 33.8376ZM121.432 27.6831L123.483 33.8713L123.625 34.9609H122.79L120.154 27.6831H121.432ZM128.905 27.6831V34.9609H127.654V27.6831H128.905ZM127.559 25.7526C127.559 25.5508 127.62 25.3804 127.741 25.2414C127.867 25.1024 128.05 25.0329 128.293 25.0329C128.53 25.0329 128.712 25.1024 128.837 25.2414C128.967 25.3804 129.032 25.5508 129.032 25.7526C129.032 25.9454 128.967 26.1113 128.837 26.2503C128.712 26.3849 128.53 26.4521 128.293 26.4521C128.05 26.4521 127.867 26.3849 127.741 26.2503C127.62 26.1113 127.559 25.9454 127.559 25.7526ZM133.923 35.0955C133.416 35.0955 132.956 35.0103 132.544 34.8399C132.136 34.665 131.784 34.4206 131.488 34.1067C131.196 33.7928 130.972 33.4206 130.815 32.9901C130.658 32.5596 130.58 32.0888 130.58 31.5776V31.2951C130.58 30.7032 130.667 30.1763 130.842 29.7144C131.017 29.248 131.254 28.8534 131.555 28.5306C131.855 28.2077 132.196 27.9633 132.577 27.7974C132.958 27.6315 133.353 27.5485 133.761 27.5485C134.281 27.5485 134.73 27.6382 135.106 27.8176C135.488 27.997 135.799 28.2481 136.041 28.5709C136.283 28.8893 136.463 29.266 136.579 29.701C136.696 30.1314 136.754 30.6023 136.754 31.1135V31.6718H131.319V30.6561H135.51V30.5619C135.492 30.2391 135.425 29.9252 135.308 29.6202C135.196 29.3153 135.017 29.0642 134.77 28.8669C134.523 28.6696 134.187 28.5709 133.761 28.5709C133.479 28.5709 133.219 28.6315 132.981 28.7525C132.743 28.8691 132.539 29.044 132.369 29.2772C132.198 29.5104 132.066 29.7951 131.972 30.1314C131.878 30.4678 131.831 30.8556 131.831 31.2951V31.5776C131.831 31.9229 131.878 32.248 131.972 32.5529C132.071 32.8534 132.212 33.1179 132.396 33.3466C132.584 33.5753 132.81 33.7547 133.075 33.8847C133.344 34.0148 133.649 34.0798 133.99 34.0798C134.429 34.0798 134.801 33.9901 135.106 33.8107C135.411 33.6314 135.678 33.3915 135.907 33.091L136.66 33.6897C136.503 33.9273 136.304 34.1538 136.061 34.369C135.819 34.5843 135.521 34.7591 135.167 34.8937C134.817 35.0282 134.402 35.0955 133.923 35.0955ZM140.05 33.6695L141.92 27.6831H142.741L142.579 28.8736L140.676 34.9609H139.875L140.05 33.6695ZM138.792 27.6831L140.387 33.7367L140.501 34.9609H139.66L137.548 27.6831H138.792ZM144.53 33.6897L146.05 27.6831H147.288L145.176 34.9609H144.342L144.53 33.6897ZM142.922 27.6831L144.752 33.5686L144.96 34.9609H144.167L142.209 28.8602L142.048 27.6831H142.922ZM152.803 33.0305C152.803 32.8511 152.763 32.6852 152.682 32.5327C152.606 32.3758 152.447 32.2345 152.205 32.109C151.967 31.9789 151.608 31.8668 151.128 31.7727C150.725 31.6875 150.359 31.5866 150.032 31.47C149.709 31.3534 149.433 31.2121 149.205 31.0462C148.981 30.8803 148.808 30.6852 148.687 30.461C148.566 30.2368 148.505 29.9745 148.505 29.674C148.505 29.3871 148.568 29.1158 148.694 28.8602C148.824 28.6046 149.005 28.3781 149.238 28.1808C149.476 27.9835 149.761 27.8288 150.093 27.7167C150.424 27.6046 150.794 27.5485 151.202 27.5485C151.785 27.5485 152.283 27.6517 152.696 27.8579C153.108 28.0642 153.424 28.34 153.644 28.6853C153.864 29.0261 153.974 29.405 153.974 29.822H152.729C152.729 29.6202 152.669 29.4252 152.548 29.2368C152.431 29.044 152.258 28.8848 152.03 28.7593C151.806 28.6337 151.53 28.5709 151.202 28.5709C150.857 28.5709 150.577 28.6247 150.362 28.7324C150.151 28.8355 149.996 28.9678 149.898 29.1292C149.803 29.2906 149.756 29.461 149.756 29.6404C149.756 29.7749 149.779 29.896 149.824 30.0036C149.873 30.1068 149.958 30.2032 150.079 30.2929C150.2 30.3781 150.371 30.4588 150.59 30.535C150.81 30.6112 151.09 30.6875 151.431 30.7637C152.028 30.8982 152.519 31.0597 152.904 31.248C153.29 31.4363 153.577 31.6673 153.765 31.9408C153.954 32.2144 154.048 32.5462 154.048 32.9363C154.048 33.2547 153.98 33.5462 153.846 33.8107C153.716 34.0753 153.525 34.304 153.274 34.4968C153.028 34.6852 152.732 34.8331 152.386 34.9408C152.045 35.0439 151.662 35.0955 151.236 35.0955C150.595 35.0955 150.052 34.9811 149.608 34.7524C149.164 34.5237 148.828 34.2278 148.599 33.8645C148.371 33.5013 148.256 33.1179 148.256 32.7143H149.507C149.525 33.0551 149.624 33.3264 149.803 33.5282C149.983 33.7255 150.202 33.8668 150.463 33.952C150.723 34.0327 150.98 34.0731 151.236 34.0731C151.577 34.0731 151.862 34.0282 152.09 33.9385C152.324 33.8489 152.501 33.7255 152.622 33.5686C152.743 33.4116 152.803 33.2323 152.803 33.0305Z" fill="#181C25"/>
</svg>
