<svg width="128" height="55" viewBox="0 0 128 55" fill="none" xmlns="http://www.w3.org/2000/svg">
<path d="M49.6172 17.0349C49.6744 20.1457 50.9816 23.5321 53.6958 26.3261C56.5316 29.2455 60.0151 30.7276 64.0743 30.7364C67.9832 30.7449 71.3812 29.3625 74.1786 26.6215C77.0731 23.785 78.5429 20.2976 78.5461 16.2447C78.5492 12.3161 77.1624 8.89541 74.4089 6.09678C71.5923 3.23417 68.1392 1.77711 64.11 1.75225C56.2086 1.70382 49.5985 8.15184 49.6172 17.0348M47.8593 16.8963C47.8534 7.30268 55.1712 -0.104691 64.2183 0.00169175C68.7328 0.0546323 72.5983 1.71825 75.7382 4.96828C78.7732 8.10953 80.3077 11.9089 80.3047 16.2757C80.2987 25.3385 72.8274 32.7876 63.4779 32.4961C59.2097 32.2704 55.5282 30.6961 52.5288 27.6302C49.4349 24.4678 47.9034 20.6431 47.8593 16.8963M19.6702 44.8641C19.5666 45.6109 19.4583 46.3474 19.3639 47.0856C19.2738 47.7886 19.2007 48.4937 19.1152 49.1973C19.0689 49.5792 19.0047 49.959 18.9629 50.3412C18.8983 50.9382 18.8399 51.5359 18.7878 52.1341C18.7619 52.4273 18.8291 52.7121 18.941 52.9785C19.0733 53.2934 19.3115 53.5064 19.6523 53.5868C19.7789 53.6167 19.9068 53.6409 20.0507 53.6713V54.4809C19.9977 54.4948 19.9424 54.5218 19.8871 54.5219C18.6502 54.5243 17.4133 54.524 16.1762 54.5227C16.131 54.5227 16.0857 54.5075 16.0219 54.4961C15.9957 54.2142 15.9872 53.9436 16.0296 53.6624C16.1314 53.6424 16.2234 53.6171 16.3169 53.6072C16.7543 53.5611 17.04 53.3049 17.2328 52.9333C17.4381 52.5372 17.5766 52.1166 17.6815 51.6816C17.9525 50.5579 18.0967 49.4129 18.2724 48.2731C18.4041 47.418 18.538 46.5632 18.668 45.708C18.7077 45.4466 18.7422 45.1841 18.7703 44.9212C18.7843 44.7903 18.7887 44.6566 18.7797 44.5253C18.7504 44.0958 18.5659 43.7294 18.0099 43.5497C17.8632 43.5023 17.7032 43.4976 17.5505 43.4677C17.4835 43.4546 17.4192 43.4278 17.3527 43.407V42.6223C17.4326 42.6098 17.5002 42.5903 17.5681 42.5902C18.7449 42.5882 19.9218 42.5879 21.0987 42.5897C21.1798 42.5898 21.2609 42.6102 21.3589 42.6234C21.379 42.8138 21.4116 42.9916 21.4144 43.1699C21.4231 43.7195 21.5791 44.2371 21.7514 44.7493C21.9927 45.4674 22.299 46.1597 22.6124 46.8487C23.2144 48.172 23.7888 49.5069 24.2709 50.8798C24.3014 50.9666 24.3461 51.0486 24.3971 51.1614C24.4471 51.099 24.4837 51.0687 24.5007 51.0297C25.1608 49.5192 26.0006 48.0998 26.7277 46.6232C26.9134 46.246 27.1005 45.8691 27.2724 45.4855C27.6742 44.5883 27.9105 43.6502 27.9323 42.6724C28.0061 42.5676 28.109 42.5894 28.2018 42.5892C28.8384 42.5873 29.4749 42.5881 30.1113 42.588C30.5197 42.588 30.9279 42.587 31.3362 42.5886C31.4543 42.5891 31.5724 42.5967 31.7045 42.6016C31.7696 42.8782 31.743 43.1375 31.7247 43.4142C31.6553 43.4328 31.59 43.4561 31.5228 43.4673C31.346 43.4968 31.1616 43.4994 30.9922 43.5517C30.5433 43.6906 30.3863 43.8841 30.3208 44.3825C30.3075 44.4901 30.3071 44.599 30.3198 44.7068C30.398 45.4113 30.4812 46.1153 30.5625 46.8194C30.5887 47.0463 30.6139 47.2732 30.6396 47.5001C30.7437 48.4196 30.8443 49.3394 30.9535 50.2583C31.0146 50.771 31.0786 51.2839 31.1629 51.7932C31.2136 52.0998 31.2887 52.4022 31.4292 52.6877C31.6397 53.1162 31.9793 53.3751 32.4231 53.5132C32.5372 53.5487 32.6558 53.5708 32.7723 53.599C32.8631 53.621 32.9282 53.6751 32.9308 53.7703C32.9372 54.0079 32.9677 54.2477 32.9101 54.4663C32.8831 54.4883 32.8749 54.4968 32.8651 54.5023C32.8547 54.5081 32.8426 54.5144 32.8312 54.5144C31.1624 54.5183 29.4935 54.5218 27.8244 54.5244C27.7654 54.5245 27.706 54.5159 27.6287 54.5098C27.6117 54.4409 27.5833 54.3751 27.5813 54.3085C27.5751 54.1053 27.5791 53.9017 27.5791 53.6845C27.6728 53.6521 27.748 53.6224 27.8253 53.5999C28.009 53.5467 28.1973 53.507 28.3773 53.4434C28.749 53.3122 28.9583 53.0244 29.0542 52.6582C29.1023 52.4747 29.1178 52.2776 29.1155 52.087C29.112 51.7992 29.088 51.511 29.0588 51.2243C28.9507 50.1602 28.8349 49.0971 28.7261 48.033C28.6491 47.2801 28.5804 46.5263 28.5045 45.7732C28.4818 45.5472 28.4475 45.3224 28.4191 45.1014C28.3253 45.082 28.3097 45.145 28.2875 45.1981C28.0566 45.7522 27.8258 46.3065 27.5952 46.8607C27.2853 47.6054 26.8941 48.3095 26.5165 49.0203C26.0204 49.9541 25.5332 50.8918 25.1271 51.8699C24.8165 52.6174 24.606 53.3921 24.464 54.187C24.4512 54.2579 24.44 54.3292 24.4212 54.3983C24.4122 54.4319 24.3869 54.461 24.3698 54.4906C24.0521 54.5419 23.6 54.538 23.3155 54.4778C23.2562 54.1943 23.1907 53.9028 23.1347 53.6097C23.0258 53.0426 22.8589 52.4884 22.6364 51.9558C22.1559 50.8026 21.6449 49.6623 21.1569 48.5122C20.7115 47.462 20.2204 46.4298 19.8907 45.3333C19.8458 45.1842 19.7996 45.0355 19.7469 44.8891C19.7405 44.8714 19.6896 44.8699 19.6702 44.8641M53.1691 53.6623C53.1877 53.7085 53.2115 53.7407 53.212 53.7732C53.2152 54.0011 53.2137 54.2289 53.2137 54.4392C53.1283 54.5465 53.0268 54.5241 52.934 54.5244C52.2375 54.5259 51.5409 54.5252 50.8444 54.5253C50.1479 54.5253 49.4514 54.5258 48.7548 54.5248C48.6372 54.5246 48.5195 54.5169 48.3984 54.5127C48.3266 54.3599 48.3719 54.2145 48.3652 54.0746C48.359 53.9446 48.3707 53.814 48.3751 53.6621C48.4616 53.651 48.53 53.6462 48.5967 53.6328C48.8076 53.5906 49.025 53.5662 49.2264 53.4963C49.533 53.3897 49.7516 53.1739 49.8927 52.8747C50.0285 52.5864 50.0887 52.2819 50.1103 51.9697C50.1369 51.5863 50.1615 51.2018 50.1625 50.8176C50.1677 48.8809 50.1649 46.9443 50.1648 45.0076C50.1648 44.9354 50.1613 44.863 50.1652 44.791C50.1728 44.6497 50.119 44.5402 50.0229 44.4361C49.4969 43.8669 48.8764 43.4929 48.0809 43.4672C48.0458 43.4661 48.0108 43.4545 47.9761 43.4459C47.9651 43.4433 47.9557 43.4346 47.9252 43.4169C47.8483 43.175 47.8931 42.915 47.8983 42.6441C47.9468 42.6255 47.9894 42.5947 48.032 42.5946C49.0402 42.592 50.0484 42.5926 51.0809 42.5926C51.215 42.7331 51.3586 42.8767 51.4945 43.0273C52.1544 43.7586 52.8146 44.4898 53.4703 45.2249C54.3501 46.2108 55.2232 47.2026 56.1043 48.1874C57.0815 49.2795 58.0645 50.3665 59.0457 51.4551C59.0752 51.4879 59.1118 51.5144 59.1601 51.557C59.1819 51.5083 59.206 51.4795 59.206 51.4509C59.2057 49.5985 59.2023 47.746 59.2023 45.8937C59.2023 45.5071 59.1697 45.1269 59.0787 44.7496C58.9693 44.2961 58.6972 43.9814 58.2915 43.7756C58.055 43.6556 57.7982 43.5908 57.539 43.5386C57.3865 43.5079 57.2335 43.4798 57.0616 43.4469C56.9857 43.1791 57.0098 42.9102 57.0347 42.6367C57.1684 42.5619 57.3031 42.5896 57.4312 42.5894C58.7041 42.5871 59.9771 42.588 61.25 42.5881C61.4662 42.5881 61.6823 42.586 61.8985 42.5901C61.9671 42.5915 62.0353 42.6095 62.124 42.6229C62.1568 42.8866 62.1501 43.1345 62.1243 43.4075C62.0468 43.4279 61.97 43.4641 61.8924 43.4659C61.6372 43.4715 61.3934 43.5267 61.1522 43.6046C60.638 43.7708 60.3329 44.1267 60.2085 44.6458C60.1436 44.9148 60.1107 45.1905 60.1104 45.4671C60.1103 47.5121 60.1081 49.5571 60.1137 51.6019C60.1144 51.8286 60.1461 52.0579 60.1884 52.2813C60.2665 52.6939 60.3579 53.1042 60.4533 53.5132C60.5365 53.869 60.5571 54.2244 60.4905 54.5841C60.4757 54.6643 60.4261 54.7205 60.3474 54.7218C60.0114 54.7277 59.6754 54.7272 59.3394 54.7268C59.2174 54.7266 59.148 54.638 59.0758 54.5577C58.7706 54.218 58.465 53.8789 58.1615 53.5379C57.7542 53.0803 57.3478 52.6221 56.9421 52.1631C56.1783 51.2991 55.4162 50.4333 54.6512 49.5703C54.2208 49.085 53.7836 48.6057 53.3537 48.12C52.6533 47.3283 51.9561 46.5338 51.2585 45.7397C51.2269 45.7039 51.2035 45.6607 51.147 45.5782C51.1151 45.6775 51.092 45.7167 51.0918 45.7559C51.0908 45.9001 51.1007 46.0442 51.1008 46.1883C51.1016 47.8845 51.0994 49.5807 51.1028 51.2768C51.1036 51.6486 51.0921 52.023 51.1863 52.3886C51.2132 52.4931 51.2367 52.5991 51.2728 52.7004C51.4437 53.1827 51.7799 53.4818 52.2834 53.5724C52.5184 53.6145 52.7591 53.624 52.9974 53.6478C53.0549 53.6536 53.1126 53.6576 53.1691 53.6623M44.4346 49.3046C44.4231 49.0166 44.43 48.7262 44.3952 48.4409C44.3534 48.0957 44.2865 47.7526 44.2127 47.4124C43.999 46.4283 43.6458 45.5038 43.0386 44.6879C42.7034 44.2373 42.2963 43.8737 41.8086 43.5974C41.4737 43.4072 41.1037 43.2872 40.721 43.2447C40.3036 43.198 39.8862 43.2157 39.4746 43.3305C38.8537 43.5036 38.331 43.8228 37.9388 44.3384C37.7276 44.6162 37.558 44.919 37.4187 45.2414C37.104 45.9698 36.9916 46.7402 36.9319 47.5208C36.8767 48.2442 36.9412 48.9629 37.0871 49.6716C37.2402 50.4158 37.4686 51.1365 37.8591 51.7953C38.2001 52.3709 38.6265 52.8704 39.1865 53.2438C39.9864 53.7772 40.8742 53.8486 41.7805 53.6646C42.884 53.4406 43.59 52.7197 44.0002 51.6996C44.3079 50.9346 44.4559 50.1338 44.4346 49.3046M40.5688 42.296C42.1043 42.3133 43.3487 42.733 44.4453 43.5992C45.3995 44.3529 46.0441 45.3192 46.4195 46.4628C46.6878 47.28 46.7779 48.1244 46.6808 48.9879C46.6159 49.5634 46.5193 50.1285 46.3209 50.6735C45.7297 52.2975 44.6798 53.5106 43.0965 54.2236C42.2891 54.5871 41.4308 54.7507 40.5426 54.7376C39.4148 54.7207 38.3602 54.4365 37.405 53.8321C36.3045 53.136 35.5232 52.1717 35.069 50.9461C34.7737 50.1491 34.6429 49.3234 34.6408 48.4752C34.6394 47.942 34.7324 47.4209 34.8726 46.9115C35.1076 46.058 35.4852 45.2697 36.0334 44.5703C36.6438 43.7918 37.3861 43.1838 38.3019 42.7898C38.6793 42.6275 39.0663 42.496 39.4635 42.417C39.873 42.3358 40.2961 42.3236 40.5688 42.2959M69.7144 53.7477C69.8701 53.7373 70.0256 53.7265 70.1813 53.7164C70.596 53.6895 70.9768 53.553 71.3394 53.3579C71.971 53.0183 72.378 52.479 72.667 51.8405C73.0407 51.0146 73.1633 50.1367 73.1493 49.2406C73.1426 48.8097 73.0936 48.3778 73.0359 47.9502C72.9366 47.2108 72.7282 46.4903 72.4176 45.8121C72.1253 45.1735 71.7612 44.5829 71.2372 44.1043C70.474 43.4076 69.5786 43.1094 68.5551 43.2523C67.8003 43.3578 67.1791 43.7192 66.6906 44.312C66.1523 44.965 65.9136 45.7438 65.7685 46.5524C65.6584 47.166 65.6093 47.7919 65.6629 48.4169C65.7009 48.8586 65.7426 49.3032 65.8311 49.7367C65.9148 50.1468 66.0393 50.5522 66.1854 50.9449C66.4697 51.7088 66.8888 52.3893 67.507 52.9359C68.1387 53.4943 68.8733 53.765 69.7144 53.7478M75.4273 48.3564C75.4346 49.3811 75.2283 50.3597 74.7935 51.2885C74.5109 51.892 74.1367 52.4297 73.6769 52.9133C72.991 53.6344 72.1743 54.1429 71.2324 54.4448C70.5901 54.6506 69.9284 54.7518 69.2499 54.7365C67.8746 54.7063 66.6359 54.2909 65.5563 53.4291C64.9376 52.9354 64.46 52.3236 64.0935 51.6227C63.5153 50.5165 63.3157 49.3301 63.3892 48.0983C63.4502 47.074 63.7869 46.1266 64.3031 45.243C64.7709 44.4427 65.3748 43.7675 66.1545 43.2604C66.5981 42.9718 67.0721 42.7473 67.5778 42.5821C68.3077 42.3436 69.0543 42.2777 69.8137 42.3151C70.9453 42.3708 71.9688 42.7461 72.8941 43.3934C73.9403 44.1254 74.6598 45.1074 75.0913 46.3064C75.3298 46.9693 75.4266 47.6553 75.4273 48.3564M102.078 53.6577C102.167 53.6219 102.222 53.5996 102.276 53.5781C102.433 53.5165 102.592 53.4613 102.745 53.3927C103.31 53.1394 103.619 52.7018 103.666 52.0818C103.677 51.9381 103.684 51.7936 103.684 51.6497C103.685 49.5208 103.685 47.3921 103.684 45.2635C103.684 45.0355 103.674 44.8097 103.61 44.5857C103.478 44.1273 103.203 43.801 102.762 43.6233C102.607 43.5609 102.443 43.5216 102.284 43.4686C102.217 43.4464 102.153 43.4159 102.083 43.3872V42.642C102.148 42.6245 102.213 42.5996 102.28 42.591C102.351 42.582 102.423 42.5881 102.495 42.5881C105.353 42.5881 108.21 42.5875 111.068 42.5896C111.196 42.5897 111.331 42.5566 111.451 42.629C111.52 43.1536 111.513 45.0058 111.436 45.3404C111.232 45.3655 111.02 45.3466 110.8 45.3464C110.693 45.2443 110.643 45.1078 110.573 44.984C110.455 44.7751 110.339 44.5646 110.215 44.3596C109.942 43.9122 109.533 43.6583 109.03 43.5505C108.843 43.5104 108.651 43.4796 108.46 43.4763C107.644 43.4627 106.828 43.4603 106.011 43.4563C105.943 43.4559 105.874 43.4754 105.797 43.4869C105.784 43.545 105.766 43.5901 105.766 43.6353C105.766 44.9099 105.768 46.1845 105.77 47.4591C105.77 47.5068 105.755 47.5629 105.775 47.6005C105.8 47.6474 105.853 47.6801 105.895 47.7168C105.902 47.723 105.918 47.7192 105.93 47.719C106.65 47.6993 107.37 47.7425 108.089 47.6633C108.571 47.6101 108.925 47.3843 109.104 46.92C109.159 46.7748 109.2 46.624 109.248 46.4755C109.287 46.3513 109.294 46.2138 109.407 46.0957C109.621 46.0957 109.848 46.0927 110.075 46.0974C110.155 46.099 110.208 46.1505 110.218 46.2326C110.225 46.292 110.226 46.3525 110.226 46.4124C110.226 47.6389 110.225 48.8653 110.223 50.0917C110.223 50.1501 110.21 50.2083 110.202 50.2803C109.927 50.364 109.656 50.3252 109.375 50.3097C109.353 50.2211 109.33 50.1419 109.314 50.0615C109.282 49.9084 109.262 49.7528 109.224 49.6014C109.117 49.171 108.87 48.867 108.419 48.7763C108.185 48.7293 107.946 48.6883 107.708 48.6827C107.144 48.6691 106.579 48.6773 106.015 48.6797C105.946 48.6799 105.878 48.6978 105.8 48.7089C105.786 48.7693 105.766 48.814 105.766 48.8588C105.768 49.7848 105.772 50.7108 105.773 51.6366C105.774 51.927 105.814 52.2109 105.881 52.4927C105.968 52.8534 106.171 53.1194 106.502 53.2879C106.741 53.4088 106.99 53.5008 107.256 53.507C107.688 53.5171 108.123 53.5393 108.55 53.4976C109.316 53.423 109.939 53.0511 110.405 52.4422C110.629 52.1479 110.819 51.8231 110.995 51.4966C111.083 51.3343 111.18 51.2643 111.359 51.2749C111.572 51.2874 111.786 51.2665 111.999 51.2895C111.978 51.573 111.223 54.1715 111.069 54.499C110.942 54.5464 110.797 54.5242 110.657 54.5243C108.099 54.5257 105.542 54.5253 102.985 54.5253C102.769 54.5253 102.553 54.5266 102.336 54.5243C102.266 54.5235 102.196 54.5127 102.11 54.5052C102.044 54.225 102.096 53.9523 102.078 53.6577M87.0159 46.1246C86.9203 45.8667 86.8329 45.6184 86.7366 45.3738C86.5569 44.9129 86.2777 44.4975 85.9191 44.1573C85.49 43.7482 84.9777 43.505 84.4038 43.3737C83.5968 43.189 82.8082 43.231 82.0386 43.5429C81.3241 43.8327 80.7825 44.3312 80.3689 44.9715C79.9981 45.5453 79.7977 46.1857 79.6867 46.8556C79.5981 47.3905 79.5535 47.9293 79.5979 48.471C79.7063 49.7973 80.0307 51.0539 80.8308 52.146C81.1818 52.6249 81.6072 53.026 82.1325 53.3171C82.7298 53.6481 83.3689 53.7475 84.042 53.7216C84.4935 53.7041 84.9195 53.6087 85.3254 53.413C85.8955 53.1385 86.3228 52.7105 86.6474 52.1753C86.9173 51.7304 87.096 51.2469 87.224 50.7436C87.2388 50.686 87.2581 50.6293 87.2788 50.5734C87.2869 50.5516 87.3058 50.534 87.3301 50.4995C87.5669 50.4615 87.8162 50.4946 88.0442 50.4785C88.16 50.5604 88.1439 50.6617 88.1443 50.7548C88.1465 51.1636 88.1454 51.5724 88.1455 51.9813V53.6146C88.0426 53.6728 87.954 53.7339 87.8572 53.7761C87.1636 54.0786 86.4546 54.3438 85.7117 54.491C84.6601 54.6995 83.5981 54.7979 82.5274 54.6537C81.5286 54.5195 80.5833 54.2319 79.7529 53.6348C78.8726 53.0016 78.2284 52.1803 77.8194 51.1764C77.5036 50.4013 77.342 49.5906 77.3109 48.7558C77.301 48.4927 77.3177 48.2267 77.3457 47.9647C77.4891 46.6154 77.9637 45.3996 78.8441 44.3594C79.428 43.6696 80.1526 43.1668 80.9832 42.811C81.4021 42.631 81.84 42.4993 82.2886 42.4183C82.8417 42.3191 83.4067 42.2872 83.973 42.3022C85.2197 42.3353 86.4199 42.6072 87.6021 42.9804C87.821 43.0494 87.8541 43.0851 87.8533 43.3103C87.8503 44.1636 87.8411 45.0168 87.8351 45.8701C87.8347 45.9178 87.8444 45.9657 87.8447 46.0136C87.8457 46.1667 87.7963 46.2184 87.6598 46.2031C87.4577 46.1805 87.256 46.1542 87.0159 46.1246M100.026 51.4189H100.912C100.901 51.5012 100.902 51.5696 100.883 51.6327C100.718 52.1976 100.55 52.7615 100.383 53.3257C100.301 53.6019 100.221 53.8789 100.137 54.1545C100.102 54.2678 100.059 54.3786 100.029 54.4636C99.9922 54.4912 99.9834 54.4999 99.9728 54.505C99.9622 54.5106 99.9505 54.5139 99.9386 54.5145C96.6492 54.5182 93.3597 54.5216 90.0703 54.5247C90.0225 54.5247 89.9742 54.5217 89.927 54.5155C89.9048 54.5126 89.8841 54.4981 89.8375 54.4781C89.8016 54.2209 89.818 53.9511 89.8279 53.6682C89.9038 53.6457 89.9693 53.6208 90.0371 53.6075C90.237 53.5684 90.4423 53.55 90.6373 53.4945C91.0801 53.3688 91.4601 53.1465 91.6361 52.6912C91.7046 52.5141 91.7442 52.3215 91.7678 52.1322C91.8002 51.8706 91.8188 51.6056 91.8194 51.3419C91.8234 49.4178 91.8214 47.4936 91.8217 45.5693C91.8217 45.2559 91.7889 44.9475 91.7166 44.6411C91.6015 44.1531 91.2965 43.842 90.8406 43.6686C90.5823 43.5704 90.3148 43.5034 90.0384 43.4767C89.9681 43.47 89.899 43.4531 89.8212 43.4392C89.7388 43.1616 89.7801 42.8934 89.7911 42.6169C89.8938 42.6048 89.9638 42.591 90.034 42.5892C91.4221 42.5533 95.5676 42.5733 95.9 42.6164C95.9748 42.8541 95.979 43.1111 95.9082 43.4406C95.8358 43.4497 95.7558 43.4665 95.6754 43.4681C95.3835 43.4742 95.1026 43.5405 94.8341 43.6445C94.3786 43.8207 94.0815 44.142 93.9738 44.6311C93.9035 44.9481 93.8679 45.2718 93.8674 45.5966C93.8666 47.4848 93.8659 49.3729 93.8679 51.261C93.8684 51.6221 93.9042 51.9808 93.9833 52.3342C94.1184 52.9372 94.4992 53.2917 95.0896 53.4347C95.4303 53.5172 95.7781 53.5309 96.1256 53.5317C96.5578 53.5328 96.9897 53.5221 97.4215 53.5134C98.0424 53.5009 98.5716 53.2673 98.98 52.8032C99.2647 52.4795 99.5134 52.1237 99.7751 51.7799C99.862 51.6658 99.9393 51.5443 100.026 51.4189" fill="#40615A"/>
<path d="M64.0832 16.7229C64.0183 16.7644 63.9835 16.7788 63.9589 16.8034C63.2122 17.5504 62.4597 18.2921 61.723 19.0493C61.3426 19.4387 61.0757 19.9248 60.9513 20.4551C60.7007 21.5112 60.89 22.4831 61.5775 23.3367C62.4842 24.4627 64.0703 24.8541 65.4134 24.24C66.514 23.7367 67.4574 22.5242 67.2866 20.9298C67.2065 20.1817 66.9097 19.5416 66.3943 19.0091C65.7014 18.2932 64.9893 17.596 64.2842 16.892C64.2264 16.8343 64.1589 16.7861 64.0831 16.7229M64.0582 14.204C64.2674 14.0659 64.3959 13.906 64.5389 13.7636C66.0372 12.2704 67.5343 10.7761 69.0303 9.28059C69.4465 8.86448 69.8563 8.44197 70.2711 8.02426C70.7367 7.55513 71.2038 7.08755 71.6724 6.62153C71.7573 6.53711 71.8509 6.4607 71.9448 6.3859C72.4954 5.94734 73.2479 6.3849 73.2981 6.98148C73.3011 7.01748 73.3055 7.05348 73.3054 7.08947C73.3044 7.77469 73.3027 8.45981 73.3012 9.14493C73.3004 9.50559 73.2989 9.86604 73.2989 10.2266V24.8439C73.2989 25.0123 73.2906 25.1811 73.3012 25.3489C73.3257 25.7365 72.9036 26.1145 72.5608 26.1613C72.1911 26.2118 71.7742 25.967 71.6393 25.6086C71.6145 25.5427 71.6041 25.469 71.5997 25.3981C71.5931 25.2903 71.5974 25.1817 71.5974 25.0734V9.3228C71.5116 9.25242 71.469 9.28972 71.4239 9.33474C69.4691 11.2895 67.5136 13.2438 65.5589 15.1987C65.4838 15.2739 65.4147 15.3553 65.3278 15.4504C65.4059 15.5395 65.4711 15.623 65.5455 15.697C66.1758 16.3245 66.8105 16.9474 67.4381 17.5774C67.7521 17.8927 68.0472 18.2263 68.2863 18.6035C68.6377 19.1578 68.8783 19.7576 68.9853 20.407C69.0244 20.6436 69.0684 20.8829 69.0705 21.1213C69.0828 22.5034 68.6474 23.7202 67.6888 24.7282C66.9098 25.5472 65.9592 26.0513 64.8384 26.2168C63.5625 26.4051 62.3753 26.1574 61.3059 25.4315C60.4511 24.8512 59.8161 24.0876 59.4455 23.106C59.2305 22.5362 59.1152 21.9511 59.0815 21.3502C59.0595 20.9536 59.1403 20.5601 59.2234 20.1721C59.4422 19.1508 59.9819 18.312 60.7104 17.5841C61.3399 16.9558 61.9713 16.3294 62.6046 15.7049C62.6727 15.6377 62.756 15.586 62.8404 15.5209C62.7779 15.4226 62.7454 15.3623 62.7038 15.3091C62.667 15.262 62.6202 15.2229 62.5777 15.1805C60.7689 13.3684 58.9598 11.5565 57.1511 9.74432C56.9876 9.58024 56.8186 9.42183 56.6444 9.26936C56.552 9.29884 56.5709 9.35329 56.5713 9.3979C56.5723 9.53016 56.5781 9.66231 56.5783 9.79456C56.5786 14.8472 56.5787 19.8999 56.5778 24.9525C56.5778 25.1085 56.5564 25.2649 56.5626 25.4205C56.5751 25.7298 56.1573 26.1203 55.8277 26.1614C55.4737 26.2058 55.0657 25.9835 54.9194 25.6426C54.8871 25.5676 54.8748 25.4811 54.8681 25.3987C54.8594 25.2911 54.8651 25.1823 54.8651 25.074C54.8649 19.1429 54.8649 13.2117 54.8649 7.28058C54.8649 7.19636 54.8656 7.11213 54.8652 7.02791C54.8638 6.69031 55.0382 6.45198 55.3204 6.30539C55.6026 6.1588 55.902 6.15559 56.1735 6.3458C56.3102 6.44155 56.4355 6.55676 56.5541 6.67507C57.6769 7.79605 58.7973 8.91983 59.9184 10.0427C61.1241 11.2506 62.3302 12.4581 63.5356 13.6667C63.7042 13.8358 63.8687 14.0089 64.0582 14.2039" fill="#40615A"/>
</svg>
