<svg width="76" height="76" viewBox="0 0 76 76" fill="none" xmlns="http://www.w3.org/2000/svg">
<path d="M28.2161 20.9894V15.4077L26.3827 16.1411C26.3827 16.1411 25.9345 17.0781 26.016 18.4634C26.0567 19.5634 26.7086 20.8265 27.1975 21.3969L28.2161 20.9894ZM33.1459 9.5C33.5534 9.54074 34.246 9.74446 34.7349 10.1519C35.2646 10.6408 35.3868 11.4149 35.2238 12.1075C35.0608 12.7187 34.8571 13.0446 34.2052 13.4928C33.5534 13.941 33.0645 13.9817 33.0645 13.9817V16.6707L34.3275 17.6485L33.0645 18.7893V22.4562C33.0645 22.4562 34.1238 21.6006 34.9386 19.9301C34.9386 19.9301 34.9794 19.8486 35.0608 19.6449C35.1423 20.0931 35.1016 21.0302 34.5719 22.171C34.1645 23.0673 33.4719 23.8822 32.5348 24.3711C30.9458 25.2267 29.7236 25.3082 28.4605 25.0637C26.953 24.7785 25.5678 23.9637 24.6715 22.5377C24.0196 21.5191 23.7344 20.3783 23.7344 19.1153C23.7751 16.63 25.69 14.5114 27.8901 13.6965C28.1753 13.615 28.2568 13.5335 28.6235 13.4928C28.4605 13.615 28.2568 13.7372 28.0124 13.9002C27.3197 14.3484 26.7086 15.2447 26.4234 15.9373L30.6606 14.1039V19.8486L27.279 21.5191C27.6864 22.0488 28.868 22.8229 29.8865 22.9451C31.5977 23.1488 32.7385 22.4969 32.7385 22.4969V18.7486L31.4755 17.6485L32.7385 16.6707V13.9817C32.0051 13.9002 30.9866 13.5743 30.4977 13.452C29.7236 13.2891 27.1975 12.5964 26.7901 12.515C26.3827 12.4742 25.8937 12.4742 25.6085 12.7187C25.3233 12.9631 25.1196 13.452 25.2419 13.8595C25.3233 14.1039 25.4863 14.2262 25.6085 14.3484C25.6085 14.3484 25.4456 14.3484 25.2011 14.1854C24.7122 13.9002 24.3455 13.3706 24.3048 12.6779C24.281 12.2516 24.3657 11.8261 24.5509 11.4414C24.7362 11.0566 25.0159 10.7251 25.3641 10.4778C26.016 10.0704 26.7493 9.82594 27.6049 9.94817C28.868 10.1111 30.5384 10.8038 32.0459 11.1705C32.6163 11.2927 33.0645 11.3334 33.4719 11.1297C33.6756 11.0075 34.0015 10.6408 33.7163 10.1926C33.3904 9.66297 32.7793 9.66297 32.2496 9.58149C32.7385 9.5 32.82 9.5 33.1459 9.5" fill="#40615A"/>
<path d="M49.7279 19.5213L47.7722 20.9066V16.3434L49.7279 19.5213ZM49.6464 15.1211L47.487 16.3841L45.4499 17.4434V22.74L44.6758 23.3511L44.798 23.4733L45.5721 22.8622L47.9759 24.9401L52.1317 21.7622L52.0502 21.6399L49.7279 23.3919L47.7722 21.7214V21.0695L51.5613 18.3805L49.6464 15.1211Z" fill="#40615A"/>
<path d="M38.7271 27.0187C39.2567 27.1409 40.2346 27.2224 41.4161 26.652C42.7199 26.0409 43.2088 24.6964 43.2088 23.3518L43.2495 21.4369V17.1997L44.0644 16.5886L43.9829 16.4663L43.168 17.0775L41.4161 15.0403L38.7271 17.0367V10.2734L35.9973 12.5143C36.1195 12.5958 36.7307 12.6773 36.7307 13.2477V22.7407L35.3047 23.637L35.3862 23.7593L35.9973 23.3111L37.7085 24.8593L40.3975 22.7814L40.316 22.6592L39.6642 23.1481L38.7678 22.537V17.2404L39.8271 16.5886L41.2939 18.096V22.6592C41.2939 23.8815 40.9679 25.3075 40.316 26.0409C39.6642 26.7742 39.4197 26.815 38.7271 27.0187" fill="#40615A"/>
<path d="M51.0694 60.5408L48.91 61.9261V57.3629L51.0694 60.5408ZM51.0287 56.1406L48.8286 57.4036L46.8322 58.463V63.7595L45.9766 64.3707L46.0988 64.4929L46.8729 63.8817L49.2767 65.9596L53.4325 62.7817L53.351 62.6595L51.0287 64.4114L49.1138 62.7002V62.0483L52.9028 59.3593L51.0287 56.1406Z" fill="#40615A"/>
<path d="M44.1198 65.9581L46.6462 63.7181L46.5243 63.5962L45.9148 64.1265L44.8558 63.1482V58.1777L45.8737 57.4844L45.7929 57.3625L44.8558 58.0558L43.1446 56.1815L40.7004 58.0558L38.9481 56.2638L36.5862 58.0558L34.8339 56.2638L32.3075 58.3971L32.3882 58.519L33.2035 57.8668L34.3463 59.1316V63.5322L33.7764 64.0198L35.6095 66.0007L37.4837 64.2088L36.7097 63.4347V58.1381L37.1577 57.7724L38.3386 59.2397V63.5977L37.9729 64.0854L39.6841 65.9185L41.5172 64.1661L40.7858 63.4728V58.1762L41.316 57.7693L42.8398 59.1956V63.5536L42.2303 63.9604L44.1198 65.9581ZM28.9643 64.0031L28.2329 64.6126L28.3137 64.7345L29.0877 64.0823L30.7578 65.9566L33.1623 63.8781L33.0816 63.7562L32.3501 64.3657L31.3719 63.2656V58.3392L32.2252 57.6459L32.1033 57.524L31.2881 58.2173L29.5357 56.2364L26.9453 58.2737L27.2714 58.3544L27.9236 57.8242L28.9826 59.0051L28.9643 64.0031ZM31.1067 54.062L29.2736 55.6513L27.8062 54.1031L29.6439 52.4727L31.1067 54.062Z" fill="#40615A"/>
<path d="M19.6592 62.009V56.4272L17.948 57.1606C17.948 57.1606 17.4998 58.0977 17.5813 59.4829C17.622 60.583 18.2739 61.846 18.7628 62.4164L19.6592 62.009ZM24.5483 50.5195C24.9965 50.5603 25.6483 50.764 26.1373 51.1714C26.6669 51.6603 26.7891 52.4344 26.6262 53.1271C26.4632 53.7382 26.2595 54.0641 25.6076 54.5123C24.9557 54.9605 24.4668 54.9197 24.4668 54.9197V57.6088L25.6891 58.6681L24.4668 59.7274V63.3535C24.4668 63.3535 25.4854 62.6201 26.341 60.9497C26.341 60.9497 26.3817 60.8682 26.4632 60.6645C26.5447 61.1126 26.5039 62.0497 25.9743 63.1905C25.5669 64.0869 24.8742 64.9017 23.9371 65.3906C22.3482 66.2462 21.1259 66.3277 19.8629 66.0833C18.3554 65.7981 16.9701 64.9832 16.0738 63.5572C15.4219 62.5386 15.1367 61.3978 15.1367 60.1348C15.1775 57.6495 17.0924 55.5309 19.2925 54.716C19.5369 54.6345 19.6592 54.5531 20.0258 54.5123C19.8629 54.6345 19.6592 54.7568 19.4147 54.9197C18.7221 55.3679 18.1109 56.2643 17.8257 56.9569L22.0222 55.2049V60.9497L18.6813 62.5386C19.0888 63.0683 20.2703 63.8424 21.2889 63.9646C23.0001 64.1683 24.1001 63.435 24.1001 63.435V59.6866L22.8778 58.6273L24.1001 57.568V54.879C23.3667 54.7975 22.4297 54.5531 21.9 54.4308C21.1259 54.2679 18.5999 53.5752 18.1924 53.4937C17.785 53.453 17.2961 53.453 17.0109 53.6975C16.7257 53.9419 16.522 54.4308 16.6442 54.8383C16.7257 55.0827 16.8887 55.2049 17.0109 55.3272C17.0109 55.3272 16.8479 55.3272 16.6035 55.1642C16.1145 54.879 15.7479 54.3493 15.7071 53.6567C15.6833 53.2304 15.768 52.8049 15.9533 52.4202C16.1385 52.0354 16.4183 51.7039 16.7664 51.4566C17.4183 51.0492 18.1517 50.8047 19.0073 50.927C20.2703 51.0899 21.9408 51.7826 23.4482 52.1492C24.0186 52.2715 24.4668 52.3122 24.8742 52.1085C25.0779 51.9863 25.4039 51.6196 25.1187 51.1714C24.7927 50.6418 24.1816 50.6418 23.6519 50.5603C24.1001 50.5195 24.2223 50.5195 24.5483 50.5195" fill="#40615A"/>
<path d="M56.2445 57.2V59.8483L57.3853 60.6224C57.3853 60.6224 59.341 59.0742 60.0743 57.6889C60.0743 57.6889 59.178 58.8705 57.9965 58.5038C56.9779 58.2186 56.489 57.2408 56.489 57.2408M54.2481 64.167C54.2481 64.167 55.1037 62.7818 56.6112 63.067C58.0372 63.3522 58.6891 64.8189 58.6891 64.8189V61.478L57.5076 60.6632C56.4482 61.7225 54.4926 63.2299 54.2481 64.167M55.6741 66.6931C55.3889 66.7746 54.2074 66.4894 53.9222 65.2671C53.637 64.0855 54.4926 63.3114 55.7556 62.0484L54.2481 60.7039V58.1778C54.2481 58.1778 55.3482 57.6482 56.2038 57.1185L57.9557 56.0185C57.9557 56.0185 58.6076 56.7926 59.341 56.7519C60.4818 56.6704 60.441 55.774 60.4003 55.5703C60.604 55.8963 61.1337 56.9148 59.0965 59.1557L60.7262 60.4187V63.7189C60.7262 63.7189 58.8521 64.6559 57.0186 65.9597C57.0186 65.9597 56.0001 64.7374 55.1445 65.3078C54.5741 65.756 54.8593 66.4079 55.6741 66.6931" fill="#40615A"/>
<path d="M4.15223 45.1983C3.09292 45.0761 2.64475 44.465 2.64475 43.9353C2.64475 43.6094 2.97069 42.9982 3.62257 42.9167C4.27446 42.8353 4.92634 43.1205 5.49674 43.7723L7.98204 41.1241L7.85981 41.0018L7.20793 41.7352C6.5153 41.0018 5.70045 40.5129 4.72262 40.3907V32.2829L11.0377 43.6501C11.0377 43.6501 11.2007 43.7723 11.4859 43.7723C11.7304 43.7723 11.6489 43.6094 11.6489 43.6094V32.1607C12.1785 32.1607 12.8712 31.8755 13.2786 31.468C14.5009 30.2458 14.012 28.9013 13.8897 28.7383C13.8082 29.3087 13.3601 29.9198 12.586 29.9198C11.5674 29.9198 10.9563 29.1865 10.9563 29.1865L8.38947 31.957L8.5117 32.0792L9.20432 31.3051C10.0599 32.0792 10.5488 32.1607 11.2007 32.2014V38.8425L6.59679 30.4087C6.14862 29.7161 5.49674 29.105 4.47817 29.105C3.29663 29.105 2.44103 30.1235 2.3188 30.9791C2.19658 31.957 2.3188 32.2014 2.3188 32.2014C2.3188 32.2014 2.48177 31.1014 3.1744 31.1014C3.78554 31.1014 3.98926 31.4273 4.27445 31.8347V34.5237C3.62257 34.5645 2.07435 34.646 1.95212 36.3572C1.95212 37.009 2.35955 37.6609 2.72623 37.8646C3.1744 38.1498 3.54108 38.1498 3.54108 38.1498C3.54108 38.1498 3.01143 37.8646 3.1744 37.2942C3.33737 36.8053 4.27445 36.7239 4.3152 36.9276V40.35C3.78554 40.35 2.27806 40.3907 1.50395 41.7759C1.05578 42.5908 1.09652 43.5279 1.54469 44.1798C1.95212 44.7502 2.76697 45.4428 4.15223 45.1983" fill="#40615A"/>
<path d="M17.8417 38.1893L15.7231 39.5745V35.0113L17.8417 38.1893ZM17.7602 33.7891L15.5601 35.0521L13.6452 36.1114V41.4079L12.8711 42.0191L12.9933 42.1413L13.7674 41.5302L16.0083 43.6081L20.164 40.4301L20.0826 40.3079L17.7602 42.0598L15.8861 40.3486V39.6968L19.6751 37.0077L17.7602 33.7891Z" fill="#40615A"/>
<path d="M23.627 43.7334L21.5898 42.1036L20.6935 42.7148L20.612 42.5926L21.5083 41.9407V37.3367C21.5491 35.4626 19.7157 35.9108 19.8379 33.9144C19.8786 33.018 20.775 32.3661 21.2231 32.1624C21.712 31.918 22.201 31.918 22.201 31.918C22.201 31.918 21.3454 32.4069 21.5491 33.1402C21.875 34.281 23.8307 34.3625 23.8714 35.87V41.0851L25.1344 42.2259L25.5011 41.9407V36.2774L24.9307 35.5033L26.9679 33.7514L28.842 35.3404L27.9864 36.0737V41.0851L29.8606 42.4703L30.1865 42.2666V36.2774L29.4124 35.5441L31.4496 33.7514L33.3645 35.2589L34.1386 34.607L34.2201 34.7292L32.5089 36.196V41.0851L28.1494 43.6926L25.9085 42.0222L23.627 43.7334Z" fill="#40615A"/>
<path d="M51.9848 40.5948L54.1034 42.4282V36.8057L51.9848 34.9315V40.5948ZM56.5072 35.9908L57.2406 35.339L57.3628 35.4612L56.4665 36.1131V41.3689L54.3479 42.5912L52.3922 43.732L49.9069 41.6948L49.255 42.2652L49.1328 42.143L49.9884 41.5726V35.8686H49.8662L52.0255 34.8093L53.8997 33.75L56.5072 35.9908Z" fill="#40615A"/>
<path d="M61.4336 35.4595L63.0226 33.8705C63.0226 33.8705 63.2263 34.0743 63.43 34.1557C63.5523 34.1965 64.0412 34.4409 64.4486 34.1965C64.6931 34.0743 64.7338 34.0335 64.9783 33.7891C65.019 35.0113 64.4079 35.8669 63.6745 36.2336C63.3486 36.3966 62.2892 36.6411 61.3114 35.541V41.2042L62.493 42.0598L63.3486 41.4079L63.43 41.5302L60.8225 43.6488L58.8261 41.8969L58.0927 42.5487L57.9705 42.4265L58.8669 41.4894V36.6411L58.215 35.5817L57.4816 36.1929L57.3594 36.0707L59.8854 33.8705L61.4336 35.4595Z" fill="#40615A"/>
<path d="M68.1172 37.822L71.0507 33.707C71.0507 33.707 71.4581 34.1552 72.11 34.3182C73.0063 34.5626 73.8212 33.707 73.8212 33.707C73.6582 34.8071 73.0878 36.0701 71.9063 36.2738C70.8469 36.4368 69.8691 35.6627 69.8691 35.6627L69.6654 35.9479L73.7397 41.8963L74.5545 41.2037L74.6768 41.3259L71.8655 43.689L68.1172 37.822Z" fill="#40615A"/>
<path d="M65.8367 32.2829C65.8367 31.3866 65.307 30.8569 64.8181 30.8976L67.8738 28.7383V41.0426L68.8517 41.8982L69.5035 41.3685L69.6258 41.4907L67.059 43.6501L65.307 42.0611L64.6144 42.6723L64.4922 42.5501L65.8774 41.5315V32.2829H65.8367Z" fill="#40615A"/>
<path d="M45.1401 35.7465C45.1401 35.7465 44.7734 36.1539 44.2437 36.1539C43.6733 36.1539 43.4289 35.7465 43.4289 35.7465V37.4169C43.4289 37.4169 43.6733 37.0095 44.2437 37.0095C44.8141 37.0095 45.1401 37.3762 45.1401 37.3762V35.7465ZM45.0586 32.1611L44.04 31.1018L43.4289 31.55V35.502C43.4289 35.502 43.7956 35.9502 44.366 35.9502C44.9364 35.9502 45.0586 35.502 45.0586 35.502V32.1611ZM43.4289 43.3246C43.4289 43.3246 44.1622 43.5283 44.7326 43.0802C45.3438 42.5913 45.0586 41.9394 45.0586 41.9394V37.7021C45.0586 37.7021 44.8956 37.254 44.366 37.254C43.7956 37.254 43.4289 37.7021 43.4289 37.7021V43.3246ZM38.9472 32.0796C38.9472 31.2648 38.5805 30.7759 38.0508 30.7759C37.236 30.7759 37.0323 31.8759 37.0323 31.8759C37.0323 31.8759 36.8693 31.0203 37.6434 30.2462C38.0508 29.7981 38.8249 29.1869 40.0472 29.4721C41.3103 29.7573 41.7992 30.6944 41.7992 31.55V42.9987C42.0142 43.0509 42.2318 43.0917 42.4511 43.1209C42.8177 43.2024 43.0214 43.2839 43.0214 43.2839V29.5129H43.4289V31.387L45.9142 29.3906L47.7883 31.0203L48.6847 30.287L48.7662 30.4092L47.8698 31.1833V41.8172C47.8291 42.5098 47.7069 43.2024 47.0142 43.6098C45.5068 44.4654 43.6733 43.4876 42.0436 43.2431C40.8213 43.0802 38.9472 42.8357 38.4583 43.9358C38.2953 44.3025 38.2953 44.8321 38.8657 45.1988C39.9657 45.8914 44.8549 44.0173 46.5253 44.7506C48.0328 45.4433 48.0328 46.5433 47.8291 47.2767C47.4217 48.6619 45.5882 48.9471 45.5882 48.9471C45.5882 48.9471 46.4846 48.4582 46.2401 47.6026C46.1179 47.1952 45.8327 47.073 44.8549 47.1544C42.777 47.3989 40.2509 48.3767 38.5805 47.6841C37.7249 47.3174 37.1138 46.2988 37.1545 45.2395C37.1952 43.7728 38.9879 43.1617 38.9879 43.1617V37.6614C38.9472 37.4577 38.0101 37.4984 37.7656 37.9059C37.4397 38.517 38.1731 38.8022 38.1731 38.8022C38.1731 38.8022 37.6027 38.8837 37.1138 38.354C36.8693 38.1096 36.3804 37.1725 37.0323 36.2761C37.5619 35.5428 38.2138 35.4205 39.0287 35.3391L38.9472 32.0796Z" fill="#40615A"/>
</svg>
