<svg width="66" height="66" viewBox="0 0 66 66" fill="none" xmlns="http://www.w3.org/2000/svg">
<path d="M60.2592 2.13825C62.2468 2.13825 63.8634 3.75494 63.8634 5.74247V60.2585C63.8634 62.2461 62.2468 63.8628 60.2592 63.8628H5.74247C3.75494 63.8628 2.13825 62.2461 2.13825 60.2585V5.74179C2.13825 3.75426 3.75494 2.13757 5.74247 2.13757H60.2592M60.2592 1H5.74247C3.12355 1 1 3.12288 1 5.74247V60.2585C1 62.8775 3.12288 65.001 5.74247 65.001H60.2592C62.8781 65.001 65.0017 62.8781 65.0017 60.2585V5.74179C65.001 3.12288 62.8781 1 60.2592 1Z" fill="#181C25"/>
<path d="M60.2592 2.13825C62.2468 2.13825 63.8634 3.75494 63.8634 5.74247V60.2585C63.8634 62.2461 62.2468 63.8628 60.2592 63.8628H5.74247C3.75494 63.8628 2.13825 62.2461 2.13825 60.2585V5.74179C2.13825 3.75426 3.75494 2.13757 5.74247 2.13757H60.2592M60.2592 1H5.74247C3.12355 1 1 3.12288 1 5.74247V60.2585C1 62.8775 3.12288 65.001 5.74247 65.001H60.2592C62.8781 65.001 65.0017 62.8781 65.0017 60.2585V5.74179C65.001 3.12288 62.8781 1 60.2592 1Z" stroke="#181C25" stroke-width="0.290909"/>
<path d="M12.3805 47.2447L8.9658 38.3594H7.63672L11.6612 49.0374V58.341H13.127V49.0374L17.125 38.3594H15.7953L12.3805 47.2447Z" fill="#181C25" stroke="#181C25" stroke-width="0.290909"/>
<path d="M25.5547 38.3594H24.0098L19.4805 58.341H20.999L21.985 54.0519L22.3044 52.5868L22.5325 51.5358H27.0313L27.2594 52.5868L27.5788 54.0519L28.5648 58.341H30.0834L25.5547 38.3594ZM22.8512 50.0701L24.7819 41.184L26.7126 50.0701H22.8512Z" fill="#181C25" stroke="#181C25" stroke-width="0.290909"/>
<path d="M57.0804 39.7115C56.2277 38.8101 55.1003 38.3594 53.6968 38.3594H49.3008V58.341H53.6968C55.0996 58.341 56.2277 57.8882 57.0804 56.9821C57.9331 56.0766 58.3594 54.8863 58.3594 53.4124V43.2886C58.3587 41.8052 57.9324 40.6129 57.0804 39.7115ZM56.8936 53.4124C56.8936 54.4512 56.6006 55.2883 56.0145 55.9237C55.4285 56.5585 54.6557 56.8759 53.6968 56.8759H50.7659V39.8245H53.6968C54.6557 39.8245 55.4285 40.1419 56.0145 40.7766C56.6006 41.4114 56.8936 42.2485 56.8936 43.2879V53.4124V53.4124Z" fill="#181C25" stroke="#181C25" stroke-width="0.290909"/>
<path d="M42.3867 48.8621C43.0743 48.1299 43.4471 47.1825 43.5087 46.0199C43.5094 46.0104 43.5101 46.0016 43.5101 45.9921C43.5155 45.8866 43.5189 45.7803 43.5189 45.6714V45.6673V43.6581V42.7554C43.5189 41.4324 43.1413 40.3686 42.3867 39.5646C41.6315 38.7607 40.6326 38.3594 39.3895 38.3594H34.4609V43.6581V50.0673V58.341H35.926V50.0673H38.4563L42.786 58.341H44.2511L39.9079 50.0416C40.9135 49.9428 41.7404 49.5503 42.3867 48.8621ZM35.926 43.6581V39.8252H39.3895C40.1887 39.8252 40.8323 40.0938 41.3209 40.6311C41.8095 41.1684 42.0538 41.877 42.0538 42.756V43.6588V45.668C42.0538 46.547 41.8095 47.2556 41.3209 47.7929C40.8323 48.3302 40.1887 48.5989 39.3895 48.5989H35.926V43.6581Z" fill="#181C25" stroke="#181C25" stroke-width="0.290909"/>
<path d="M26.3195 34.3208V27.6422H25.0703V26.6738H28.5372V27.6422H27.2879V34.3208H26.3195Z" fill="#181C25" stroke="#181C25" stroke-width="0.290909"/>
<path d="M31.0781 34.3208V26.6738H32.0465V30.5487H33.6273V26.6738H34.5957V34.3215H33.6273V31.5171H32.0465V34.3215H31.0781V34.3208Z" fill="#181C25" stroke="#181C25" stroke-width="0.290909"/>
<path d="M40.9259 26.6738V27.6422H38.7848V29.9363H40.6512V30.9047H38.7848V33.3517H40.9259V34.3201H37.8164V26.6738H40.9259Z" fill="#181C25" stroke="#181C25" stroke-width="0.290909"/>
<path d="M36.19 7.64062H29.8031C29.5236 7.64062 29.2969 7.86733 29.2969 8.14681V14.5337C29.2969 14.8132 29.5236 15.0399 29.8031 15.0399H33.3295L33.6157 14.2806H30.0562V8.39991H35.9369V14.2806H34.3547L34.0684 15.0399H36.19C36.4695 15.0399 36.6962 14.8132 36.6962 14.5337V8.14681C36.6962 7.86665 36.4695 7.64062 36.19 7.64062Z" fill="#181C25" stroke="#181C25" stroke-width="0.290909"/>
<path d="M32.5913 17.9793V14.9848L31.3516 11.6973H32.0655L32.9669 14.0029L33.8676 11.6973H34.5809L33.3499 14.9848V17.9793H32.5913Z" fill="#181C25" stroke="#181C25" stroke-width="0.290909"/>
</svg>
