<svg width="160" height="42" viewBox="0 0 160 42" fill="none" xmlns="http://www.w3.org/2000/svg">
<path d="M45.0821 22.3972L47.313 21.2447V3.72712H45.6235L41.4997 9.18682H41.035L41.2949 3.04609H59.1714L59.4312 9.19193H58.9359L54.899 3.73223H53.1622V21.2L55.4059 22.3831V22.9773H45.0796V22.3972M61.1744 21.6254V2.20407L59.4376 1.51027V1.15251L65.7092 0H66.3952V9.1996L66.5424 9.05266C68.0424 7.78005 69.9431 7.07475 71.9116 7.06325C74.6544 7.06325 75.8793 8.60929 75.8793 11.4918V21.6012L77.3461 22.3985V22.953H69.1547V22.3985L70.6266 21.5973V11.4573C70.6266 9.87296 69.9316 9.23921 68.6338 9.23921C67.8504 9.2226 67.0851 9.47431 66.463 9.95473V21.628L67.9093 22.4253V22.9543H59.7141V22.4253L61.1988 21.6024M81.7989 15.6406C81.9679 18.8349 83.409 21.3303 86.8213 21.3303C88.4724 21.3303 89.6422 20.5675 90.7276 19.9887V20.6212C89.9981 21.5091 89.0778 22.2218 88.0349 22.7064C86.992 23.191 85.8533 23.4351 84.703 23.4206C79.417 23.4206 76.7164 20.487 76.7164 15.4093C76.7164 10.4441 79.673 7.34946 84.447 7.34946C88.9267 7.34946 91.269 9.5893 91.269 15.4962V15.6495L81.7976 15.6457M81.7106 14.9046L86.372 14.6235C86.372 10.6626 85.6911 8.01132 84.3242 8.01132C82.8651 8.01515 81.7106 11.0779 81.7106 14.911V14.9072M16 30.7471C16 22.3141 21.5996 19.2949 27.8366 19.2949C30.486 19.2949 32.9818 19.7293 34.377 20.2953L34.4985 26.1882H33.9034L30.2428 20.4857C29.5069 20.1918 28.7159 20.0641 27.9262 20.1126C24.6112 20.1126 22.9128 23.9394 22.9691 30.2092C23.0293 37.7094 24.3361 41.1209 27.3797 41.1209C28.003 41.1414 28.6238 41.0379 29.2074 40.8181V32.7838L27.1979 31.6441V30.9592H36.9035V31.6786L34.9248 32.7838V40.7133C32.5697 41.5464 30.0867 41.9655 27.5909 41.9566C20.5027 41.9566 16.0013 38.6766 16.0013 30.7471M36.0024 26.8079V26.3185L42.5133 25.1686L43.2301 25.2286V38.0723C43.2301 39.6183 43.9763 40.0962 45.2268 40.0962C45.6326 40.1023 46.0344 40.0156 46.4015 39.8429C46.7687 39.6701 47.0914 39.4159 47.345 39.0996V27.5771L45.557 26.8015V26.2993L52.0679 25.1494L52.7232 25.2095V39.9416L54.4805 40.6788V41.1465L48.0938 41.9131L47.4384 41.8531V39.916H47.2593C45.9486 41.1938 44.1875 41.9284 42.3674 41.9693C39.2381 41.9693 37.8058 40.123 37.8058 37.3235V27.5617L36.0012 26.79M76.9199 25.1264L77.4575 25.1865V29.9524H77.6046C78.3035 26.4859 79.8406 25.1865 81.7196 25.1865C81.9925 25.1737 82.2652 25.215 82.5221 25.3078V30.1351C82.0813 30.042 81.6309 30.0025 81.1807 30.0175C79.9597 29.9856 78.7463 30.2271 77.6302 30.7241V40.123L79.1149 40.9459V41.5911H70.6522V40.9497L72.1881 40.1217V27.3113L70.4 26.7785V26.3441L76.9327 25.143M93.3091 25.5417V20.5279L91.5211 19.9044V19.5083L98.1101 18.2995L98.7347 18.389V39.9211L100.552 40.5792V41.1337L94.0413 42L93.5331 41.9399V40.1741H93.3859C92.8298 40.7628 92.1562 41.2286 91.4087 41.5413C90.6611 41.854 89.8561 42.0068 89.0458 41.9898C85.4953 41.9898 82.9022 39.281 82.9022 33.7561C82.9022 27.9195 85.9151 25.051 90.4767 25.051C91.4452 25.0018 92.4124 25.1708 93.3066 25.5455M93.3066 39.3385V26.4463C93.0595 26.237 92.7727 26.0796 92.4632 25.9837C92.1538 25.8877 91.8281 25.8552 91.5057 25.8879C89.7433 25.948 88.6541 28.6044 88.6541 33.3409C88.6541 37.5957 89.4221 39.9799 91.7835 39.8956C92.342 39.8988 92.8829 39.7006 93.3066 39.3372M107.693 25.1456L108.256 25.2056V40.155L109.744 40.9778V41.6231H101.28V40.9817L102.8 40.1537V27.5502L100.982 26.8347V26.3236L107.693 25.1315M108.288 21.0939C108.237 22.6425 106.949 23.864 105.395 23.8321C104.893 23.8521 104.395 23.7365 103.953 23.4973C103.512 23.2581 103.143 22.9043 102.886 22.4732C102.629 22.0421 102.493 21.5497 102.494 21.0481C102.494 20.5465 102.63 20.0542 102.887 19.6233C103.144 19.1922 103.512 18.8383 103.954 18.599C104.395 18.3597 104.893 18.2439 105.395 18.2638C105.77 18.2589 106.142 18.3277 106.49 18.4664C106.839 18.6051 107.156 18.8109 107.425 19.072C107.693 19.3332 107.907 19.6446 108.055 19.9884C108.203 20.3323 108.282 20.7018 108.287 21.076V21.0939M127.293 40.1294V27.4097L125.505 26.7862V26.1703L132.016 24.9616L132.672 25.0216V26.928H132.851C134.397 25.6083 136.363 24.8806 138.398 24.8747C141.233 24.8747 142.481 26.2137 142.481 29.2062V40.1128L144 40.9791V41.6077H135.523V40.9663L137.042 40.1384V29.4796C137.042 27.8416 136.326 27.1874 134.986 27.1874C134.181 27.165 133.393 27.4154 132.75 27.8978V40.1384L134.243 40.9612V41.6128H125.765V40.9714L127.284 40.1435M118.074 32.1449V30.0086C118.074 26.7938 117.37 25.741 115.379 25.741C115.153 25.7461 114.928 25.7665 114.705 25.801L111.16 30.5976H110.648V26.1767C112.564 25.5199 114.574 25.1724 116.6 25.1456C120.939 25.1456 123.454 26.3466 123.454 29.9728V40.3735L125.007 40.7823V41.1912C124.02 41.6973 122.922 41.949 121.813 41.9233C119.673 41.9233 118.649 41.2206 118.178 40.0515H118.024C117.115 41.2781 115.828 41.9808 113.806 41.9808C111.228 41.9808 109.467 40.3735 109.467 37.5957C109.467 34.9048 111.138 33.4431 114.535 32.7991L118.06 32.1475M118.06 39.3411V32.9065L116.975 32.9933C115.272 33.1403 114.661 34.2238 114.661 36.6221C114.661 39.2222 115.528 39.8981 116.708 39.8981C116.962 39.9214 117.217 39.8832 117.452 39.7866C117.687 39.69 117.895 39.538 118.059 39.3436M63.102 32.15V30.0137C63.102 26.7989 62.398 25.7461 60.4065 25.7461C60.181 25.7515 59.9561 25.7716 59.7333 25.8062L56.1892 30.5912H55.6939V26.1754C57.6087 25.5192 59.6159 25.1711 61.6403 25.1443C65.9792 25.1443 68.4942 26.3453 68.4942 29.9715V40.3722L70.0481 40.781V41.1899C69.061 41.696 67.9628 41.9477 66.8534 41.9221C64.7134 41.9221 63.6895 41.2193 63.2184 40.0502H63.0713C62.1625 41.2768 60.8749 41.9796 58.8527 41.9796C56.2749 41.9796 54.5138 40.3722 54.5138 37.5944C54.5138 34.9035 56.1853 33.4418 59.5822 32.7978L63.102 32.1462M63.102 39.3398V32.9052L62.0166 32.9921C60.3143 33.139 59.7025 34.2225 59.7025 36.6208C59.7025 39.221 60.5703 39.8969 61.7504 39.8969C62.0036 39.9202 62.2587 39.8819 62.4938 39.7853C62.729 39.6888 62.9372 39.5368 63.1007 39.3423" fill="#40615A"/>
</svg>
