<svg width="194" height="66" viewBox="0 0 194 66" fill="none" xmlns="http://www.w3.org/2000/svg">
<path opacity="0.5" d="M100.501 60.69H92.9703V48.765C92.9703 48.54 92.7941 48.315 92.5299 48.315H87.7294C87.5092 48.315 87.289 48.495 87.289 48.765V65.19C87.289 65.415 87.4651 65.64 87.7294 65.64H100.501C100.721 65.64 100.942 65.46 100.942 65.19V61.14C100.942 60.915 100.721 60.69 100.501 60.69ZM154.98 54.885C154.98 55.965 154.143 56.55 152.822 56.55H150.4V53.175H152.866C154.187 53.175 155.024 53.715 155.024 54.84V54.885H154.98ZM157.534 60.195C157.402 59.97 157.446 59.7 157.666 59.565C159.472 58.53 160.573 56.865 160.573 54.48V54.435C160.573 52.635 160.044 51.375 159.032 50.34C157.842 49.125 155.949 48.36 152.954 48.36H145.115C144.894 48.36 144.674 48.54 144.674 48.81V65.235C144.674 65.46 144.85 65.685 145.115 65.685H149.915C150.135 65.685 150.355 65.505 150.355 65.235V60.735H151.545L154.627 65.46C154.716 65.595 154.848 65.64 154.98 65.64H160.397C160.749 65.64 160.925 65.235 160.749 64.965L157.534 60.195ZM137.584 57.045C137.584 59.07 136.218 60.915 134.06 60.915C131.902 60.915 130.493 59.07 130.493 57V56.955C130.493 54.93 131.858 53.085 134.016 53.085C136.174 53.085 137.584 54.93 137.584 57V57.045ZM134.06 48C128.82 48 124.812 52.005 124.812 57V57.045C124.812 62.085 128.82 66 134.016 66C139.257 66 143.265 61.995 143.265 57V56.955C143.265 51.915 139.301 48 134.06 48ZM85.3512 60.915H76.8073V60.465V59.475V59.025H84.6465C84.8667 59.025 85.0869 58.845 85.0869 58.575V55.29C85.0869 55.065 84.9108 54.84 84.6465 54.84H76.8073V54.39V53.49V53.04H85.2631C85.4833 53.04 85.7035 52.86 85.7035 52.59V48.72C85.7035 48.495 85.5274 48.27 85.2631 48.27H71.6985C71.4783 48.27 71.2581 48.45 71.2581 48.72V65.145C71.2581 65.37 71.4343 65.595 71.6985 65.595H85.3952C85.6154 65.595 85.8356 65.415 85.8356 65.145V61.275C85.7916 61.095 85.6154 60.915 85.3512 60.915ZM175.679 60.69H168.148V48.765C168.148 48.54 167.972 48.315 167.708 48.315H162.907C162.687 48.315 162.467 48.495 162.467 48.765V65.19C162.467 65.415 162.643 65.64 162.907 65.64H175.679C175.899 65.64 176.119 65.46 176.119 65.19V61.14C176.075 60.915 175.899 60.69 175.679 60.69ZM124.944 48.36H120.011C119.835 48.36 119.659 48.495 119.615 48.675L117.677 55.335C117.545 55.74 116.973 55.74 116.84 55.335L114.638 48.585C114.594 48.405 114.418 48.27 114.242 48.27H109.97C109.794 48.27 109.618 48.405 109.574 48.585L107.372 55.335C107.239 55.74 106.667 55.74 106.535 55.335L104.597 48.675C104.553 48.495 104.377 48.36 104.201 48.36H99.18C98.8717 48.36 98.6956 48.63 98.7837 48.945L104.025 65.505C104.069 65.685 104.245 65.82 104.421 65.82H108.737C108.913 65.82 109.089 65.685 109.133 65.55L111.6 58.395C111.732 57.99 112.26 57.99 112.392 58.395L114.859 65.55C114.903 65.73 115.079 65.82 115.255 65.82H119.571C119.747 65.82 119.923 65.685 119.967 65.505L125.208 48.945C125.472 48.63 125.252 48.36 124.944 48.36ZM16.0749 48.36H11.2745C11.0543 48.36 10.8341 48.54 10.8341 48.81V54.48H5.68127V48.81C5.68127 48.585 5.50511 48.36 5.24086 48.36H0.440409C0.220204 48.36 0 48.54 0 48.81V65.235C0 65.46 0.176163 65.685 0.440409 65.685H5.24086C5.46107 65.685 5.68127 65.505 5.68127 65.235V59.475H10.8341V65.235C10.8341 65.46 11.0102 65.685 11.2745 65.685H16.0749C16.2951 65.685 16.5153 65.505 16.5153 65.235V48.81C16.5153 48.54 16.2951 48.36 16.0749 48.36ZM188.319 57.045C188.319 59.52 186.645 60.645 184.047 60.645H183.122V53.445H184.047C186.645 53.445 188.319 54.525 188.319 57.045ZM183.915 48.36H177.881C177.661 48.36 177.441 48.54 177.441 48.81V65.235C177.441 65.46 177.617 65.685 177.881 65.685H183.738C190.565 65.685 194 62.04 194 56.955V56.91C194 51.735 190.653 48.36 183.915 48.36ZM45.7144 54.48C43.9087 54.12 43.4683 53.85 43.4683 53.355V53.31C43.4683 52.905 43.8647 52.59 44.7015 52.59C46.1548 52.59 47.9165 53.04 49.4579 54.075C49.6341 54.21 49.8983 54.165 50.0304 53.94L52.2765 50.745C52.4086 50.565 52.3646 50.25 52.1884 50.115C50.2947 48.72 47.9605 48 44.8776 48C40.2093 48 37.699 50.565 37.699 53.85V53.895C37.699 57.54 41.0461 58.665 44.8336 59.475C46.6393 59.835 47.1678 60.105 47.1678 60.6V60.645C47.1678 61.095 46.7274 61.365 45.7144 61.365C43.8207 61.365 41.8829 60.825 40.1212 59.565C39.9451 59.43 39.6808 59.475 39.5487 59.655L37.0824 62.67C36.9062 62.85 36.9503 63.165 37.1264 63.3C39.2404 65.055 42.1911 65.91 45.4502 65.91C49.9864 65.91 52.9371 63.705 52.9371 60.06V60.015C52.9371 56.595 50.0304 55.29 45.7144 54.48ZM69.0561 48.36H54.3024C54.0822 48.36 53.862 48.54 53.862 48.81V52.815C53.862 53.04 54.0381 53.265 54.3024 53.265H58.8386V65.235C58.8386 65.46 59.0148 65.685 59.279 65.685H64.0795C64.2997 65.685 64.5199 65.505 64.5199 65.235V53.265H69.0561C69.2763 53.265 69.4965 53.085 69.4965 52.815V48.81C69.4524 48.54 69.2763 48.36 69.0561 48.36ZM30.8286 57.045C30.8286 59.07 29.4633 60.915 27.3053 60.915C25.1473 60.915 23.738 59.07 23.738 57V56.955C23.738 54.93 25.1033 53.085 27.2613 53.085C29.4193 53.085 30.8286 54.93 30.8286 57V57.045ZM27.3053 48C22.0645 48 18.0568 52.005 18.0568 57V57.045C18.0568 62.085 22.0645 66 27.2613 66C32.5022 66 36.5099 61.995 36.5099 57V56.955C36.5099 51.915 32.5462 48 27.3053 48Z" fill="#40615A"/>
<path d="M32.0171 10.7062L30.2825 10.287L30.9484 4.24449H37.5335V6.0449H32.7488L32.4364 8.84006C32.6063 8.73593 32.8529 8.6318 33.1763 8.52766C33.5051 8.41805 33.8751 8.36324 34.2861 8.36324C34.8561 8.36324 35.3658 8.45641 35.8153 8.64276C36.2647 8.82362 36.6456 9.08669 36.958 9.43198C37.2759 9.77726 37.5143 10.1993 37.6732 10.698C37.8376 11.1913 37.9199 11.7503 37.9199 12.3751C37.9199 12.9232 37.8376 13.4384 37.6732 13.9207C37.5143 14.3975 37.2704 14.8223 36.9415 15.1949C36.6127 15.5622 36.1989 15.8526 35.7002 16.0664C35.2014 16.2746 34.615 16.3788 33.9409 16.3788C33.4312 16.3788 32.9406 16.3048 32.4693 16.1568C32.0034 16.0033 31.5842 15.7814 31.2115 15.4909C30.8388 15.1949 30.5401 14.8332 30.3154 14.4057C30.0961 13.9782 29.9756 13.4877 29.9536 12.9342H32.0993C32.1377 13.3014 32.2364 13.6138 32.3953 13.8714C32.5542 14.1289 32.7625 14.3263 33.0201 14.4633C33.2832 14.6003 33.5874 14.6688 33.9326 14.6688C34.245 14.6688 34.5136 14.6112 34.7383 14.4962C34.9685 14.3756 35.1576 14.2084 35.3056 13.9947C35.4535 13.7809 35.5631 13.5288 35.6344 13.2383C35.7056 12.9479 35.7413 12.63 35.7413 12.2847C35.7413 11.9504 35.7002 11.6462 35.618 11.3722C35.5357 11.0926 35.4097 10.8515 35.2398 10.6487C35.0699 10.4459 34.8561 10.2897 34.5985 10.1801C34.3464 10.0705 34.0505 10.0157 33.7107 10.0157C33.2558 10.0157 32.905 10.0842 32.6584 10.2212C32.4172 10.3582 32.2035 10.5199 32.0171 10.7062ZM39.6874 15.1538C39.6874 14.825 39.7997 14.5482 40.0244 14.3235C40.2492 14.0988 40.5533 13.9864 40.937 13.9864C41.3206 13.9864 41.6248 14.0988 41.8495 14.3235C42.0742 14.5482 42.1866 14.825 42.1866 15.1538C42.1866 15.4772 42.0742 15.7512 41.8495 15.9759C41.6248 16.1952 41.3206 16.3048 40.937 16.3048C40.5533 16.3048 40.2492 16.1952 40.0244 15.9759C39.7997 15.7512 39.6874 15.4772 39.6874 15.1538ZM52.1916 9.20179V11.2159C52.1916 12.1367 52.0984 12.9232 51.9121 13.5754C51.7258 14.2276 51.4572 14.762 51.1064 15.1785C50.7557 15.5896 50.3364 15.8937 49.8486 16.091C49.3608 16.2829 48.8182 16.3788 48.2208 16.3788C47.744 16.3788 47.3001 16.3185 46.889 16.1979C46.478 16.0719 46.108 15.88 45.7792 15.6224C45.4558 15.3594 45.1763 15.025 44.9406 14.6195C44.7105 14.2139 44.5323 13.7289 44.4063 13.1643C44.2857 12.5998 44.2254 11.9504 44.2254 11.2159V9.20179C44.2254 8.28103 44.3186 7.49729 44.5049 6.85057C44.6967 6.20384 44.968 5.67495 45.3188 5.2639C45.6696 4.85285 46.0888 4.55415 46.5766 4.36781C47.0644 4.17598 47.607 4.08007 48.2044 4.08007C48.6867 4.08007 49.1306 4.14036 49.5362 4.26093C49.9473 4.38151 50.3145 4.57059 50.6378 4.82818C50.9667 5.0803 51.2462 5.40914 51.4764 5.81471C51.7066 6.2148 51.882 6.69711 52.0025 7.26162C52.1286 7.82065 52.1916 8.46737 52.1916 9.20179ZM50.0213 11.5119V8.89761C50.0213 8.43723 49.9939 8.03714 49.939 7.69734C49.8897 7.35205 49.8157 7.05883 49.7171 6.81768C49.6184 6.57653 49.4951 6.38197 49.3471 6.23399C49.1991 6.08053 49.0292 5.96817 48.8374 5.89692C48.6456 5.82567 48.4346 5.79005 48.2044 5.79005C47.9194 5.79005 47.6646 5.8476 47.4398 5.96269C47.2151 6.07231 47.026 6.24769 46.8726 6.48884C46.7191 6.72999 46.6013 7.05061 46.5191 7.4507C46.4424 7.84531 46.404 8.32762 46.404 8.89761V11.5119C46.404 11.9723 46.4287 12.3751 46.478 12.7204C46.5328 13.0657 46.6095 13.3616 46.7082 13.6083C46.8123 13.8549 46.9356 14.0577 47.0781 14.2166C47.2261 14.3701 47.396 14.4852 47.5878 14.5619C47.7796 14.6332 47.9907 14.6688 48.2208 14.6688C48.5113 14.6688 48.7662 14.6112 48.9854 14.4962C49.2101 14.3811 49.3992 14.2002 49.5527 13.9536C49.7061 13.7015 49.8212 13.3753 49.8979 12.9753C49.9802 12.5697 50.0213 12.0819 50.0213 11.5119Z" fill="#40615A"/>
<path fill-rule="evenodd" clip-rule="evenodd" d="M67.7751 16.5738L72.0108 19.1303C72.7835 19.5967 73.7368 18.9039 73.5318 18.0249L72.4077 13.2065L76.1512 9.9635C76.8334 9.37247 76.4687 8.2518 75.5693 8.17549L70.6424 7.75749L68.7146 3.20889C68.363 2.37927 67.1872 2.37927 66.8356 3.20889L64.9077 7.75749L59.9808 8.17549C59.0814 8.2518 58.7167 9.37247 59.3989 9.9635L63.1424 13.2065L62.0183 18.0249C61.8133 18.9039 62.7666 19.5967 63.5393 19.1303L67.7751 16.5738Z" fill="#F1845B"/>
<path fill-rule="evenodd" clip-rule="evenodd" d="M89.2037 16.5738L93.4394 19.1303C94.2121 19.5967 95.1654 18.9039 94.9604 18.0249L93.8363 13.2065L97.5798 9.9635C98.262 9.37247 97.8973 8.2518 96.9979 8.17549L92.071 7.75749L90.1432 3.20889C89.7915 2.37927 88.6158 2.37927 88.2641 3.20889L86.3363 7.75749L81.4094 8.17549C80.51 8.2518 80.1453 9.37247 80.8275 9.9635L84.571 13.2065L83.4469 18.0249C83.2419 18.9039 84.1952 19.5967 84.9679 19.1303L89.2037 16.5738Z" fill="#F1845B"/>
<path fill-rule="evenodd" clip-rule="evenodd" d="M110.632 16.5738L114.868 19.1303C115.641 19.5967 116.594 18.9039 116.389 18.0249L115.265 13.2065L119.008 9.9635C119.691 9.37247 119.326 8.2518 118.426 8.17549L113.5 7.75749L111.572 3.20889C111.22 2.37927 110.044 2.37927 109.693 3.20889L107.765 7.75749L102.838 8.17549C101.939 8.2518 101.574 9.37247 102.256 9.9635L106 13.2065L104.875 18.0249C104.67 18.9039 105.624 19.5967 106.396 19.1303L110.632 16.5738Z" fill="#F1845B"/>
<path fill-rule="evenodd" clip-rule="evenodd" d="M132.061 16.5738L136.296 19.1303C137.069 19.5967 138.023 18.9039 137.817 18.0249L136.693 13.2065L140.437 9.9635C141.119 9.37247 140.754 8.2518 139.855 8.17549L134.928 7.75749L133 3.20889C132.649 2.37927 131.473 2.37927 131.121 3.20889L129.193 7.75749L124.267 8.17549C123.367 8.2518 123.002 9.37247 123.685 9.9635L127.428 13.2065L126.304 18.0249C126.099 18.9039 127.052 19.5967 127.825 19.1303L132.061 16.5738Z" fill="#F1845B"/>
<path fill-rule="evenodd" clip-rule="evenodd" d="M153.489 16.5738L157.725 19.1303C158.498 19.5967 159.451 18.9039 159.246 18.0249L158.122 13.2065L161.865 9.9635C162.548 9.37247 162.183 8.2518 161.284 8.17549L156.357 7.75749L154.429 3.20889C154.077 2.37927 152.901 2.37927 152.55 3.20889L150.622 7.75749L145.695 8.17549C144.796 8.2518 144.431 9.37247 145.113 9.9635L148.857 13.2065L147.733 18.0249C147.528 18.9039 148.481 19.5967 149.254 19.1303L153.489 16.5738Z" fill="#F1845B"/>
<path opacity="0.5" d="M31.6188 31.4027V31.248C31.6188 30.7234 31.6951 30.2368 31.8475 29.7884C32 29.3355 32.2197 28.9431 32.5067 28.6113C32.7937 28.275 33.1412 28.0149 33.5493 27.831C33.9573 27.6427 34.4147 27.5485 34.9214 27.5485C35.4326 27.5485 35.8923 27.6427 36.3003 27.831C36.7129 28.0149 37.0627 28.275 37.3496 28.6113C37.6411 28.9431 37.8631 29.3355 38.0156 29.7884C38.168 30.2368 38.2443 30.7234 38.2443 31.248V31.4027C38.2443 31.9274 38.168 32.4139 38.0156 32.8623C37.8631 33.3107 37.6411 33.7031 37.3496 34.0394C37.0627 34.3713 36.7151 34.6313 36.3071 34.8197C35.9035 35.0035 35.4461 35.0955 34.9349 35.0955C34.4237 35.0955 33.9641 35.0035 33.556 34.8197C33.1479 34.6313 32.7982 34.3713 32.5067 34.0394C32.2197 33.7031 32 33.3107 31.8475 32.8623C31.6951 32.4139 31.6188 31.9274 31.6188 31.4027ZM32.8632 31.248V31.4027C32.8632 31.7659 32.9058 32.109 32.991 32.4318C33.0762 32.7502 33.204 33.0327 33.3744 33.2794C33.5493 33.526 33.7668 33.7211 34.0268 33.8645C34.2869 34.0036 34.5896 34.0731 34.9349 34.0731C35.2757 34.0731 35.5739 34.0036 35.8295 33.8645C36.0896 33.7211 36.3048 33.526 36.4752 33.2794C36.6456 33.0327 36.7734 32.7502 36.8586 32.4318C36.9483 32.109 36.9932 31.7659 36.9932 31.4027V31.248C36.9932 30.8893 36.9483 30.5507 36.8586 30.2323C36.7734 29.9095 36.6434 29.6247 36.4685 29.3781C36.2981 29.127 36.0829 28.9297 35.8228 28.7862C35.5672 28.6427 35.2667 28.5709 34.9214 28.5709C34.5806 28.5709 34.2802 28.6427 34.0201 28.7862C33.7645 28.9297 33.5493 29.127 33.3744 29.3781C33.204 29.6247 33.0762 29.9095 32.991 30.2323C32.9058 30.5507 32.8632 30.8893 32.8632 31.248ZM44.2576 33.2794V27.6831H45.5087V34.9609H44.3181L44.2576 33.2794ZM44.493 31.7458L45.0109 31.7323C45.0109 32.2166 44.9594 32.665 44.8562 33.0776C44.7576 33.4856 44.5961 33.8399 44.3719 34.1403C44.1477 34.4408 43.854 34.6762 43.4908 34.8466C43.1276 35.0125 42.6859 35.0955 42.1657 35.0955C41.8114 35.0955 41.4863 35.0439 41.1904 34.9408C40.8989 34.8376 40.6478 34.6784 40.437 34.4632C40.2263 34.2479 40.0626 33.9677 39.946 33.6224C39.8339 33.2771 39.7779 32.8623 39.7779 32.378V27.6831H41.0222V32.3915C41.0222 32.7188 41.0581 32.9901 41.1298 33.2054C41.2061 33.4161 41.307 33.5843 41.4325 33.7098C41.5626 33.8309 41.7061 33.9161 41.863 33.9654C42.0244 34.0148 42.1904 34.0394 42.3608 34.0394C42.8899 34.0394 43.3092 33.9385 43.6186 33.7367C43.928 33.5305 44.15 33.2547 44.2845 32.9094C44.4235 32.5596 44.493 32.1718 44.493 31.7458ZM50.4525 27.6831V28.6382H46.5176V27.6831H50.4525ZM47.8494 25.914H49.0938V33.1583C49.0938 33.4049 49.1319 33.591 49.2082 33.7166C49.2844 33.8421 49.383 33.9251 49.5041 33.9654C49.6252 34.0058 49.7552 34.026 49.8942 34.026C49.9974 34.026 50.105 34.017 50.2171 33.9991C50.3337 33.9767 50.4211 33.9587 50.4794 33.9453L50.4862 34.9609C50.3875 34.9923 50.2575 35.0215 50.096 35.0484C49.9391 35.0798 49.7485 35.0955 49.5243 35.0955C49.2194 35.0955 48.9391 35.0349 48.6835 34.9139C48.4279 34.7928 48.2239 34.591 48.0714 34.3085C47.9234 34.0215 47.8494 33.6359 47.8494 33.1516V25.914ZM54.9995 31.4027V31.248C54.9995 30.7234 55.0758 30.2368 55.2282 29.7884C55.3807 29.3355 55.6004 28.9431 55.8874 28.6113C56.1744 28.275 56.5219 28.0149 56.93 27.831C57.338 27.6427 57.7954 27.5485 58.3021 27.5485C58.8133 27.5485 59.273 27.6427 59.681 27.831C60.0936 28.0149 60.4434 28.275 60.7303 28.6113C61.0218 28.9431 61.2438 29.3355 61.3963 29.7884C61.5487 30.2368 61.6249 30.7234 61.6249 31.248V31.4027C61.6249 31.9274 61.5487 32.4139 61.3963 32.8623C61.2438 33.3107 61.0218 33.7031 60.7303 34.0394C60.4434 34.3713 60.0958 34.6313 59.6878 34.8197C59.2842 35.0035 58.8268 35.0955 58.3156 35.0955C57.8044 35.0955 57.3448 35.0035 56.9367 34.8197C56.5286 34.6313 56.1789 34.3713 55.8874 34.0394C55.6004 33.7031 55.3807 33.3107 55.2282 32.8623C55.0758 32.4139 54.9995 31.9274 54.9995 31.4027ZM56.2439 31.248V31.4027C56.2439 31.7659 56.2865 32.109 56.3717 32.4318C56.4569 32.7502 56.5847 33.0327 56.7551 33.2794C56.93 33.526 57.1475 33.7211 57.4075 33.8645C57.6676 34.0036 57.9703 34.0731 58.3156 34.0731C58.6564 34.0731 58.9546 34.0036 59.2102 33.8645C59.4703 33.7211 59.6855 33.526 59.8559 33.2794C60.0263 33.0327 60.1541 32.7502 60.2393 32.4318C60.329 32.109 60.3739 31.7659 60.3739 31.4027V31.248C60.3739 30.8893 60.329 30.5507 60.2393 30.2323C60.1541 29.9095 60.0241 29.6247 59.8492 29.3781C59.6788 29.127 59.4636 28.9297 59.2035 28.7862C58.9479 28.6427 58.6474 28.5709 58.3021 28.5709C57.9613 28.5709 57.6609 28.6427 57.4008 28.7862C57.1452 28.9297 56.93 29.127 56.7551 29.3781C56.5847 29.6247 56.4569 29.9095 56.3717 30.2323C56.2865 30.5507 56.2439 30.8893 56.2439 31.248ZM65.0419 34.9609H63.7976V26.9163C63.7976 26.3916 63.8917 25.9499 64.0801 25.5912C64.2729 25.2279 64.5487 24.9544 64.9074 24.7706C65.2661 24.5822 65.6921 24.4881 66.1854 24.4881C66.3289 24.4881 66.4724 24.497 66.6159 24.515C66.7639 24.5329 66.9074 24.5598 67.0464 24.5957L66.9791 25.6113C66.8849 25.5889 66.7773 25.5732 66.6562 25.5643C66.5397 25.5553 66.4231 25.5508 66.3065 25.5508C66.0419 25.5508 65.8132 25.6046 65.6204 25.7122C65.432 25.8154 65.2886 25.9678 65.1899 26.1696C65.0912 26.3714 65.0419 26.6203 65.0419 26.9163V34.9609ZM66.589 27.6831V28.6382H62.6474V27.6831H66.589ZM75.3467 25.1136V34.9609H74.1023V26.6674L71.5934 27.5822V26.4589L75.1516 25.1136H75.3467ZM80.2703 33.4811V34.4834C80.2703 34.8914 80.1672 35.3219 79.9609 35.7748C79.7546 36.2322 79.4654 36.6134 79.0932 36.9183L78.3869 36.4273C78.5304 36.23 78.6515 36.0282 78.7502 35.8219C78.8488 35.6201 78.9228 35.4094 78.9721 35.1896C79.0259 34.9744 79.0529 34.7457 79.0529 34.5035V33.4811H80.2703ZM83.5393 29.4521H84.4272C84.8622 29.4521 85.2209 29.3803 85.5034 29.2368C85.7904 29.0889 86.0034 28.8893 86.1424 28.6382C86.2859 28.3826 86.3576 28.0956 86.3576 27.7772C86.3576 27.4006 86.2949 27.0844 86.1693 26.8288C86.0437 26.5732 85.8554 26.3804 85.6043 26.2503C85.3532 26.1203 85.0348 26.0553 84.6492 26.0553C84.2994 26.0553 83.99 26.1248 83.7209 26.2638C83.4564 26.3983 83.2478 26.5911 83.0954 26.8423C82.9474 27.0934 82.8734 27.3893 82.8734 27.7301H81.629C81.629 27.2324 81.7546 26.7795 82.0057 26.3714C82.2568 25.9634 82.6088 25.6383 83.0617 25.3961C83.5191 25.154 84.0483 25.0329 84.6492 25.0329C85.2411 25.0329 85.759 25.1383 86.2029 25.349C86.6469 25.5553 86.9922 25.8647 87.2388 26.2773C87.4854 26.6853 87.6087 27.1943 87.6087 27.8041C87.6087 28.0508 87.5504 28.3153 87.4339 28.5978C87.3217 28.8759 87.1446 29.1359 86.9025 29.3781C86.6648 29.6202 86.3554 29.8198 85.9742 29.9767C85.5931 30.1292 85.1357 30.2054 84.6021 30.2054H83.5393V29.4521ZM83.5393 30.4745V29.7279H84.6021C85.2254 29.7279 85.7411 29.8018 86.1491 29.9498C86.5572 30.0978 86.8778 30.2951 87.111 30.5417C87.3487 30.7884 87.5146 31.0597 87.6087 31.3556C87.7074 31.6471 87.7567 31.9386 87.7567 32.2301C87.7567 32.6874 87.6782 33.0933 87.5213 33.4475C87.3688 33.8018 87.1513 34.1022 86.8688 34.3488C86.5908 34.5955 86.2635 34.7816 85.8868 34.9071C85.5101 35.0327 85.0998 35.0955 84.6559 35.0955C84.2299 35.0955 83.8285 35.0349 83.4519 34.9139C83.0797 34.7928 82.7501 34.6179 82.4631 34.3892C82.1761 34.156 81.9519 33.8713 81.7905 33.535C81.629 33.1942 81.5483 32.8063 81.5483 32.3713H82.7927C82.7927 32.7121 82.8667 33.0103 83.0147 33.2659C83.1671 33.5215 83.3824 33.7211 83.6604 33.8645C83.9429 34.0036 84.2747 34.0731 84.6559 34.0731C85.037 34.0731 85.3644 34.008 85.6379 33.878C85.9159 33.7435 86.1289 33.5417 86.2769 33.2726C86.4294 33.0036 86.5056 32.665 86.5056 32.257C86.5056 31.8489 86.4204 31.5148 86.25 31.2547C86.0796 30.9902 85.8375 30.7951 85.5236 30.6695C85.2142 30.5395 84.8487 30.4745 84.4272 30.4745H83.5393ZM95.6467 32.3108C95.6467 32.9072 95.5077 33.4139 95.2297 33.8309C94.9561 34.2435 94.5839 34.5574 94.1131 34.7726C93.6467 34.9878 93.1198 35.0955 92.5324 35.0955C91.945 35.0955 91.4158 34.9878 90.945 34.7726C90.4742 34.5574 90.102 34.2435 89.8284 33.8309C89.5549 33.4139 89.4181 32.9072 89.4181 32.3108C89.4181 31.9206 89.4921 31.5641 89.6401 31.2413C89.7925 30.9139 90.0055 30.6292 90.2791 30.387C90.5571 30.1449 90.8845 29.9588 91.2611 29.8288C91.6423 29.6942 92.0616 29.627 92.519 29.627C93.1198 29.627 93.6557 29.7436 94.1265 29.9767C94.5974 30.2054 94.9673 30.5216 95.2364 30.9251C95.5099 31.3287 95.6467 31.7906 95.6467 32.3108ZM94.3956 32.2839C94.3956 31.9206 94.3171 31.6 94.1602 31.322C94.0032 31.0395 93.7835 30.8198 93.501 30.6628C93.2185 30.5059 92.8911 30.4274 92.519 30.4274C92.1378 30.4274 91.8082 30.5059 91.5302 30.6628C91.2566 30.8198 91.0436 31.0395 90.8912 31.322C90.7387 31.6 90.6625 31.9206 90.6625 32.2839C90.6625 32.6605 90.7365 32.9834 90.8845 33.2525C91.0369 33.517 91.2522 33.7211 91.5302 33.8645C91.8127 34.0036 92.1468 34.0731 92.5324 34.0731C92.918 34.0731 93.2499 34.0036 93.5279 33.8645C93.8059 33.7211 94.0189 33.517 94.1669 33.2525C94.3194 32.9834 94.3956 32.6605 94.3956 32.2839ZM95.418 27.7167C95.418 28.192 95.2924 28.6203 95.0413 29.0014C94.7902 29.3826 94.4472 29.683 94.0122 29.9027C93.5772 30.1225 93.084 30.2323 92.5324 30.2323C91.9719 30.2323 91.4719 30.1225 91.0324 29.9027C90.5975 29.683 90.2567 29.3826 90.01 29.0014C89.7634 28.6203 89.6401 28.192 89.6401 27.7167C89.6401 27.1472 89.7634 26.6629 90.01 26.2638C90.2611 25.8647 90.6042 25.5598 91.0392 25.349C91.4741 25.1383 91.9696 25.0329 92.5257 25.0329C93.0862 25.0329 93.584 25.1383 94.0189 25.349C94.4539 25.5598 94.7947 25.8647 95.0413 26.2638C95.2924 26.6629 95.418 27.1472 95.418 27.7167ZM94.1736 27.7369C94.1736 27.4095 94.1041 27.1203 93.9651 26.8692C93.8261 26.6181 93.6333 26.4207 93.3866 26.2773C93.14 26.1293 92.853 26.0553 92.5257 26.0553C92.1983 26.0553 91.9113 26.1248 91.6647 26.2638C91.4226 26.3983 91.232 26.5911 91.093 26.8423C90.9584 27.0934 90.8912 27.3916 90.8912 27.7369C90.8912 28.0732 90.9584 28.3669 91.093 28.618C91.232 28.8691 91.4248 29.0642 91.6714 29.2032C91.9181 29.3422 92.2051 29.4117 92.5324 29.4117C92.8598 29.4117 93.1445 29.3422 93.3866 29.2032C93.6333 29.0642 93.8261 28.8691 93.9651 28.618C94.1041 28.3669 94.1736 28.0732 94.1736 27.7369ZM103.369 29.2839V30.7772C103.369 31.5798 103.297 32.257 103.153 32.8085C103.01 33.3601 102.804 33.804 102.534 34.1403C102.265 34.4766 101.94 34.721 101.559 34.8735C101.182 35.0215 100.756 35.0955 100.281 35.0955C99.9045 35.0955 99.5569 35.0484 99.2386 34.9542C98.9202 34.86 98.6332 34.7098 98.3776 34.5035C98.1265 34.2928 97.9112 34.0193 97.7319 33.6829C97.5525 33.3466 97.4157 32.9386 97.3215 32.4587C97.2274 31.9789 97.1803 31.4184 97.1803 30.7772V29.2839C97.1803 28.4812 97.252 27.8086 97.3955 27.266C97.5435 26.7234 97.752 26.2885 98.0211 25.9611C98.2901 25.6293 98.613 25.3916 98.9897 25.2481C99.3708 25.1046 99.7968 25.0329 100.268 25.0329C100.649 25.0329 100.999 25.08 101.317 25.1741C101.64 25.2638 101.927 25.4096 102.178 25.6113C102.429 25.8087 102.642 26.0732 102.817 26.4051C102.996 26.7324 103.133 27.1337 103.227 27.6091C103.321 28.0844 103.369 28.6427 103.369 29.2839ZM102.117 30.979V29.0754C102.117 28.636 102.091 28.2503 102.037 27.9185C101.987 27.5822 101.913 27.2952 101.815 27.0575C101.716 26.8198 101.591 26.627 101.438 26.479C101.29 26.3311 101.117 26.2234 100.92 26.1562C100.727 26.0844 100.51 26.0486 100.268 26.0486C99.9717 26.0486 99.7094 26.1046 99.4807 26.2167C99.252 26.3243 99.0592 26.497 98.9022 26.7346C98.7498 26.9723 98.6332 27.284 98.5525 27.6696C98.4718 28.0552 98.4314 28.5238 98.4314 29.0754V30.979C98.4314 31.4184 98.4561 31.8063 98.5054 32.1426C98.5592 32.4789 98.6377 32.7704 98.7408 33.017C98.8439 33.2592 98.9695 33.4587 99.1175 33.6157C99.2655 33.7726 99.4359 33.8892 99.6287 33.9654C99.826 34.0372 100.043 34.0731 100.281 34.0731C100.586 34.0731 100.853 34.0148 101.082 33.8982C101.31 33.7816 101.501 33.6 101.653 33.3533C101.81 33.1022 101.927 32.7816 102.003 32.3915C102.079 31.9969 102.117 31.526 102.117 30.979ZM111.393 29.7077V30.8781H104.68V29.7077H111.393ZM108.662 26.849V33.9789H107.418V26.849H108.662ZM117.581 28.8265V34.9609H116.337V27.6831H117.548L117.581 28.8265ZM119.855 27.6427L119.848 28.7996C119.745 28.7772 119.646 28.7638 119.552 28.7593C119.462 28.7503 119.359 28.7458 119.243 28.7458C118.956 28.7458 118.702 28.7907 118.483 28.8803C118.263 28.97 118.077 29.0956 117.924 29.257C117.772 29.4184 117.651 29.6113 117.561 29.8355C117.476 30.0552 117.42 30.2974 117.393 30.5619L117.043 30.7637C117.043 30.3243 117.086 29.9117 117.171 29.5261C117.261 29.1404 117.397 28.7996 117.581 28.5037C117.765 28.2032 117.998 27.97 118.281 27.8041C118.568 27.6337 118.909 27.5485 119.303 27.5485C119.393 27.5485 119.496 27.5597 119.613 27.5822C119.729 27.6001 119.81 27.6203 119.855 27.6427ZM123.891 35.0955C123.384 35.0955 122.924 35.0103 122.512 34.8399C122.104 34.665 121.752 34.4206 121.456 34.1067C121.164 33.7928 120.94 33.4206 120.783 32.9901C120.626 32.5596 120.548 32.0888 120.548 31.5776V31.2951C120.548 30.7032 120.635 30.1763 120.81 29.7144C120.985 29.248 121.222 28.8534 121.523 28.5306C121.823 28.2077 122.164 27.9633 122.545 27.7974C122.926 27.6315 123.321 27.5485 123.729 27.5485C124.249 27.5485 124.698 27.6382 125.074 27.8176C125.456 27.997 125.767 28.2481 126.009 28.5709C126.251 28.8893 126.431 29.266 126.547 29.701C126.664 30.1314 126.722 30.6023 126.722 31.1135V31.6718H121.287V30.6561H125.478V30.5619C125.46 30.2391 125.393 29.9252 125.276 29.6202C125.164 29.3153 124.985 29.0642 124.738 28.8669C124.491 28.6696 124.155 28.5709 123.729 28.5709C123.447 28.5709 123.187 28.6315 122.949 28.7525C122.711 28.8691 122.507 29.044 122.337 29.2772C122.166 29.5104 122.034 29.7951 121.94 30.1314C121.846 30.4678 121.799 30.8556 121.799 31.2951V31.5776C121.799 31.9229 121.846 32.248 121.94 32.5529C122.039 32.8534 122.18 33.1179 122.364 33.3466C122.552 33.5753 122.778 33.7547 123.043 33.8847C123.312 34.0148 123.617 34.0798 123.958 34.0798C124.397 34.0798 124.769 33.9901 125.074 33.8107C125.379 33.6314 125.646 33.3915 125.875 33.091L126.628 33.6897C126.471 33.9273 126.272 34.1538 126.029 34.369C125.787 34.5843 125.489 34.7591 125.135 34.8937C124.785 35.0282 124.37 35.0955 123.891 35.0955ZM130.294 33.8376L132.285 27.6831H133.556L130.94 34.9609H130.106L130.294 33.8376ZM128.633 27.6831L130.684 33.8713L130.825 34.9609H129.991L127.355 27.6831H128.633ZM136.106 27.6831V34.9609H134.854V27.6831H136.106ZM134.76 25.7526C134.76 25.5508 134.821 25.3804 134.942 25.2414C135.067 25.1024 135.251 25.0329 135.493 25.0329C135.731 25.0329 135.913 25.1024 136.038 25.2414C136.168 25.3804 136.233 25.5508 136.233 25.7526C136.233 25.9454 136.168 26.1113 136.038 26.2503C135.913 26.3849 135.731 26.4521 135.493 26.4521C135.251 26.4521 135.067 26.3849 134.942 26.2503C134.821 26.1113 134.76 25.9454 134.76 25.7526ZM141.123 35.0955C140.617 35.0955 140.157 35.0103 139.744 34.8399C139.336 34.665 138.984 34.4206 138.688 34.1067C138.397 33.7928 138.173 33.4206 138.016 32.9901C137.859 32.5596 137.78 32.0888 137.78 31.5776V31.2951C137.78 30.7032 137.868 30.1763 138.043 29.7144C138.218 29.248 138.455 28.8534 138.756 28.5306C139.056 28.2077 139.397 27.9633 139.778 27.7974C140.159 27.6315 140.554 27.5485 140.962 27.5485C141.482 27.5485 141.931 27.6382 142.307 27.8176C142.688 27.997 143 28.2481 143.242 28.5709C143.484 28.8893 143.664 29.266 143.78 29.701C143.897 30.1314 143.955 30.6023 143.955 31.1135V31.6718H138.52V30.6561H142.711V30.5619C142.693 30.2391 142.626 29.9252 142.509 29.6202C142.397 29.3153 142.218 29.0642 141.971 28.8669C141.724 28.6696 141.388 28.5709 140.962 28.5709C140.679 28.5709 140.419 28.6315 140.182 28.7525C139.944 28.8691 139.74 29.044 139.57 29.2772C139.399 29.5104 139.267 29.7951 139.173 30.1314C139.079 30.4678 139.031 30.8556 139.031 31.2951V31.5776C139.031 31.9229 139.079 32.248 139.173 32.5529C139.271 32.8534 139.413 33.1179 139.596 33.3466C139.785 33.5753 140.011 33.7547 140.276 33.8847C140.545 34.0148 140.85 34.0798 141.191 34.0798C141.63 34.0798 142.002 33.9901 142.307 33.8107C142.612 33.6314 142.879 33.3915 143.108 33.091L143.861 33.6897C143.704 33.9273 143.504 34.1538 143.262 34.369C143.02 34.5843 142.722 34.7591 142.368 34.8937C142.018 35.0282 141.603 35.0955 141.123 35.0955ZM147.251 33.6695L149.121 27.6831H149.942L149.78 28.8736L147.877 34.9609H147.076L147.251 33.6695ZM145.993 27.6831L147.587 33.7367L147.702 34.9609H146.861L144.749 27.6831H145.993ZM151.731 33.6897L153.251 27.6831H154.489L152.376 34.9609H151.542L151.731 33.6897ZM150.123 27.6831L151.953 33.5686L152.161 34.9609H151.368L149.41 28.8602L149.249 27.6831H150.123ZM160.004 33.0305C160.004 32.8511 159.964 32.6852 159.883 32.5327C159.807 32.3758 159.648 32.2345 159.406 32.109C159.168 31.9789 158.809 31.8668 158.329 31.7727C157.926 31.6875 157.56 31.5866 157.233 31.47C156.91 31.3534 156.634 31.2121 156.406 31.0462C156.181 30.8803 156.009 30.6852 155.888 30.461C155.767 30.2368 155.706 29.9745 155.706 29.674C155.706 29.3871 155.769 29.1158 155.894 28.8602C156.024 28.6046 156.206 28.3781 156.439 28.1808C156.677 27.9835 156.962 27.8288 157.293 27.7167C157.625 27.6046 157.995 27.5485 158.403 27.5485C158.986 27.5485 159.484 27.6517 159.897 27.8579C160.309 28.0642 160.625 28.34 160.845 28.6853C161.065 29.0261 161.175 29.405 161.175 29.822H159.93C159.93 29.6202 159.87 29.4252 159.749 29.2368C159.632 29.044 159.459 28.8848 159.231 28.7593C159.006 28.6337 158.731 28.5709 158.403 28.5709C158.058 28.5709 157.778 28.6247 157.563 28.7324C157.352 28.8355 157.197 28.9678 157.098 29.1292C157.004 29.2906 156.957 29.461 156.957 29.6404C156.957 29.7749 156.98 29.896 157.024 30.0036C157.074 30.1068 157.159 30.2032 157.28 30.2929C157.401 30.3781 157.571 30.4588 157.791 30.535C158.011 30.6112 158.291 30.6875 158.632 30.7637C159.228 30.8982 159.719 31.0597 160.105 31.248C160.491 31.4363 160.778 31.6673 160.966 31.9408C161.154 32.2144 161.249 32.5462 161.249 32.9363C161.249 33.2547 161.181 33.5462 161.047 33.8107C160.917 34.0753 160.726 34.304 160.475 34.4968C160.228 34.6852 159.932 34.8331 159.587 34.9408C159.246 35.0439 158.863 35.0955 158.437 35.0955C157.796 35.0955 157.253 34.9811 156.809 34.7524C156.365 34.5237 156.029 34.2278 155.8 33.8645C155.572 33.5013 155.457 33.1179 155.457 32.7143H156.708C156.726 33.0551 156.825 33.3264 157.004 33.5282C157.184 33.7255 157.403 33.8668 157.663 33.952C157.923 34.0327 158.181 34.0731 158.437 34.0731C158.778 34.0731 159.062 34.0282 159.291 33.9385C159.524 33.8489 159.701 33.7255 159.823 33.5686C159.944 33.4116 160.004 33.2323 160.004 33.0305Z" fill="#181C25"/>
</svg>
